<?xml version="1.0" standalone="no"?>
<!DOCTYPE svg PUBLIC "-//W3C//DTD SVG 20010904//EN"
 "http://www.w3.org/TR/2001/REC-SVG-20010904/DTD/svg10.dtd">
<svg version="1.0" xmlns="http://www.w3.org/2000/svg"
 width="225.000000pt" height="225.000000pt" viewBox="0 0 225.000000 225.000000"
 preserveAspectRatio="xMidYMid meet">

<g transform="translate(0.000000,225.000000) scale(0.100000,-0.100000)"
fill="#000000" stroke="none">
<path d="M965 2226 c-166 -28 -288 -71 -410 -145 -249 -151 -420 -372 -499
-643 -152 -524 89 -1069 581 -1317 34 -17 64 -31 65 -31 2 0 3 48 3 107 l0
108 -69 17 c-92 24 -123 50 -170 144 -29 57 -58 96 -103 139 -69 67 -70 85 -3
85 52 0 119 -47 168 -116 47 -66 94 -102 143 -110 l34 -6 0 109 0 108 -53 30
c-154 88 -231 236 -234 455 -2 122 13 178 71 267 29 45 35 64 30 83 -13 45 -9
165 6 218 15 50 17 52 51 52 42 0 175 -50 228 -86 l38 -26 97 16 c122 20 263
20 376 1 l88 -16 103 52 c74 38 117 53 156 57 l54 4 12 -38 c19 -66 25 -146
13 -207 -10 -55 -9 -59 17 -97 l27 -39 208 -1 c240 0 224 -11 174 120 -137
359 -439 613 -822 695 -102 22 -285 27 -380 11z"/>
<path d="M1847 1229 c-15 -11 -25 -24 -22 -29 3 -4 -3 -7 -13 -6 -9 0 -16 -5
-14 -11 1 -7 -4 -12 -10 -10 -7 1 -11 -5 -10 -13 2 -8 0 -12 -4 -8 -8 8 -36
-12 -115 -85 -31 -29 -89 -79 -130 -112 -40 -33 -83 -69 -95 -81 l-24 -21 23
-11 c20 -10 20 -11 2 -10 -37 2 -55 -2 -55 -12 0 -7 7 -7 20 0 28 15 40 5 40
-32 l0 -30 -92 2 c-134 3 -144 2 -130 -12 20 -20 15 -41 -10 -35 -12 4 -29 1
-37 -5 -13 -10 -14 -10 -3 2 19 21 15 29 -20 38 -27 7 -32 13 -33 38 0 16 -4
28 -10 27 -15 -2 -18 -23 -4 -23 9 0 10 -3 2 -11 -13 -13 73 -112 91 -103 12
6 -27 -31 -117 -112 -31 -29 -57 -60 -57 -70 0 -17 116 -135 167 -170 27 -19
42 -12 133 60 36 29 71 56 78 60 9 5 33 -10 70 -45 49 -45 350 -330 388 -366
13 -13 54 -17 89 -7 19 5 20 12 17 182 -3 163 -5 179 -24 199 -11 12 -23 21
-27 20 -3 -1 -8 3 -10 8 -5 14 -44 40 -54 37 -5 -1 -6 2 -2 7 6 10 -34 37 -48
33 -5 -1 -6 2 -3 6 3 5 -26 37 -64 70 l-70 61 150 116 150 116 0 162 c0 89 -4
167 -8 173 -9 14 -47 34 -64 34 -7 0 -25 -10 -41 -21z m-359 -439 l22 -28 -32
-16 c-38 -19 -42 -17 -28 19 6 16 9 34 6 42 -9 22 8 13 32 -17z m72 -60 c0
-13 -28 -25 -38 -16 -3 4 0 11 8 16 20 13 30 12 30 0z m51 -59 c4 7 11 10 16
6 9 -9 -17 -28 -29 -21 -4 3 -8 11 -7 17 0 8 3 7 6 -2 4 -11 7 -11 14 0z m60
-51 c7 0 9 -3 6 -6 -10 -10 -37 16 -36 35 0 11 3 9 9 -6 5 -13 15 -23 21 -23z
m43 -42 c-3 -4 -12 -8 -20 -8 -8 0 -14 4 -14 8 0 4 9 8 19 8 11 0 17 -4 15 -8z"/>
<path d="M1228 993 c6 -2 18 -2 25 0 6 3 1 5 -13 5 -14 0 -19 -2 -12 -5z"/>
<path d="M1150 980 c0 -5 5 -10 11 -10 5 0 7 5 4 10 -3 6 -8 10 -11 10 -2 0
-4 -4 -4 -10z"/>
<path d="M1294 948 c-13 -21 -12 -55 2 -55 7 0 11 8 9 18 -5 26 12 33 24 12 6
-10 11 -13 11 -7 0 6 -9 19 -19 28 -15 14 -21 15 -27 4z"/>
<path d="M1075 910 c-10 -11 -15 -20 -12 -20 4 0 16 9 27 20 11 11 16 20 12
20 -5 0 -17 -9 -27 -20z"/>
<path d="M1185 900 c-3 -5 -1 -10 4 -10 6 0 11 5 11 10 0 6 -2 10 -4 10 -3 0
-8 -4 -11 -10z"/>
<path d="M1345 900 c-4 -6 -1 -9 7 -8 8 2 12 -4 10 -14 -3 -22 4 -24 11 -4 7
18 -18 42 -28 26z"/>
<path d="M1026 854 c-3 -8 -2 -23 3 -32 13 -23 48 -52 55 -45 8 8 -14 33 -29
33 -16 0 -26 25 -19 45 4 8 4 15 1 15 -3 0 -8 -7 -11 -16z"/>
<path d="M1188 783 c6 -2 18 -2 25 0 6 3 1 5 -13 5 -14 0 -19 -2 -12 -5z"/>
<path d="M2233 210 c0 -30 2 -43 4 -27 2 15 2 39 0 55 -2 15 -4 2 -4 -28z"/>
<path d="M2202 134 c-7 -8 -8 -14 -3 -14 10 0 25 19 20 25 -2 1 -10 -3 -17
-11z"/>
<path d="M2035 65 c-39 -17 -21 -18 25 0 19 7 28 14 20 14 -8 0 -28 -6 -45
-14z"/>
</g>
</svg>
