<?xml version="1.0" encoding="UTF-8"?>
<svg version="1.1" xmlns="http://www.w3.org/2000/svg" width="348" height="488">
<path d="M0 0 C114.84 0 229.68 0 348 0 C348 161.04 348 322.08 348 488 C233.16 488 118.32 488 0 488 C0 326.96 0 165.92 0 0 Z " fill="#016FB9" transform="translate(0,0)"/>
<path d="M0 0 C114.84 0 229.68 0 348 0 C348 161.04 348 322.08 348 488 C290.91 488 233.82 488 175 488 C177.93096307 486.04602462 179.96573298 485.31169401 183.32128906 484.38696289 C184.41783813 484.08187302 185.51438721 483.77678314 186.64416504 483.46244812 C187.83924683 483.1358168 189.03432861 482.80918549 190.265625 482.47265625 C192.17254043 481.94429552 194.07945559 481.41593381 195.98635864 480.88752842 C198.01374654 480.32684893 200.04184962 479.76883066 202.07019043 479.21160889 C206.26213383 478.05995163 210.45206854 476.90111366 214.64160156 475.74072266 C218.83492519 474.57952338 223.02830313 473.41852966 227.22235107 472.25994873 C237.6202171 469.38711876 248.00835876 466.48100413 258.38812256 463.54342651 C260.72871725 462.88102316 263.06963014 462.2197563 265.41064453 461.55883789 C270.88232412 460.01376781 276.35357579 458.46722281 281.82324219 456.91503906 C304.85443113 450.37974599 304.85443113 450.37974599 316 448 C316.07891479 446.25046021 316.07891479 446.25046021 316.15942383 444.46557617 C316.64706455 434.18373472 317.3985898 423.96902201 318.44219971 413.72982788 C320.84439317 390.0572543 322.76004929 366.34253866 324.70395565 342.62904358 C325.96846156 327.20652058 327.24057534 311.78790053 328.76409912 296.38827515 C329.18259351 292.15141193 329.59058543 287.91352984 330 283.67578125 C330.08193604 282.82873627 330.16387207 281.98169128 330.24829102 281.10897827 C332.48529836 258.05016147 332.48529836 258.05016147 334.31640625 234.95629883 C334.96355477 225.84586743 335.86127882 216.76061287 336.74157715 207.67037964 C337.44253704 200.42709983 338.13109757 193.18264427 338.8125 185.9375 C338.89448639 185.06588226 338.97647278 184.19426453 339.0609436 183.29623413 C340.977654 162.82997834 342.66528961 142.34459832 344.3371582 121.85717773 C344.44037384 120.59914337 344.54358948 119.34110901 344.64993286 118.04495239 C344.84365522 115.68210066 345.03594903 113.31913119 345.22653198 110.95602417 C345.31379547 109.89263824 345.40105896 108.82925232 345.4909668 107.73364258 C345.56550583 106.81521072 345.64004486 105.89677887 345.71684265 104.95051575 C346.06792883 101.29217772 346.54415423 97.64676614 347 94 C232.49 94 117.98 94 0 94 C0 62.98 0 31.96 0 0 Z " fill="#EFEFEF" transform="translate(0,0)"/>
<path d="M0 0 C76.89 0 153.78 0 233 0 C233 6.53584179 232.98510356 12.54739727 232.37890625 18.96875 C232.28258156 20.00014099 232.28258156 20.00014099 232.18431091 21.05236816 C232.04973829 22.48078466 231.91269943 23.90897095 231.77319336 25.33691406 C231.56021032 27.52350707 231.3567344 29.71084543 231.15429688 31.8984375 C230.13879593 42.58361221 230.13879593 42.58361221 229 46 C227.34301758 47.05224609 227.34301758 47.05224609 225.14453125 48.0234375 C224.31018555 48.39782959 223.47583984 48.77222168 222.61621094 49.15795898 C221.69098633 49.55958252 220.76576172 49.96120605 219.8125 50.375 C218.3569873 51.02094116 218.3569873 51.02094116 216.87207031 51.67993164 C213.58674666 53.13250153 210.29400601 54.5672356 207 56 C205.2363208 56.77174561 205.2363208 56.77174561 203.43701172 57.55908203 C192.27742649 62.44130751 181.10518849 67.29277336 169.8671875 71.9921875 C168.72991211 72.46857666 167.59263672 72.94496582 166.42089844 73.43579102 C164.32478628 74.31134483 162.22668622 75.18216592 160.12597656 76.04663086 C151.48763075 79.65121884 143.44401518 83.77799241 135 88 C165.03 88 195.06 88 226 88 C225.40166173 100.56510363 224.77705518 113.05505468 223.73046875 125.578125 C223.6079105 127.0748757 223.4855981 128.57164654 223.36351013 130.06843567 C223.04226424 133.9928095 222.71608488 137.91675654 222.38837433 141.84059525 C222.18585183 144.26976914 221.98477775 146.69905897 221.78411865 149.12838745 C219.74695949 173.77465625 217.56785287 198.4025512 215 223 C197.25180696 228.19986182 179.38395577 232.92626798 161.50213623 237.63952637 C158.39016379 238.46029341 155.27872047 239.28305594 152.16729259 240.10588455 C148.41771714 241.09738556 144.66786107 242.08782317 140.91796875 243.078125 C140.21814566 243.26301735 139.51832256 243.4479097 138.79729271 243.63840485 C135.59754665 244.4834127 132.39713579 245.32548413 129.19503784 246.16156006 C127.27354041 246.66579828 125.3540922 247.17808857 123.43899536 247.70611572 C118.10951885 249.14478407 114.71625277 248.69869003 109.5 247.25 C107.63937884 246.77061623 105.77869606 246.29147157 103.91796875 245.8125 C102.84853027 245.53019531 101.7790918 245.24789062 100.67724609 244.95703125 C96.43506028 243.85297014 92.18207543 242.79808116 87.92578125 241.75 C80.21002922 239.84903771 72.50405194 237.91186653 64.80175781 235.95713806 C59.67255004 234.66000853 54.53563551 233.40380657 49.38743591 232.18429565 C46.21224613 231.42761298 43.04324015 230.64703278 39.87509155 229.8614502 C38.38455544 229.49780717 36.89136447 229.14486582 35.3956604 228.80310059 C33.33136949 228.33001389 31.2795995 227.82021776 29.2265625 227.30078125 C28.06721191 227.02403564 26.90786133 226.74729004 25.71337891 226.4621582 C23 225 23 225 21.65966797 221.68359375 C20.54753895 215.47345213 20.54753895 215.47345213 20.21875 212.76171875 C20.09991455 211.78920166 19.9810791 210.81668457 19.85864258 209.81469727 C19.74029053 208.78272217 19.62193848 207.75074707 19.5 206.6875 C19.30990356 205.0631604 19.30990356 205.0631604 19.1159668 203.40600586 C18.19677983 195.30330578 17.45060742 187.19191814 16.8125 179.0625 C16.68681641 177.47538208 16.68681641 177.47538208 16.55859375 175.85620117 C16.09071275 169.51409435 16 163.40488871 16 157 C29.86 157 43.72 157 58 157 C59.43550473 161.3065142 60.27710792 164.06472308 60.6328125 168.37109375 C60.71660156 169.35787109 60.80039063 170.34464844 60.88671875 171.36132812 C60.96535156 172.37646484 61.04398438 173.39160156 61.125 174.4375 C61.21136719 175.44876953 61.29773438 176.46003906 61.38671875 177.50195312 C61.81277624 182.68565255 62.10240464 187.79930702 62 193 C62.61246582 193.09579346 63.22493164 193.19158691 63.85595703 193.2902832 C70.71878417 194.39748276 77.54207334 195.66283063 84.3671875 196.98046875 C86.26038513 197.34326357 88.15361484 197.70589102 90.046875 198.06835938 C92.97728915 198.62952875 95.90694772 199.19375832 98.83496094 199.76733398 C101.698129 200.3270743 104.56355187 200.87365686 107.4296875 201.41796875 C108.73762772 201.67878487 108.73762772 201.67878487 110.07199097 201.94487 C116.52524802 203.15262632 121.44424558 202.62897513 127.6953125 200.58203125 C128.56671875 200.2998877 129.438125 200.01774414 130.3359375 199.72705078 C131.25632813 199.42524902 132.17671875 199.12344727 133.125 198.8125 C135.08553466 198.17974007 137.04648229 197.54825843 139.0078125 196.91796875 C140.00071289 196.59876465 140.99361328 196.27956055 142.01660156 195.95068359 C146.66586234 194.46915974 151.32923584 193.03708131 156 191.625 C156.81742676 191.37468018 157.63485352 191.12436035 158.47705078 190.86645508 C159.24774902 190.63466553 160.01844727 190.40287598 160.8125 190.1640625 C161.47894531 189.96248535 162.14539063 189.7609082 162.83203125 189.55322266 C165.53197808 188.86424974 168.24813851 188.42936498 171 188 C171.07516846 186.42255005 171.07516846 186.42255005 171.15185547 184.81323242 C171.3440151 180.81132802 171.54337775 176.80980622 171.74462891 172.80834961 C171.82984623 171.09522614 171.91325621 169.38201156 171.99462891 167.66870117 C172.11373638 165.1681795 172.2399345 162.66808779 172.3671875 160.16796875 C172.40061249 159.43482956 172.43403748 158.70169037 172.46847534 157.94633484 C172.94193824 148.93350665 174.01960954 139.96873186 175 131 C174.32913455 131.00515373 173.6582691 131.01030746 172.96707439 131.01561737 C156.50922039 131.14197851 140.051358 131.26718042 123.59348583 131.39115143 C115.63401554 131.45113402 107.67454838 131.51148392 99.71508789 131.57275391 C92.76334376 131.62626574 85.8115944 131.67903208 78.85983831 131.73096704 C75.19194169 131.7583934 71.52404836 131.78614947 67.85616112 131.81480408 C49.5704303 131.95737692 31.28634689 132.03225485 13 132 C12.76986721 130.202094 12.53984752 128.40417352 12.30987549 126.60624695 C12.18177113 125.60503154 12.05366676 124.60381613 11.92168045 123.57226086 C10.37053023 111.38409599 9.39780774 99.27716994 9 87 C33.6821595 75.61934594 58.68129368 64.96707371 83.67260742 54.28833008 C84.72427849 53.83855049 84.72427849 53.83855049 85.79719543 53.37968445 C87.68018434 52.57442064 89.56346763 51.76984527 91.44677734 50.96533203 C98.31415025 48.0146357 105.1540255 44.99990534 112 42 C110.92719284 41.98969254 109.85438568 41.97938507 108.74906921 41.96876526 C98.55665231 41.87030292 88.36428666 41.7675119 78.17195415 41.66066074 C72.93407179 41.6058838 67.69618362 41.5525451 62.45825195 41.50268555 C57.38774911 41.45436361 52.31730138 41.40201281 47.24686623 41.34705925 C45.32836116 41.32693779 43.40984119 41.30818199 41.49130821 41.29092598 C28.96869312 41.17713397 16.50037239 40.76188256 4 40 C3.76989913 38.51104636 3.53987181 37.02208136 3.30987549 35.53311157 C3.11771894 34.28936233 3.11771894 34.28936233 2.92168045 33.02048683 C1.2119388 21.9151921 0 11.26220651 0 0 Z " fill="#FEFEFE" transform="translate(55,164)"/>
<path d="M0 0 C46.86 0 93.72 0 142 0 C141.39986622 11.40254175 140.77292398 22.72510716 139.765625 34.0859375 C139.64592033 35.46148643 139.52646182 36.83705679 139.40722656 38.21264648 C139.09096114 41.85028341 138.77040182 45.48752885 138.44868469 49.12468719 C138.24793351 51.39840522 138.04849704 53.67223489 137.8494873 55.94610596 C135.87371331 78.51745805 133.81646693 101.08039539 131.64941406 123.63427734 C130.35762812 137.08347874 129.14529508 150.53752916 128 164 C127.88386353 165.36430145 127.88386353 165.36430145 127.76538086 166.75616455 C127.37736857 171.31959303 126.99090057 175.88315086 126.60522461 180.44677734 C124.69590624 203.03435068 122.72774239 225.61622466 120.69943237 248.19342041 C120.24728275 253.22834615 119.79949212 258.26362345 119.35700989 263.29940796 C119.09315639 266.2975375 118.82666556 269.29542891 118.55960083 272.29327393 C118.38384632 274.27524093 118.21124859 276.25748711 118.03881836 278.23974609 C117.26567827 286.8669072 116.20608549 295.42423277 115 304 C94.85880282 310.0194544 74.58423807 315.5322931 54.2989502 321.04058838 C49.92087667 322.22991079 45.54347515 323.4217013 41.16601562 324.61328125 C36.2343784 325.95551898 31.30267218 327.29750025 26.37052917 328.63787842 C25.25562969 328.94093336 25.25562969 328.94093336 24.11820698 329.25011063 C22.68764129 329.63868587 21.25694541 330.02678221 19.82610607 330.4143486 C16.74811789 331.24870391 13.67319235 332.09179914 10.60293579 332.95422363 C9.61868622 333.23004272 8.63443665 333.50586182 7.62036133 333.79003906 C6.78829666 334.02660217 5.95623199 334.26316528 5.09895325 334.50689697 C3 335 3 335 0 335 C-0.16737766 328.91291842 -0.32796157 322.82571052 -0.48217773 316.73828125 C-0.5356348 314.66629175 -0.59096697 312.59434976 -0.64819336 310.52246094 C-0.73000096 307.54893237 -0.80512222 304.57529961 -0.87890625 301.6015625 C-0.90594131 300.67131256 -0.93297638 299.74106262 -0.96083069 298.78262329 C-0.98092697 297.92188202 -1.00102325 297.06114075 -1.02172852 296.17431641 C-1.04171402 295.41486725 -1.06169952 294.65541809 -1.08229065 293.87295532 C-1 292 -1 292 0 290 C2.89936841 289.06157005 5.7645438 288.2433425 8.71069336 287.47802734 C9.62446243 287.23389603 10.53823151 286.98976471 11.47969055 286.73823547 C14.5143853 285.92962657 17.55201324 285.13267761 20.58984375 284.3359375 C22.69129477 283.77892423 24.7925756 283.22126851 26.89369202 282.66299438 C31.30341463 281.49306901 35.71449147 280.32844889 40.12670898 279.16796875 C45.79284707 277.67761851 51.45651094 276.17812395 57.11931515 274.67516136 C62.5044678 273.24634392 67.89087288 271.82227567 73.27734375 270.3984375 C74.82834935 269.98775087 74.82834935 269.98775087 76.4106884 269.56876755 C79.32640885 268.79760119 82.24300192 268.02983571 85.15991211 267.26318359 C86.03011993 267.03255722 86.90032776 266.80193085 87.79690552 266.5643158 C93.77051046 265 93.77051046 265 96 265 C95.98550812 263.69887268 95.97101624 262.39774536 95.95608521 261.05718994 C95.95809375 256.3659254 96.26980682 251.75366644 96.70263672 247.08496094 C96.7774527 246.24265427 96.85226868 245.4003476 96.92935181 244.53251648 C97.09127629 242.7155167 97.25502617 240.89867883 97.42043686 239.0819931 C97.68507514 236.17519697 97.94480569 233.26799646 98.20339966 230.36065674 C98.75616447 224.1567029 99.31543589 217.95334363 99.875 211.75 C100.60546255 203.64097139 101.33238653 195.53163473 102.0546875 187.421875 C102.14222038 186.44158829 102.22975327 185.46130157 102.31993866 184.4513092 C103.50632769 171.12913971 104.58683345 157.8080589 105.41110229 144.45819092 C105.7168601 139.57855358 106.04070796 134.80583437 107 130 C106.34 130.33 105.68 130.66 105 131 C102.19269875 131.0932753 99.41038902 131.12575925 96.60302734 131.11352539 C95.30048759 131.11374443 95.30048759 131.11374443 93.97163391 131.1139679 C91.09304328 131.11326961 88.21451686 131.1054811 85.3359375 131.09765625 C83.34339432 131.09579177 81.35085069 131.09436801 79.35830688 131.09336853 C74.10740906 131.08954569 68.85653878 131.07971737 63.60565186 131.06866455 C58.25012586 131.05844543 52.89459543 131.05386983 47.5390625 131.04882812 C37.02602955 131.03809491 26.51301706 131.02102127 16 131 C15.505 130.01 15.505 130.01 15 129 C16.00417969 128.56429687 17.00835937 128.12859375 18.04296875 127.6796875 C19.42451159 127.07819946 20.80602011 126.4766326 22.1875 125.875 C22.84169922 125.59140625 23.49589844 125.3078125 24.16992188 125.015625 C28.52756561 123.11560972 32.84926288 121.14847689 37.16015625 119.14453125 C43.5217615 116.19897668 49.93620761 113.3897696 56.37564087 110.61911011 C59.6361656 109.21597868 62.89421115 107.80711265 66.15234375 106.3984375 C66.80929733 106.11449631 67.46625092 105.83055511 68.14311218 105.53800964 C74.71095979 102.69699505 81.26374246 99.82226037 87.8125 96.9375 C88.81249023 96.49704346 89.81248047 96.05658691 90.84277344 95.6027832 C91.78797852 95.18601318 92.73318359 94.76924316 93.70703125 94.33984375 C94.59729004 93.94780762 95.48754883 93.55577148 96.40478516 93.15185547 C98.14787496 92.37820564 99.88711745 91.59583385 101.62255859 90.80517578 C102.43160645 90.43763184 103.2406543 90.07008789 104.07421875 89.69140625 C104.78537842 89.36470947 105.49653809 89.0380127 106.22924805 88.70141602 C108 88 108 88 110 88 C111.32 72.82 112.64 57.64 114 42 C76.38 42 38.76 42 0 42 C0 28.14 0 14.28 0 0 Z " fill="#29A8DE" transform="translate(174,122)"/>
<path d="M0 0 C1.11993634 -0.00085442 2.23987269 -0.00170885 3.3937465 -0.00258917 C7.14785937 -0.00423678 10.90192761 0.0012657 14.65603638 0.00672913 C17.34654338 0.00701118 20.03704765 0.00689695 22.72755432 0.00628662 C28.52077573 0.00576267 34.31398586 0.00889603 40.10720444 0.01452446 C48.48319063 0.02265689 56.85917137 0.02525647 65.23516108 0.02651245 C78.82516297 0.02870023 92.41515885 0.03535289 106.00515747 0.04481506 C119.20535248 0.05399627 132.40554585 0.06107364 145.60574341 0.06532288 C146.41961686 0.0655856 147.23349031 0.06584832 148.0720266 0.06611901 C152.15505423 0.06742406 156.23808188 0.06868776 160.32110953 0.06993091 C194.18552407 0.08029499 228.04992742 0.0987287 261.91433716 0.12025452 C261.91433716 29.82025452 261.91433716 59.52025452 261.91433716 90.12025452 C260.92433716 90.12025452 259.93433716 90.12025452 258.91433716 90.12025452 C258.91433716 85.17025452 258.91433716 80.22025452 258.91433716 75.12025452 C253.96433716 75.12025452 249.01433716 75.12025452 243.91433716 75.12025452 C243.91433716 80.07025452 243.91433716 85.02025452 243.91433716 90.12025452 C238.96433716 90.12025452 234.01433716 90.12025452 228.91433716 90.12025452 C228.91433716 80.22025452 228.91433716 70.32025452 228.91433716 60.12025452 C223.96433716 60.12025452 219.01433716 60.12025452 213.91433716 60.12025452 C213.91433716 55.17025452 213.91433716 50.22025452 213.91433716 45.12025452 C208.96433716 45.12025452 204.01433716 45.12025452 198.91433716 45.12025452 C198.91433716 40.17025452 198.91433716 35.22025452 198.91433716 30.12025452 C196.93433716 30.12025452 194.95433716 30.12025452 192.91433716 30.12025452 C192.58433716 42.33025452 192.25433716 54.54025452 191.91433716 67.12025452 C170.46433716 67.12025452 149.01433716 67.12025452 126.91433716 67.12025452 C126.58433716 64.81025452 126.25433716 62.50025452 125.91433716 60.12025452 C124.26433716 60.12025452 122.61433716 60.12025452 120.91433716 60.12025452 C120.94527466 61.57431702 120.94527466 61.57431702 120.97683716 63.05775452 C120.91433716 66.12025452 120.91433716 66.12025452 119.91433716 67.12025452 C117.88939484 67.21434931 115.86113846 67.23768573 113.83401489 67.23377991 C111.88210487 67.23366661 111.88210487 67.23366661 109.89076233 67.23355103 C108.45981814 67.2284436 107.02887433 67.2232276 105.59793091 67.21791077 C104.14204456 67.21604655 102.68615758 67.21462266 101.23027039 67.21362305 C97.39154337 67.20979817 93.55285396 67.19996816 89.71414185 67.18891907 C85.799759 67.17870429 81.8853701 67.17412529 77.97097778 67.16908264 C70.28541174 67.15834585 62.59988451 67.14074931 54.91433716 67.12025452 C54.91433716 61.84025452 54.91433716 56.56025452 54.91433716 51.12025452 C69.76433716 51.12025452 84.61433716 51.12025452 99.91433716 51.12025452 C99.91433716 47.82025452 99.91433716 44.52025452 99.91433716 41.12025452 C88.03433716 41.45025452 76.15433716 41.78025452 63.91433716 42.12025452 C63.91433716 43.11025452 63.91433716 44.10025452 63.91433716 45.12025452 C58.96433716 45.12025452 54.01433716 45.12025452 48.91433716 45.12025452 C48.91433716 40.17025452 48.91433716 35.22025452 48.91433716 30.12025452 C43.96433716 30.12025452 39.01433716 30.12025452 33.91433716 30.12025452 C33.91433716 36.39025452 33.91433716 42.66025452 33.91433716 49.12025452 C38.53433716 49.12025452 43.15433716 49.12025452 47.91433716 49.12025452 C47.99059595 55.29721672 47.82757423 61.00567409 46.91433716 67.12025452 C38.71743155 67.14338162 30.52053948 67.16117147 22.32360935 67.17206669 C18.51782139 67.17729472 14.71205567 67.1843909 10.90628052 67.19569397 C7.23641172 67.20652572 3.56656438 67.21253196 -0.10331917 67.21513176 C-1.50641277 67.21698549 -2.90950514 67.22060512 -4.31258965 67.22598457 C-6.27135964 67.23319871 -8.23015105 67.2336626 -10.18893433 67.23377991 C-11.30590195 67.23600052 -12.42286957 67.23822113 -13.57368469 67.24050903 C-16.08566284 67.12025452 -16.08566284 67.12025452 -17.08566284 66.12025452 C-17.17975763 64.0953122 -17.20309406 62.06705582 -17.19918823 60.03993225 C-17.1991127 58.73865891 -17.19903717 57.43738556 -17.19895935 56.09667969 C-17.19385193 54.6657355 -17.18863592 53.23479169 -17.18331909 51.80384827 C-17.18145487 50.34796192 -17.18003099 48.89207494 -17.17903137 47.43618774 C-17.1752065 43.59746073 -17.16537648 39.75877132 -17.15432739 35.9200592 C-17.14411262 32.00567636 -17.13953361 28.09128746 -17.13449097 24.17689514 C-17.12375418 16.49133109 -17.10667813 8.80579806 -17.08566284 1.12025452 C-11.38567594 -0.0964664 -5.79727761 -0.01616322 0 0 Z " fill="#FBFBFB" transform="translate(86.08566284179688,-0.1202545166015625)"/>
<path d="M0 0 C39.27 0 78.54 0 119 0 C119 43.23 119 86.46 119 131 C106.521875 131.165 94.04375 131.33 81.1875 131.5 C77.30895264 131.55220703 73.43040527 131.60441406 69.43432617 131.65820312 C50.62154172 131.90489634 31.81476631 132.08180538 13 132 C11.07126751 116.99456435 9.49014473 102.12688036 9 87 C33.6821595 75.61934594 58.68129368 64.96707371 83.67260742 54.28833008 C84.72427849 53.83855049 84.72427849 53.83855049 85.79719543 53.37968445 C87.68018434 52.57442064 89.56346763 51.76984527 91.44677734 50.96533203 C98.31415025 48.0146357 105.1540255 44.99990534 112 42 C110.92719284 41.98969254 109.85438568 41.97938507 108.74906921 41.96876526 C98.55665231 41.87030292 88.36428666 41.7675119 78.17195415 41.66066074 C72.93407179 41.6058838 67.69618362 41.5525451 62.45825195 41.50268555 C57.38774911 41.45436361 52.31730138 41.40201281 47.24686623 41.34705925 C45.32836116 41.32693779 43.40984119 41.30818199 41.49130821 41.29092598 C28.96869312 41.17713397 16.50037239 40.76188256 4 40 C3.76989913 38.51104636 3.53987181 37.02208136 3.30987549 35.53311157 C3.11771894 34.28936233 3.11771894 34.28936233 2.92168045 33.02048683 C1.2119388 21.9151921 0 11.26220651 0 0 Z " fill="#CFCFD0" transform="translate(55,164)"/>
<path d="M0 0 C0.33 0 0.66 0 1 0 C2.14083616 12.71955414 3.27987094 25.43926828 4.41673851 38.15917778 C4.94494446 44.06843462 5.47372208 49.97763904 6.00390625 55.88671875 C6.5175724 61.61195467 7.02960635 67.33733462 7.54060745 73.06280899 C7.7337647 75.22400007 7.92746548 77.38514267 8.12177658 79.54623032 C9.2847357 92.48525195 10.36795284 105.42724242 11.339674 118.38215446 C11.88538244 125.64487675 12.53548233 132.88314863 13.3125 140.125 C15.40425335 160.40721982 17.14072861 180.72258206 18.9380188 201.03253174 C19.81310676 210.91429905 20.69782427 220.79517749 21.5859375 230.67578125 C21.72074787 232.17640604 21.85554911 233.67703165 21.99034119 235.17765808 C22.77973758 243.96539951 22.77973758 243.96539951 23.57046509 252.75302124 C24.86109455 267.08625146 26.13543287 281.42022074 27.31654358 295.76296997 C27.80799386 301.72670176 28.3195026 307.68819634 28.8515625 313.6484375 C28.98184166 315.1197854 29.11205145 316.59113944 29.2421875 318.0625 C29.4353141 320.24532583 29.62981517 322.42799 29.828125 324.61035156 C30.56650282 332.75735683 31.1777083 340.80926294 31 349 C32.23621094 349.26425781 33.47242188 349.52851563 34.74609375 349.80078125 C40.56388741 351.09551551 46.31013955 352.63074988 52.0625 354.1875 C53.19357178 354.49284668 54.32464355 354.79819336 55.48999023 355.11279297 C67.80771749 358.45932164 80.0514122 362.04896777 92.28808594 365.67871094 C111.10801228 371.26111389 130.02153418 376.4928132 148.98364258 381.57006836 C156.67974501 383.63383758 164.35283695 385.76146682 172 388 C172 388.33 172 388.66 172 389 C115.24 389 58.48 389 0 389 C0 260.63 0 132.26 0 0 Z " fill="#F7F7F7" transform="translate(0,99)"/>
<path d="M0 0 C4.95 0 9.9 0 15 0 C15 0.33 15 0.66 15 1 C13.02 1 11.04 1 9 1 C9.0714624 1.70463379 9.1429248 2.40926758 9.21655273 3.13525391 C10.32311808 15.86703716 10.10835525 28.60613988 10.0625 41.375 C10.041875 49.50125 10.02125 57.6275 10 66 C30.79 66.33 51.58 66.66 73 67 C73.33 61.06 73.66 55.12 74 49 C69.38 49 64.76 49 60 49 C60 42.73 60 36.46 60 30 C64.95 30 69.9 30 75 30 C75 34.95 75 39.9 75 45 C79.95 45 84.9 45 90 45 C86.99382731 41.99382731 84.17618402 42.40414684 80 42 C80 41.67 80 41.34 80 41 C95.18 41 110.36 41 126 41 C126 44.3 126 47.6 126 51 C111.15 51 96.3 51 81 51 C81 56.28 81 61.56 81 67 C102.45 66.67 123.9 66.34 146 66 C146.33 64.02 146.66 62.04 147 60 C148.32 60 149.64 60 151 60 C151 58.02 151 56.04 151 54 C151.33 54 151.66 54 152 54 C152.33 58.29 152.66 62.58 153 67 C174.45 67 195.9 67 218 67 C218 54.13 218 41.26 218 28 C218.33 28.66 218.66 29.32 219 30 C220.98 30 222.96 30 225 30 C225 34.95 225 39.9 225 45 C229.95 45 234.9 45 240 45 C240 49.95 240 54.9 240 60 C244.95 60 249.9 60 255 60 C255 64.95 255 69.9 255 75 C250.05 75 245.1 75 240 75 C240 79.95 240 84.9 240 90 C235.05 90 230.1 90 225 90 C225 85.05 225 80.1 225 75 C220.05 75 215.1 75 210 75 C210 79.95 210 84.9 210 90 C205.05 90 200.1 90 195 90 C195 85.05 195 80.1 195 75 C190.05 75 185.1 75 180 75 C180 79.95 180 84.9 180 90 C175.05 90 170.1 90 165 90 C165 85.05 165 80.1 165 75 C160.05 75 155.1 75 150 75 C150 79.95 150 84.9 150 90 C145.05 90 140.1 90 135 90 C135 85.05 135 80.1 135 75 C130.05 75 125.1 75 120 75 C120 79.95 120 84.9 120 90 C115.05 90 110.1 90 105 90 C105 85.05 105 80.1 105 75 C100.05 75 95.1 75 90 75 C90 79.95 90 84.9 90 90 C85.05 90 80.1 90 75 90 C75 85.05 75 80.1 75 75 C70.05 75 65.1 75 60 75 C60 79.95 60 84.9 60 90 C55.05 90 50.1 90 45 90 C45 85.05 45 80.1 45 75 C40.05 75 35.1 75 30 75 C30 79.95 30 84.9 30 90 C25.05 90 20.1 90 15 90 C15 85.05 15 80.1 15 75 C10.05 75 5.1 75 0 75 C0 70.05 0 65.1 0 60 C-4.95 60 -9.9 60 -15 60 C-15 55.05 -15 50.1 -15 45 C-10.05 45 -5.1 45 0 45 C0 40.05 0 35.1 0 30 C-4.95 30 -9.9 30 -15 30 C-15 25.05 -15 20.1 -15 15 C-10.05 15 -5.1 15 0 15 C0 10.05 0 5.1 0 0 Z " fill="#FEFEFE" transform="translate(60,0)"/>
<path d="M0 0 C13.86 0 27.72 0 42 0 C43.43550473 4.3065142 44.27710792 7.06472308 44.6328125 11.37109375 C44.71660156 12.35787109 44.80039063 13.34464844 44.88671875 14.36132812 C44.96535156 15.37646484 45.04398438 16.39160156 45.125 17.4375 C45.21136719 18.44876953 45.29773438 19.46003906 45.38671875 20.50195312 C45.81277624 25.68565255 46.10240464 30.79930702 46 36 C46.60956543 36.09724365 47.21913086 36.1944873 47.84716797 36.29467773 C57.64647591 37.89162118 67.4057383 39.70099532 77.16699219 41.51391602 C80.15245297 42.06759135 83.13871201 42.61682165 86.125 43.16601562 C88.02348791 43.51795733 89.92192726 43.87016112 91.8203125 44.22265625 C92.71291779 44.38621109 93.60552307 44.54976593 94.525177 44.71827698 C95.75819046 44.94872963 95.75819046 44.94872963 97.01611328 45.18383789 C97.73936798 45.31770401 98.46262268 45.45157013 99.20779419 45.5894928 C101 46 101 46 103 47 C103.19204288 53.08692443 103.3708004 59.17403675 103.53710938 65.26171875 C103.59560506 67.33376598 103.65776739 69.40571301 103.72363281 71.47753906 C103.81753115 74.45098631 103.8983526 77.42454148 103.9765625 80.3984375 C104.00875885 81.32868744 104.0409552 82.25893738 104.0741272 83.21737671 C104.09429901 84.07811798 104.11447083 84.93885925 104.13525391 85.82568359 C104.16856308 86.96485733 104.16856308 86.96485733 104.20254517 88.12704468 C104 90 104 90 102 92 C99.21071795 91.5490768 96.60266776 90.96172643 93.875 90.25 C92.97612061 90.02538086 92.07724121 89.80076172 91.15112305 89.56933594 C89.02418335 89.03669897 86.8985626 88.49878117 84.77392578 87.95703125 C80.48772766 86.87009266 76.19555422 85.80882191 71.90234375 84.75 C64.19478481 82.84758972 56.49660153 80.90993062 48.80166626 78.95713806 C43.67249768 77.65997299 38.53560681 76.40379977 33.38743591 75.18429565 C30.21224613 74.42761298 27.04324015 73.64703278 23.87509155 72.8614502 C22.38455544 72.49780717 20.89136447 72.14486582 19.3956604 71.80310059 C17.33136949 71.33001389 15.2795995 70.82021776 13.2265625 70.30078125 C11.48753662 69.88566284 11.48753662 69.88566284 9.71337891 69.4621582 C7 68 7 68 5.65966797 64.68359375 C4.54753895 58.47345213 4.54753895 58.47345213 4.21875 55.76171875 C4.09991455 54.78920166 3.9810791 53.81668457 3.85864258 52.81469727 C3.74029053 51.78272217 3.62193848 50.75074707 3.5 49.6875 C3.37326904 48.60460693 3.24653809 47.52171387 3.1159668 46.40600586 C2.19677983 38.30330578 1.45060742 30.19191814 0.8125 22.0625 C0.68681641 20.47538208 0.68681641 20.47538208 0.55859375 18.85620117 C0.09071275 12.51409435 0 6.40488871 0 0 Z " fill="#CFCFD0" transform="translate(71,321)"/>
<path d="M0 0 C0.495 0.99 0.495 0.99 1 2 C5.95 2 10.9 2 16 2 C16 6.95 16 11.9 16 17 C11.05 17 6.1 17 1 17 C1 21.95 1 26.9 1 32 C5.95 32 10.9 32 16 32 C16 36.95 16 41.9 16 47 C11.05 47 6.1 47 1 47 C1 51.95 1 56.9 1 62 C5.95 62 10.9 62 16 62 C16 66.95 16 71.9 16 77 C11.05 77 6.1 77 1 77 C1 81.95 1 86.9 1 92 C5.95 92 10.9 92 16 92 C16 96.95 16 101.9 16 107 C11.05 107 6.1 107 1 107 C1 111.95 1 116.9 1 122 C5.95 122 10.9 122 16 122 C16 126.95 16 131.9 16 137 C11.05 137 6.1 137 1 137 C1 141.95 1 146.9 1 152 C5.95 152 10.9 152 16 152 C16 156.95 16 161.9 16 167 C11.05 167 6.1 167 1 167 C1 171.95 1 176.9 1 182 C-3.95 182 -8.9 182 -14 182 C-14 177.05 -14 172.1 -14 167 C-18.95 167 -23.9 167 -29 167 C-29 171.95 -29 176.9 -29 182 C-33.95 182 -38.9 182 -44 182 C-44 177.05 -44 172.1 -44 167 C-48.95 167 -53.9 167 -59 167 C-59 171.95 -59 176.9 -59 182 C-63.95 182 -68.9 182 -74 182 C-74.48828125 171.35546875 -74.48828125 171.35546875 -74 168 C-70.04408982 164.25012681 -63.86050946 163.50747925 -58.6875 162.25 C-49.10569584 159.84415237 -39.62149396 157.19857387 -30.15893555 154.36035156 C-29.22218994 154.0815918 -28.28544434 153.80283203 -27.3203125 153.515625 C-26.50836426 153.27102539 -25.69641602 153.02642578 -24.85986328 152.77441406 C-20.93627223 151.71195625 -16.97287011 150.85672944 -13 150 C-12.94739014 148.83364014 -12.89478027 147.66728027 -12.84057617 146.46557617 C-12.35291863 136.18338019 -11.60139211 125.96828417 -10.55780029 115.72872925 C-9.04047321 100.78292538 -7.71137866 85.82264722 -6.47265625 70.8515625 C-6.40686434 70.05695051 -6.34107243 69.26233852 -6.27328682 68.44364738 C-5.60779239 60.39724702 -4.94834246 52.35036737 -4.29627514 44.30286789 C-4.04763297 41.24070503 -3.7966881 38.17873312 -3.54539299 35.11678696 C-3.37436849 33.02156801 -3.20671074 30.92609916 -3.03919983 28.83059692 C-2.24788335 19.18946372 -1.1836185 9.59996137 0 0 Z " fill="#FDFEFE" transform="translate(329,298)"/>
<path d="M0 0 C18.48 0 36.96 0 56 0 C53.92710706 39.53302961 53.92710706 39.53302961 52 57 C44.16483011 59.49073292 36.31201216 61.9151985 28.43359375 64.265625 C27.76898132 64.46406509 27.1043689 64.66250519 26.4196167 64.86695862 C23.04682186 65.87348953 19.67315476 66.87697272 16.29833984 67.87670898 C15.04102051 68.25126221 13.78370117 68.62581543 12.48828125 69.01171875 C11.35946533 69.34647217 10.23064941 69.68122559 9.06762695 70.02612305 C6.02046978 70.93492212 6.02046978 70.93492212 3.28198242 72.18676758 C1 73 1 73 -2 72 C-1.34 72 -0.68 72 0 72 C0 48.24 0 24.48 0 0 Z " fill="#29A9DE" transform="translate(174,295)"/>
<path d="M0 0 C21.45 0 42.9 0 65 0 C65 6.27 65 12.54 65 19 C49.49 19 33.98 19 18 19 C18 21.31 18 23.62 18 26 C41.265 26.495 41.265 26.495 65 27 C65 39.87 65 52.74 65 66 C43.55 66 22.1 66 0 66 C0 60.72 0 55.44 0 50 C14.85 50 29.7 50 45 50 C45 46.7 45 43.4 45 40 C30.15 40 15.3 40 0 40 C0 26.8 0 13.6 0 0 Z " fill="#030303" transform="translate(141,1)"/>
<path d="M0 0 C21.45 0 42.9 0 65 0 C65 6.27 65 12.54 65 19 C49.49 19 33.98 19 18 19 C18 21.64 18 24.28 18 27 C33.51 27 49.02 27 65 27 C65 39.87 65 52.74 65 66 C43.55 66 22.1 66 0 66 C0 60.72 0 55.44 0 50 C14.85 50 29.7 50 45 50 C45 46.7 45 43.4 45 40 C30.15 40 15.3 40 0 40 C0 26.8 0 13.6 0 0 Z " fill="#030303" transform="translate(213,1)"/>
<path d="M0 0 C21.45 0 42.9 0 65 0 C65 18 65 18 64 20 C49.48 20 34.96 20 20 20 C20 29.57 20 39.14 20 49 C34.85 49 49.7 49 65 49 C65 60.25 65 60.25 64 66 C55.80309439 66.0231271 47.60620232 66.04091696 39.40927219 66.05181217 C35.60348423 66.0570402 31.79771852 66.06413638 27.99194336 66.07543945 C24.32207456 66.0862712 20.65222722 66.09227744 16.98234367 66.09487724 C15.57925008 66.09673097 14.17615771 66.1003506 12.7730732 66.10573006 C10.8143032 66.11294419 8.8555118 66.11340809 6.89672852 66.11352539 C5.77976089 66.115746 4.66279327 66.11796661 3.51197815 66.12025452 C1 66 1 66 0 65 C-0.09409479 62.97505769 -0.11743122 60.9468013 -0.11352539 58.91967773 C-0.11340454 57.60012085 -0.11328369 56.28056396 -0.11315918 54.92102051 C-0.10812269 53.50854445 -0.10295606 52.09606885 -0.09765625 50.68359375 C-0.09664917 49.40681763 -0.09564209 48.1300415 -0.09460449 46.8145752 C-0.08935266 42.02220773 -0.07539156 37.22985301 -0.0625 32.4375 C-0.041875 21.733125 -0.02125 11.02875 0 0 Z " fill="#060606" transform="translate(69,1)"/>
<path d="M0 0 C5.94 0 11.88 0 18 0 C18 29.7 18 59.4 18 90 C17.01 90 16.02 90 15 90 C15 85.05 15 80.1 15 75 C10.05 75 5.1 75 0 75 C0 70.05 0 65.1 0 60 C4.95 60 9.9 60 15 60 C15 55.05 15 50.1 15 45 C10.05 45 5.1 45 0 45 C0 40.05 0 35.1 0 30 C4.95 30 9.9 30 15 30 C15 25.05 15 20.1 15 15 C10.05 15 5.1 15 0 15 C0 10.05 0 5.1 0 0 Z " fill="#FFFFFF" transform="translate(330,0)"/>
<path d="M0 0 C42.24 0 84.48 0 128 0 C128 0.33 128 0.66 128 1 C107.54 1 87.08 1 66 1 C66 14.2 66 27.4 66 41 C68.97 41.33 71.94 41.66 75 42 C75 42.99 75 43.98 75 45 C70.05 45 65.1 45 60 45 C60 40.05 60 35.1 60 30 C55.05 30 50.1 30 45 30 C45 27.36 45 24.72 45 22 C51.435 21.505 51.435 21.505 58 21 C58.33 14.4 58.66 7.8 59 1 C39.53 1 20.06 1 0 1 C0 0.67 0 0.34 0 0 Z " fill="#ECECED" transform="translate(75,0)"/>
<path d="M0 0 C0.33 0 0.66 0 1 0 C1.99 12.87 2.98 25.74 4 39 C2.35 38.67 0.7 38.34 -1 38 C-1 33.05 -1 28.1 -1 23 C-5.95 23 -10.9 23 -16 23 C-16 18.05 -16 13.1 -16 8 C-11.05 8 -6.1 8 -1 8 C-0.67 5.36 -0.34 2.72 0 0 Z " fill="#EDEFF0" transform="translate(16,277)"/>
<path d="M0 0 C3.96930989 -0.02465881 7.93859034 -0.04284023 11.90795898 -0.05493164 C13.25920386 -0.05997057 14.61044326 -0.06680177 15.96166992 -0.07543945 C17.90020434 -0.08752419 19.838778 -0.09269828 21.77734375 -0.09765625 C23.52905884 -0.10551147 23.52905884 -0.10551147 25.31616211 -0.11352539 C28 0 28 0 29 1 C31.33297433 1.04092937 33.66705225 1.04241723 36 1 C36 3.31 36 5.62 36 8 C31.99813807 8.02489435 27.99630672 8.04295127 23.99438477 8.05493164 C22.63565281 8.05993113 21.27692615 8.06673291 19.91821289 8.07543945 C17.95461415 8.08769842 15.99097459 8.09273487 14.02734375 8.09765625 C12.84906006 8.10289307 11.67077637 8.10812988 10.45678711 8.11352539 C6.90642424 7.99692685 3.50457116 7.5655059 0 7 C0 4.69 0 2.38 0 0 Z " fill="#F3F6F7" transform="translate(159,20)"/>
<path d="M0 0 C0.33 0 0.66 0 1 0 C3.74626866 17.50746269 3.74626866 17.50746269 1 23 C-3.95 23 -8.9 23 -14 23 C-14 18.05 -14 13.1 -14 8 C-9.38 8 -4.76 8 0 8 C0 5.36 0 2.72 0 0 Z " fill="#FEFEFE" transform="translate(14,262)"/>
<path d="M0 0 C0.66 0.99 1.32 1.98 2 3 C5.12557959 3.36530232 5.12557959 3.36530232 8.625 3.1875 C10.72875 3.125625 12.8325 3.06375 15 3 C15 7.95 15 12.9 15 18 C10.05 18 5.1 18 0 18 C-0.79016955 13.25898271 -1.02421627 10.24216267 -0.5625 5.625 C-0.46066406 4.56539063 -0.35882813 3.50578125 -0.25390625 2.4140625 C-0.17011719 1.61742187 -0.08632813 0.82078125 0 0 Z " fill="#ECEDEE" transform="translate(330,282)"/>
<path d="M0 0 C4.95 0 9.9 0 15 0 C15 4.95 15 9.9 15 15 C10.05 15 5.1 15 0 15 C0 10.05 0 5.1 0 0 Z " fill="#FFFFFF" transform="translate(285,465)"/>
<path d="M0 0 C4.95 0 9.9 0 15 0 C15 4.95 15 9.9 15 15 C10.05 15 5.1 15 0 15 C0 10.05 0 5.1 0 0 Z " fill="#EFEFEF" transform="translate(270,465)"/>
<path d="M0 0 C4.95 0 9.9 0 15 0 C15 4.95 15 9.9 15 15 C10.05 15 5.1 15 0 15 C0 10.05 0 5.1 0 0 Z " fill="#EFEFEF" transform="translate(60,465)"/>
<path d="M0 0 C4.95 0 9.9 0 15 0 C15 4.95 15 9.9 15 15 C10.05 15 5.1 15 0 15 C0 10.05 0 5.1 0 0 Z " fill="#FFFFFF" transform="translate(45,465)"/>
<path d="M0 0 C4.95 0 9.9 0 15 0 C15 4.95 15 9.9 15 15 C10.05 15 5.1 15 0 15 C0 10.05 0 5.1 0 0 Z " fill="#EFEFEF" transform="translate(30,465)"/>
<path d="M0 0 C4.95 0 9.9 0 15 0 C15 4.95 15 9.9 15 15 C10.05 15 5.1 15 0 15 C0 10.05 0 5.1 0 0 Z " fill="#FFFFFF" transform="translate(15,465)"/>
<path d="M0 0 C4.95 0 9.9 0 15 0 C15 4.95 15 9.9 15 15 C10.05 15 5.1 15 0 15 C0 10.05 0 5.1 0 0 Z " fill="#FFFFFF" transform="translate(330,450)"/>
<path d="M0 0 C4.95 0 9.9 0 15 0 C15 4.95 15 9.9 15 15 C10.05 15 5.1 15 0 15 C0 10.05 0 5.1 0 0 Z " fill="#EFEFEF" transform="translate(315,450)"/>
<path d="M0 0 C4.95 0 9.9 0 15 0 C15 4.95 15 9.9 15 15 C10.05 15 5.1 15 0 15 C0 10.05 0 5.1 0 0 Z " fill="#EFEFEF" transform="translate(15,450)"/>
<path d="M0 0 C4.95 0 9.9 0 15 0 C15 4.95 15 9.9 15 15 C10.05 15 5.1 15 0 15 C0 10.05 0 5.1 0 0 Z " fill="#FFFFFF" transform="translate(0,450)"/>
<path d="M0 0 C4.95 0 9.9 0 15 0 C15 4.95 15 9.9 15 15 C10.05 15 5.1 15 0 15 C0 10.05 0 5.1 0 0 Z " fill="#EFEFEF" transform="translate(330,435)"/>
<path d="M0 0 C4.95 0 9.9 0 15 0 C15 4.95 15 9.9 15 15 C10.05 15 5.1 15 0 15 C0 10.05 0 5.1 0 0 Z " fill="#EFEFEF" transform="translate(0,435)"/>
<path d="M0 0 C4.95 0 9.9 0 15 0 C15 4.95 15 9.9 15 15 C10.05 15 5.1 15 0 15 C0 10.05 0 5.1 0 0 Z " fill="#FFFFFF" transform="translate(330,420)"/>
<path d="M0 0 C4.95 0 9.9 0 15 0 C15 4.95 15 9.9 15 15 C10.05 15 5.1 15 0 15 C0 10.05 0 5.1 0 0 Z " fill="#FFFFFF" transform="translate(0,420)"/>
<path d="M0 0 C4.95 0 9.9 0 15 0 C15 4.95 15 9.9 15 15 C10.05 15 5.1 15 0 15 C0 10.05 0 5.1 0 0 Z " fill="#EFEFEF" transform="translate(330,405)"/>
<path d="M0 0 C4.95 0 9.9 0 15 0 C15 4.95 15 9.9 15 15 C10.05 15 5.1 15 0 15 C0 10.05 0 5.1 0 0 Z " fill="#EFEFEF" transform="translate(0,405)"/>
<path d="M0 0 C4.95 0 9.9 0 15 0 C15 4.95 15 9.9 15 15 C10.05 15 5.1 15 0 15 C0 10.05 0 5.1 0 0 Z " fill="#FFFFFF" transform="translate(330,390)"/>
<path d="M0 0 C4.95 0 9.9 0 15 0 C15 4.95 15 9.9 15 15 C10.05 15 5.1 15 0 15 C0 10.05 0 5.1 0 0 Z " fill="#FFFFFF" transform="translate(0,390)"/>
<path d="M0 0 C4.95 0 9.9 0 15 0 C15 4.95 15 9.9 15 15 C10.05 15 5.1 15 0 15 C0 10.05 0 5.1 0 0 Z " fill="#EFEFEF" transform="translate(330,375)"/>
<path d="M0 0 C4.95 0 9.9 0 15 0 C15 4.95 15 9.9 15 15 C10.05 15 5.1 15 0 15 C0 10.05 0 5.1 0 0 Z " fill="#EFEFEF" transform="translate(0,375)"/>
<path d="M0 0 C4.95 0 9.9 0 15 0 C15 4.95 15 9.9 15 15 C10.05 15 5.1 15 0 15 C0 10.05 0 5.1 0 0 Z " fill="#FFFFFF" transform="translate(330,360)"/>
<path d="M0 0 C4.95 0 9.9 0 15 0 C15 4.95 15 9.9 15 15 C10.05 15 5.1 15 0 15 C0 10.05 0 5.1 0 0 Z " fill="#FFFFFF" transform="translate(0,360)"/>
<path d="M0 0 C4.95 0 9.9 0 15 0 C15 4.95 15 9.9 15 15 C10.05 15 5.1 15 0 15 C0 10.05 0 5.1 0 0 Z " fill="#EFEFEF" transform="translate(330,345)"/>
<path d="M0 0 C4.95 0 9.9 0 15 0 C15 4.95 15 9.9 15 15 C10.05 15 5.1 15 0 15 C0 10.05 0 5.1 0 0 Z " fill="#EFEFEF" transform="translate(0,345)"/>
<path d="M0 0 C4.95 0 9.9 0 15 0 C15 4.95 15 9.9 15 15 C10.05 15 5.1 15 0 15 C0 10.05 0 5.1 0 0 Z " fill="#FFFFFF" transform="translate(330,330)"/>
<path d="M0 0 C4.95 0 9.9 0 15 0 C15 4.95 15 9.9 15 15 C10.05 15 5.1 15 0 15 C0 10.05 0 5.1 0 0 Z " fill="#FFFFFF" transform="translate(0,330)"/>
<path d="M0 0 C4.95 0 9.9 0 15 0 C15 4.95 15 9.9 15 15 C10.05 15 5.1 15 0 15 C0 10.05 0 5.1 0 0 Z " fill="#EFEFEF" transform="translate(330,315)"/>
<path d="M0 0 C4.95 0 9.9 0 15 0 C15 4.95 15 9.9 15 15 C10.05 15 5.1 15 0 15 C0 10.05 0 5.1 0 0 Z " fill="#FFFFFF" transform="translate(0,300)"/>
<path d="M0 0 C4.95 0 9.9 0 15 0 C15 4.95 15 9.9 15 15 C10.05 15 5.1 15 0 15 C0 10.05 0 5.1 0 0 Z " fill="#FFFFFF" transform="translate(315,75)"/>
<path d="M0 0 C4.95 0 9.9 0 15 0 C15 4.95 15 9.9 15 15 C10.05 15 5.1 15 0 15 C0 10.05 0 5.1 0 0 Z " fill="#FFFFFF" transform="translate(255,75)"/>
<path d="M0 0 C4.95 0 9.9 0 15 0 C15 4.95 15 9.9 15 15 C10.05 15 5.1 15 0 15 C0 10.05 0 5.1 0 0 Z " fill="#FFFFFF" transform="translate(195,75)"/>
<path d="M0 0 C4.95 0 9.9 0 15 0 C15 4.95 15 9.9 15 15 C10.05 15 5.1 15 0 15 C0 10.05 0 5.1 0 0 Z " fill="#FFFFFF" transform="translate(165,75)"/>
<path d="M0 0 C4.95 0 9.9 0 15 0 C15 4.95 15 9.9 15 15 C10.05 15 5.1 15 0 15 C0 10.05 0 5.1 0 0 Z " fill="#FFFFFF" transform="translate(135,75)"/>
<path d="M0 0 C4.95 0 9.9 0 15 0 C15 4.95 15 9.9 15 15 C10.05 15 5.1 15 0 15 C0 10.05 0 5.1 0 0 Z " fill="#FFFFFF" transform="translate(105,75)"/>
<path d="M0 0 C4.95 0 9.9 0 15 0 C15 4.95 15 9.9 15 15 C10.05 15 5.1 15 0 15 C0 10.05 0 5.1 0 0 Z " fill="#FFFFFF" transform="translate(75,75)"/>
<path d="M0 0 C4.95 0 9.9 0 15 0 C15 4.95 15 9.9 15 15 C10.05 15 5.1 15 0 15 C0 10.05 0 5.1 0 0 Z " fill="#EFEFEF" transform="translate(60,75)"/>
<path d="M0 0 C4.95 0 9.9 0 15 0 C15 4.95 15 9.9 15 15 C10.05 15 5.1 15 0 15 C0 10.05 0 5.1 0 0 Z " fill="#FFFFFF" transform="translate(45,75)"/>
<path d="M0 0 C4.95 0 9.9 0 15 0 C15 4.95 15 9.9 15 15 C10.05 15 5.1 15 0 15 C0 10.05 0 5.1 0 0 Z " fill="#EFEFEF" transform="translate(30,75)"/>
<path d="M0 0 C4.95 0 9.9 0 15 0 C15 4.95 15 9.9 15 15 C10.05 15 5.1 15 0 15 C0 10.05 0 5.1 0 0 Z " fill="#FFFFFF" transform="translate(15,75)"/>
<path d="M0 0 C4.95 0 9.9 0 15 0 C15 4.95 15 9.9 15 15 C10.05 15 5.1 15 0 15 C0 10.05 0 5.1 0 0 Z " fill="#EFEFEF" transform="translate(315,60)"/>
<path d="M0 0 C4.95 0 9.9 0 15 0 C15 4.95 15 9.9 15 15 C10.05 15 5.1 15 0 15 C0 10.05 0 5.1 0 0 Z " fill="#FFFFFF" transform="translate(300,60)"/>
<path d="M0 0 C4.95 0 9.9 0 15 0 C15 4.95 15 9.9 15 15 C10.05 15 5.1 15 0 15 C0 10.05 0 5.1 0 0 Z " fill="#EFEFEF" transform="translate(285,60)"/>
<path d="M0 0 C4.95 0 9.9 0 15 0 C15 4.95 15 9.9 15 15 C10.05 15 5.1 15 0 15 C0 10.05 0 5.1 0 0 Z " fill="#EFEFEF" transform="translate(45,60)"/>
<path d="M0 0 C4.95 0 9.9 0 15 0 C15 4.95 15 9.9 15 15 C10.05 15 5.1 15 0 15 C0 10.05 0 5.1 0 0 Z " fill="#FFFFFF" transform="translate(30,60)"/>
<path d="M0 0 C4.95 0 9.9 0 15 0 C15 4.95 15 9.9 15 15 C10.05 15 5.1 15 0 15 C0 10.05 0 5.1 0 0 Z " fill="#EFEFEF" transform="translate(15,60)"/>
<path d="M0 0 C4.95 0 9.9 0 15 0 C15 4.95 15 9.9 15 15 C10.05 15 5.1 15 0 15 C0 10.05 0 5.1 0 0 Z " fill="#FFFFFF" transform="translate(0,60)"/>
<path d="M0 0 C4.95 0 9.9 0 15 0 C15 4.95 15 9.9 15 15 C10.05 15 5.1 15 0 15 C0 10.05 0 5.1 0 0 Z " fill="#EFEFEF" transform="translate(330,45)"/>
<path d="M0 0 C4.95 0 9.9 0 15 0 C15 4.95 15 9.9 15 15 C10.05 15 5.1 15 0 15 C0 10.05 0 5.1 0 0 Z " fill="#FFFFFF" transform="translate(315,45)"/>
<path d="M0 0 C4.95 0 9.9 0 15 0 C15 4.95 15 9.9 15 15 C10.05 15 5.1 15 0 15 C0 10.05 0 5.1 0 0 Z " fill="#EFEFEF" transform="translate(300,45)"/>
<path d="M0 0 C4.95 0 9.9 0 15 0 C15 4.95 15 9.9 15 15 C10.05 15 5.1 15 0 15 C0 10.05 0 5.1 0 0 Z " fill="#FFFFFF" transform="translate(285,45)"/>
<path d="M0 0 C4.95 0 9.9 0 15 0 C15 4.95 15 9.9 15 15 C10.05 15 5.1 15 0 15 C0 10.05 0 5.1 0 0 Z " fill="#FFFFFF" transform="translate(45,45)"/>
<path d="M0 0 C4.95 0 9.9 0 15 0 C15 4.95 15 9.9 15 15 C10.05 15 5.1 15 0 15 C0 10.05 0 5.1 0 0 Z " fill="#EFEFEF" transform="translate(30,45)"/>
<path d="M0 0 C4.95 0 9.9 0 15 0 C15 4.95 15 9.9 15 15 C10.05 15 5.1 15 0 15 C0 10.05 0 5.1 0 0 Z " fill="#FFFFFF" transform="translate(15,45)"/>
<path d="M0 0 C4.95 0 9.9 0 15 0 C15 4.95 15 9.9 15 15 C10.05 15 5.1 15 0 15 C0 10.05 0 5.1 0 0 Z " fill="#EFEFEF" transform="translate(0,45)"/>
<path d="M0 0 C4.95 0 9.9 0 15 0 C15 4.95 15 9.9 15 15 C10.05 15 5.1 15 0 15 C0 10.05 0 5.1 0 0 Z " fill="#EFEFEF" transform="translate(315,30)"/>
<path d="M0 0 C4.95 0 9.9 0 15 0 C15 4.95 15 9.9 15 15 C10.05 15 5.1 15 0 15 C0 10.05 0 5.1 0 0 Z " fill="#FFFFFF" transform="translate(300,30)"/>
<path d="M0 0 C4.95 0 9.9 0 15 0 C15 4.95 15 9.9 15 15 C10.05 15 5.1 15 0 15 C0 10.05 0 5.1 0 0 Z " fill="#EFEFEF" transform="translate(285,30)"/>
<path d="M0 0 C4.95 0 9.9 0 15 0 C15 4.95 15 9.9 15 15 C10.05 15 5.1 15 0 15 C0 10.05 0 5.1 0 0 Z " fill="#EFEFEF" transform="translate(105,30)"/>
<path d="M0 0 C4.95 0 9.9 0 15 0 C15 4.95 15 9.9 15 15 C10.05 15 5.1 15 0 15 C0 10.05 0 5.1 0 0 Z " fill="#EFEFEF" transform="translate(45,30)"/>
<path d="M0 0 C4.95 0 9.9 0 15 0 C15 4.95 15 9.9 15 15 C10.05 15 5.1 15 0 15 C0 10.05 0 5.1 0 0 Z " fill="#FFFFFF" transform="translate(30,30)"/>
<path d="M0 0 C4.95 0 9.9 0 15 0 C15 4.95 15 9.9 15 15 C10.05 15 5.1 15 0 15 C0 10.05 0 5.1 0 0 Z " fill="#EFEFEF" transform="translate(15,30)"/>
<path d="M0 0 C4.95 0 9.9 0 15 0 C15 4.95 15 9.9 15 15 C10.05 15 5.1 15 0 15 C0 10.05 0 5.1 0 0 Z " fill="#FFFFFF" transform="translate(0,30)"/>
<path d="M0 0 C4.95 0 9.9 0 15 0 C15 4.95 15 9.9 15 15 C10.05 15 5.1 15 0 15 C0 10.05 0 5.1 0 0 Z " fill="#EFEFEF" transform="translate(330,15)"/>
<path d="M0 0 C4.95 0 9.9 0 15 0 C15 4.95 15 9.9 15 15 C10.05 15 5.1 15 0 15 C0 10.05 0 5.1 0 0 Z " fill="#FFFFFF" transform="translate(315,15)"/>
<path d="M0 0 C4.95 0 9.9 0 15 0 C15 4.95 15 9.9 15 15 C10.05 15 5.1 15 0 15 C0 10.05 0 5.1 0 0 Z " fill="#EFEFEF" transform="translate(300,15)"/>
<path d="M0 0 C4.95 0 9.9 0 15 0 C15 4.95 15 9.9 15 15 C10.05 15 5.1 15 0 15 C0 10.05 0 5.1 0 0 Z " fill="#FFFFFF" transform="translate(285,15)"/>
<path d="M0 0 C4.95 0 9.9 0 15 0 C15 4.95 15 9.9 15 15 C10.05 15 5.1 15 0 15 C0 10.05 0 5.1 0 0 Z " fill="#FFFFFF" transform="translate(45,15)"/>
<path d="M0 0 C4.95 0 9.9 0 15 0 C15 4.95 15 9.9 15 15 C10.05 15 5.1 15 0 15 C0 10.05 0 5.1 0 0 Z " fill="#EFEFEF" transform="translate(30,15)"/>
<path d="M0 0 C4.95 0 9.9 0 15 0 C15 4.95 15 9.9 15 15 C10.05 15 5.1 15 0 15 C0 10.05 0 5.1 0 0 Z " fill="#FFFFFF" transform="translate(15,15)"/>
<path d="M0 0 C4.95 0 9.9 0 15 0 C15 4.95 15 9.9 15 15 C10.05 15 5.1 15 0 15 C0 10.05 0 5.1 0 0 Z " fill="#EFEFEF" transform="translate(0,15)"/>
<path d="M0 0 C4.95 0 9.9 0 15 0 C15 4.95 15 9.9 15 15 C10.05 15 5.1 15 0 15 C0 10.05 0 5.1 0 0 Z " fill="#EFEFEF" transform="translate(315,0)"/>
<path d="M0 0 C4.95 0 9.9 0 15 0 C15 4.95 15 9.9 15 15 C10.05 15 5.1 15 0 15 C0 10.05 0 5.1 0 0 Z " fill="#FFFFFF" transform="translate(300,0)"/>
<path d="M0 0 C4.95 0 9.9 0 15 0 C15 4.95 15 9.9 15 15 C10.05 15 5.1 15 0 15 C0 10.05 0 5.1 0 0 Z " fill="#EFEFEF" transform="translate(285,0)"/>
<path d="M0 0 C4.95 0 9.9 0 15 0 C15 4.95 15 9.9 15 15 C10.05 15 5.1 15 0 15 C0 10.05 0 5.1 0 0 Z " fill="#EFEFEF" transform="translate(45,0)"/>
<path d="M0 0 C4.95 0 9.9 0 15 0 C15 4.95 15 9.9 15 15 C10.05 15 5.1 15 0 15 C0 10.05 0 5.1 0 0 Z " fill="#FFFFFF" transform="translate(30,0)"/>
<path d="M0 0 C4.95 0 9.9 0 15 0 C15 4.95 15 9.9 15 15 C10.05 15 5.1 15 0 15 C0 10.05 0 5.1 0 0 Z " fill="#FFFFFF" transform="translate(0,0)"/>
<path d="M0 0 C4.62 0 9.24 0 14 0 C14.67238197 5.60318306 15.11601376 9.4199312 14 15 C9.38 15 4.76 15 0 15 C0 10.05 0 5.1 0 0 Z " fill="#EEEEEF" transform="translate(15,420)"/>
<path d="M0 0 C0.33 0.66 0.66 1.32 1 2 C4.96 2 8.92 2 13 2 C13 6.95 13 11.9 13 17 C8.71 17 4.42 17 0 17 C-0.33 17.66 -0.66 18.32 -1 19 C-1.02697137 16.39576408 -1.04682489 13.79180756 -1.0625 11.1875 C-1.07087891 10.44951172 -1.07925781 9.71152344 -1.08789062 8.95117188 C-1.10259828 5.70077932 -1.03531702 3.10595105 0 0 Z " fill="#FDFDFE" transform="translate(332,268)"/>
<path d="M0 0 C12.75 -0.125 12.75 -0.125 15 1 C14.67 5.62 14.34 10.24 14 15 C9.38 15 4.76 15 0 15 C0 10.05 0 5.1 0 0 Z " fill="#EDEEEE" transform="translate(0,255)"/>
<path d="M0 0 C11.22 0 22.44 0 34 0 C34 1.32 34 2.64 34 4 C33.01 4 32.02 4 31 4 C31 5.65 31 7.3 31 9 C26.05 9 21.1 9 16 9 C16 7.35 16 5.7 16 4 C11.05 4 6.1 4 1 4 C0.67 2.68 0.34 1.36 0 0 Z " fill="#FDFDFD" transform="translate(224,41)"/>
<path d="M0 0 C3.42724441 5.14086661 3.1015597 10.00797796 3 16 C-1.62 16 -6.24 16 -11 16 C-11 11.05 -11 6.1 -11 1 C-5.555 0.505 -5.555 0.505 0 0 Z " fill="#FCFDFE" transform="translate(26,404)"/>
<path d="M0 0 C-0.33 4.62 -0.66 9.24 -1 14 C-5.95 14 -10.9 14 -16 14 C-15.96744792 11.72135417 -15.93489583 9.44270833 -15.90234375 7.1640625 C-15.85533666 4.95062858 -15.85533666 4.95062858 -17 3 C-14.54383175 2.30378686 -12.0855877 1.61775372 -9.625 0.9375 C-8.57699219 0.63875977 -8.57699219 0.63875977 -7.5078125 0.33398438 C-2.2265625 -1.11328125 -2.2265625 -1.11328125 0 0 Z " fill="#EDEEEF" transform="translate(256,466)"/>
<path d="M0 0 C0.66 0.99 1.32 1.98 2 3 C4.43693311 3.36416047 4.43693311 3.36416047 7.125 3.1875 C9.538125 3.0946875 9.538125 3.0946875 12 3 C12 7.95 12 12.9 12 18 C7.71 18 3.42 18 -1 18 C-0.505 9.09 -0.505 9.09 0 0 Z " fill="#ECEDEE" transform="translate(318,417)"/>
<path d="M0 0 C7.3802973 0 9.01033463 0.63738085 15 4 C15 7.3 15 10.6 15 14 C10.05 14 5.1 14 0 14 C0 9.38 0 4.76 0 0 Z " fill="#EEEEEE" transform="translate(90,466)"/>
<path d="M0 0 C3.96 0 7.92 0 12 0 C12 4.95 12 9.9 12 15 C8.04 15 4.08 15 0 15 C-1.2222084 9.70376361 -0.72589219 5.32320939 0 0 Z " fill="#EFEFEF" transform="translate(333,255)"/>
<path d="M0 0 C1.60875 -0.020625 3.2175 -0.04125 4.875 -0.0625 C5.77992188 -0.07410156 6.68484375 -0.08570313 7.6171875 -0.09765625 C10 0 10 0 12 1 C12.4140625 3.94140625 12.4140625 3.94140625 12.625 7.5625 C12.69976562 8.76003906 12.77453125 9.95757812 12.8515625 11.19140625 C12.90054687 12.11824219 12.94953125 13.04507813 13 14 C9.14854957 15.92572521 4.19956748 15.04883218 0 15 C0 10.05 0 5.1 0 0 Z " fill="#EDEEEE" transform="translate(0,225)"/>
<path d="M0 0 C14.85 0 29.7 0 45 0 C45 0.33 45 0.66 45 1 C40.38 1 35.76 1 31 1 C31 3.64 31 6.28 31 9 C26.05 9 21.1 9 16 9 C16 6.36 16 3.72 16 1 C14.22880197 1.14133499 12.45804713 1.28823208 10.6875 1.4375 C9.70136719 1.51871094 8.71523437 1.59992187 7.69921875 1.68359375 C4.90624401 1.91812559 4.90624401 1.91812559 2 3 C2 4.65 2 6.3 2 8 C1.01 8.495 1.01 8.495 0 9 C0 6.03 0 3.06 0 0 Z " fill="#FFFFFF" transform="translate(89,21)"/>
<path d="M0 0 C0.33 0 0.66 0 1 0 C1 1.65 1 3.3 1 5 C3.97 5 6.94 5 10 5 C10 9.95 10 14.9 10 20 C6.04 20 2.08 20 -2 20 C-1.85919445 17.22882696 -1.71256882 14.45817359 -1.5625 11.6875 C-1.52318359 10.90181641 -1.48386719 10.11613281 -1.44335938 9.30664062 C-1.40146484 8.54931641 -1.35957031 7.79199219 -1.31640625 7.01171875 C-1.27974854 6.31522217 -1.24309082 5.61872559 -1.20532227 4.90112305 C-1 3 -1 3 0 0 Z " fill="#FCFDFD" transform="translate(335,235)"/>
<path d="M0 0 C3.3 0 6.6 0 10 0 C12.02168235 4.0433647 12.35927761 6.32129345 12.625 10.75 C12.69976562 11.92046875 12.77453125 13.0909375 12.8515625 14.296875 C12.90054687 15.18890625 12.94953125 16.0809375 13 17 C12.34 16.34 11.68 15.68 11 15 C8.33050591 14.75684344 8.33050591 14.75684344 5.375 14.875 C3.60125 14.91625 1.8275 14.9575 0 15 C0 10.05 0 5.1 0 0 Z " fill="#EEEEEE" transform="translate(15,390)"/>
<path d="M0 0 C3.3 0 6.6 0 10 0 C11.04682656 4.18730624 11.11155353 7.97856931 11.0625 12.25 C11.05798828 12.99507813 11.05347656 13.74015625 11.04882812 14.5078125 C11.03709246 16.3385764 11.0191585 18.16929873 11 20 C10.67 20 10.34 20 10 20 C10 18.35 10 16.7 10 15 C6.7 15 3.4 15 0 15 C0 10.05 0 5.1 0 0 Z " fill="#FDFDFE" transform="translate(15,375)"/>
<path d="M0 0 C0.33 0 0.66 0 1 0 C1.84023188 4.35332736 2.10770995 8.44442519 2.0625 12.875 C2.05347656 14.02742187 2.04445313 15.17984375 2.03515625 16.3671875 C2.02355469 17.23601562 2.01195312 18.10484375 2 19 C1.67 18.34 1.34 17.68 1 17 C-2.3 17 -5.6 17 -9 17 C-9 12.05 -9 7.1 -9 2 C-6.03 2 -3.06 2 0 2 C0 1.34 0 0.68 0 0 Z " fill="#FEFEFE" transform="translate(9,208)"/>
<path d="M0 0 C0.33 0 0.66 0 1 0 C2.58378121 14.32712849 1.66306568 28.63658396 1 43 C0.67 43 0.34 43 0 43 C0 38.38 0 33.76 0 29 C-2.64 29 -5.28 29 -8 29 C-8 24.05 -8 19.1 -8 14 C-5.36 14 -2.72 14 0 14 C0 9.38 0 4.76 0 0 Z " fill="#FEFEFE" transform="translate(68,16)"/>
<path d="M0 0 C10.96042216 1.14511873 10.96042216 1.14511873 14 2 C15.60725635 5.21451269 15.05748185 8.43612536 15 12 C10.05 12 5.1 12 0 12 C0 8.04 0 4.08 0 0 Z " fill="#EEEEEE" transform="translate(45,453)"/>
<path d="M0 0 C0 3.63 0 7.26 0 11 C-4.95 11 -9.9 11 -15 11 C-15 8.03 -15 5.06 -15 2 C-13.25364835 1.46706165 -11.50272348 0.94909337 -9.75 0.4375 C-8.77546875 0.14746094 -7.8009375 -0.14257812 -6.796875 -0.44140625 C-4 -1 -4 -1 0 0 Z " fill="#EDEEEE" transform="translate(300,454)"/>
<path d="M0 0 C1.98 0 3.96 0 6 0 C6 4.95 6 9.9 6 15 C4.02 15 2.04 15 0 15 C-0.33 14.34 -0.66 13.68 -1 13 C-2.89533342 12.53476937 -2.89533342 12.53476937 -5.0625 12.375 C-6.361875 12.25125 -7.66125 12.1275 -9 12 C-9 9.69 -9 7.38 -9 5 C-6.36 5 -3.72 5 -1 5 C-0.67 3.35 -0.34 1.7 0 0 Z " fill="#EFEFEF" transform="translate(279,15)"/>
<path d="M0 0 C0.33 0 0.66 0 1 0 C1.1964031 3.29119935 1.38060745 6.58296934 1.5625 9.875 C1.61857422 10.81214844 1.67464844 11.74929687 1.73242188 12.71484375 C1.78076172 13.61074219 1.82910156 14.50664062 1.87890625 15.4296875 C1.9260376 16.25710449 1.97316895 17.08452148 2.02172852 17.93701172 C2 20 2 20 1 22 C-1.97 22 -4.94 22 -8 22 C-8 17.05 -8 12.1 -8 7 C-5.36 7 -2.72 7 0 7 C0 4.69 0 2.38 0 0 Z " fill="#ECEDEE" transform="translate(8,188)"/>
<path d="M0 0 C0.33 0 0.66 0 1 0 C1.5744695 5.97692738 2.1439686 11.95430042 2.70898438 17.93212891 C2.90164829 19.96318156 3.09563984 21.99410876 3.29101562 24.02490234 C3.57255529 26.95377675 3.84922491 29.88307787 4.125 32.8125 C4.21249512 33.71178223 4.29999023 34.61106445 4.39013672 35.53759766 C4.87244567 40.71877977 5.08461236 45.79633993 5 51 C3.35 51 1.7 51 0 51 C0 34.17 0 17.34 0 0 Z " fill="#EEF2F5" transform="translate(0,99)"/>
<path d="M0 0 C13.86 0 27.72 0 42 0 C42 0.33 42 0.66 42 1 C38.04 1 34.08 1 30 1 C30 3.31 30 5.62 30 8 C25.05 8 20.1 8 15 8 C15 5.69 15 3.38 15 1 C10.05 1 5.1 1 0 1 C0 0.67 0 0.34 0 0 Z " fill="#FFFFFF" transform="translate(165,67)"/>
<path d="M0 0 C1.65 0 3.3 0 5 0 C5.33 2.31 5.66 4.62 6 7 C8.97 7.33 11.94 7.66 15 8 C15 10.31 15 12.62 15 15 C10.05 15 5.1 15 0 15 C0 10.05 0 5.1 0 0 Z " fill="#EFEFEF" transform="translate(135,60)"/>
<path d="M0 0 C17.70212766 1.70212766 17.70212766 1.70212766 21 5 C21 7.31 21 9.62 21 12 C16.05 12 11.1 12 6 12 C6 8.7 6 5.4 6 2 C3.03 1.505 3.03 1.505 0 1 C0 0.67 0 0.34 0 0 Z " fill="#FCFDFD" transform="translate(99,468)"/>
<path d="M0 0 C0.33 0 0.66 0 1 0 C1.33 5.94 1.66 11.88 2 18 C-1.3 18 -4.6 18 -8 18 C-8 13.05 -8 8.1 -8 3 C-5.69 3 -3.38 3 -1 3 C-0.67 2.01 -0.34 1.02 0 0 Z " fill="#EBEDEE" transform="translate(23,357)"/>
<path d="M0 0 C2.97 0 5.94 0 9 0 C9 4.95 9 9.9 9 15 C6.03 15 3.06 15 0 15 C-1.2222084 9.70376361 -0.72589219 5.32320939 0 0 Z " fill="#EFEFEF" transform="translate(321,390)"/>
<path d="M0 0 C0 4.95 0 9.9 0 15 C-2.97 15 -5.94 15 -9 15 C-10.20568053 10.32798795 -10.09382426 5.78503708 -10 1 C-6.78548731 -0.60725635 -3.56387464 -0.05748185 0 0 Z " fill="#ECEDED" transform="translate(345,225)"/>
<path d="M0 0 C4.95 0 9.9 0 15 0 C15 1.65 15 3.3 15 5 C19.95 5 24.9 5 30 5 C30 3.35 30 1.7 30 0 C30.99 0 31.98 0 33 0 C33 1.98 33 3.96 33 6 C18.15 6 3.3 6 -12 6 C-12 5.67 -12 5.34 -12 5 C-8.04 5 -4.08 5 0 5 C0 3.35 0 1.7 0 0 Z " fill="#FFFFFF" transform="translate(225,45)"/>
<path d="M0 0 C2.64 0 5.28 0 8 0 C8 4.95 8 9.9 8 15 C5.36 15 2.72 15 0 15 C0 17.64 0 20.28 0 23 C-0.33 23 -0.66 23 -1 23 C-1.09928082 15.24506486 -1.06059488 7.68931285 0 0 Z " fill="#FEFEFE" transform="translate(337,210)"/>
<path d="M0 0 C9.57 0 19.14 0 29 0 C29 0.33 29 0.66 29 1 C24.38 1 19.76 1 15 1 C15 3.31 15 5.62 15 8 C10.05 8 5.1 8 0 8 C0 5.36 0 2.72 0 0 Z " fill="#FFFFFF" transform="translate(240,67)"/>
<path d="M0 0 C-0.33 3.3 -0.66 6.6 -1 10 C-5.95 10 -10.9 10 -16 10 C-16.33 8.02 -16.66 6.04 -17 4 C-15.72942818 3.52014033 -14.45853152 3.0411407 -13.1875 2.5625 C-12.47980469 2.29566406 -11.77210938 2.02882813 -11.04296875 1.75390625 C-7.13986507 0.31356398 -4.15976143 -0.09243914 0 0 Z " fill="#FBFCFD" transform="translate(241,470)"/>
<path d="M0 0 C1.8871875 -0.02126953 1.8871875 -0.02126953 3.8125 -0.04296875 C7 0.1875 7 0.1875 9 2.1875 C8.34 2.1875 7.68 2.1875 7 2.1875 C7 3.8375 7 5.4875 7 7.1875 C9.64 7.1875 12.28 7.1875 15 7.1875 C15 7.5175 15 7.8475 15 8.1875 C11.20839703 8.24536668 7.41690689 8.28105054 3.625 8.3125 C2.00464844 8.33763672 2.00464844 8.33763672 0.3515625 8.36328125 C-0.6796875 8.36972656 -1.7109375 8.37617188 -2.7734375 8.3828125 C-4.20308838 8.39852295 -4.20308838 8.39852295 -5.66162109 8.41455078 C-8 8.1875 -8 8.1875 -10 6.1875 C-9.34 6.1875 -8.68 6.1875 -8 6.1875 C-8.33 4.5375 -8.66 2.8875 -9 1.1875 C-6.02958551 -0.29770725 -3.30235553 0.0169178 0 0 Z " fill="#FEFEFE" transform="translate(263,19.8125)"/>
<path d="M0 0 C0.33 0 0.66 0 1 0 C2.0176403 5.01608525 2.11856434 9.78608306 2.0625 14.875 C2.05798828 15.65875 2.05347656 16.4425 2.04882812 17.25 C2.03714093 19.16670014 2.01920908 21.08336048 2 23 C-0.64 23 -3.28 23 -6 23 C-6 18.05 -6 13.1 -6 8 C-4.02 8 -2.04 8 0 8 C0 5.36 0 2.72 0 0 Z " fill="#FCFDFD" transform="translate(6,172)"/>
<path d="M0 0 C0.99 0 1.98 0 3 0 C3 4.95 3 9.9 3 15 C-1.95 15 -6.9 15 -12 15 C-12 12.69 -12 10.38 -12 8 C-6.555 7.505 -6.555 7.505 -1 7 C-0.67 4.69 -0.34 2.38 0 0 Z " fill="#EFEFEF" transform="translate(207,60)"/>
<path d="M0 0 C2.52775351 3.79163027 2.22443035 6.80874031 2.125 11.1875 C2.11597656 11.93708984 2.10695313 12.68667969 2.09765625 13.45898438 C2.07412578 15.30612654 2.03825561 17.15310412 2 19 C-0.64 18.67 -3.28 18.34 -6 18 C-6 13.05 -6 8.1 -6 3 C-4.02 3 -2.04 3 0 3 C0 2.01 0 1.02 0 0 Z " fill="#FCFDFD" transform="translate(21,342)"/>
<path d="M0 0 C-0.66 0 -1.32 0 -2 0 C-2 2.31 -2 4.62 -2 7 C-5.79160297 7.05786668 -9.58309311 7.09355054 -13.375 7.125 C-14.99535156 7.15013672 -14.99535156 7.15013672 -16.6484375 7.17578125 C-17.6796875 7.18222656 -18.7109375 7.18867188 -19.7734375 7.1953125 C-21.20308838 7.21102295 -21.20308838 7.21102295 -22.66162109 7.22705078 C-25 7 -25 7 -27 5 C-23.25414902 3.96350499 -19.50278991 2.9485563 -15.75 1.9375 C-14.68652344 1.64294922 -13.62304688 1.34839844 -12.52734375 1.04492188 C-11.50253906 0.77099609 -10.47773438 0.49707031 -9.421875 0.21484375 C-8.47924805 -0.04176025 -7.53662109 -0.29836426 -6.56542969 -0.56274414 C-3.96719613 -1.00559114 -2.46392487 -0.85426202 0 0 Z " fill="#F9FBFC" transform="translate(287,458)"/>
<path d="M0 0 C0 2.97 0 5.94 0 9 C-4.95 9 -9.9 9 -15 9 C-15 6.36 -15 3.72 -15 1 C-12.68753088 0.83290546 -10.37502385 0.66633538 -8.0625 0.5 C-6.77472656 0.4071875 -5.48695313 0.314375 -4.16015625 0.21875 C-1 0 -1 0 0 0 Z " fill="#FFFFFF" transform="translate(135,66)"/>
<path d="M0 0 C4.95 0 9.9 0 15 0 C15 2.64 15 5.28 15 8 C10.05 8 5.1 8 0 8 C0 5.36 0 2.72 0 0 Z " fill="#FFFFFF" transform="translate(330,480)"/>
<path d="M0 0 C4.95 0 9.9 0 15 0 C15 2.64 15 5.28 15 8 C10.05 8 5.1 8 0 8 C0 5.36 0 2.72 0 0 Z " fill="#EFEFEF" transform="translate(315,480)"/>
<path d="M0 0 C4.95 0 9.9 0 15 0 C15 2.64 15 5.28 15 8 C10.05 8 5.1 8 0 8 C0 5.36 0 2.72 0 0 Z " fill="#FFFFFF" transform="translate(300,480)"/>
<path d="M0 0 C4.95 0 9.9 0 15 0 C15 2.64 15 5.28 15 8 C10.05 8 5.1 8 0 8 C0 5.36 0 2.72 0 0 Z " fill="#EFEFEF" transform="translate(285,480)"/>
<path d="M0 0 C4.95 0 9.9 0 15 0 C15 2.64 15 5.28 15 8 C10.05 8 5.1 8 0 8 C0 5.36 0 2.72 0 0 Z " fill="#FFFFFF" transform="translate(270,480)"/>
<path d="M0 0 C4.95 0 9.9 0 15 0 C15 2.64 15 5.28 15 8 C10.05 8 5.1 8 0 8 C0 5.36 0 2.72 0 0 Z " fill="#EFEFEF" transform="translate(255,480)"/>
<path d="M0 0 C4.95 0 9.9 0 15 0 C15 2.64 15 5.28 15 8 C10.05 8 5.1 8 0 8 C0 5.36 0 2.72 0 0 Z " fill="#FFFFFF" transform="translate(240,480)"/>
<path d="M0 0 C4.95 0 9.9 0 15 0 C15 2.64 15 5.28 15 8 C10.05 8 5.1 8 0 8 C0 5.36 0 2.72 0 0 Z " fill="#EFEFEF" transform="translate(225,480)"/>
<path d="M0 0 C4.95 0 9.9 0 15 0 C15 2.64 15 5.28 15 8 C10.05 8 5.1 8 0 8 C0 5.36 0 2.72 0 0 Z " fill="#FFFFFF" transform="translate(210,480)"/>
<path d="M0 0 C4.95 0 9.9 0 15 0 C15 2.64 15 5.28 15 8 C10.05 8 5.1 8 0 8 C0 5.36 0 2.72 0 0 Z " fill="#FFFFFF" transform="translate(120,480)"/>
<path d="M0 0 C4.95 0 9.9 0 15 0 C15 2.64 15 5.28 15 8 C10.05 8 5.1 8 0 8 C0 5.36 0 2.72 0 0 Z " fill="#EFEFEF" transform="translate(105,480)"/>
<path d="M0 0 C4.95 0 9.9 0 15 0 C15 2.64 15 5.28 15 8 C10.05 8 5.1 8 0 8 C0 5.36 0 2.72 0 0 Z " fill="#FFFFFF" transform="translate(90,480)"/>
<path d="M0 0 C4.95 0 9.9 0 15 0 C15 2.64 15 5.28 15 8 C10.05 8 5.1 8 0 8 C0 5.36 0 2.72 0 0 Z " fill="#EFEFEF" transform="translate(75,480)"/>
<path d="M0 0 C4.95 0 9.9 0 15 0 C15 2.64 15 5.28 15 8 C10.05 8 5.1 8 0 8 C0 5.36 0 2.72 0 0 Z " fill="#FFFFFF" transform="translate(60,480)"/>
<path d="M0 0 C4.95 0 9.9 0 15 0 C15 2.64 15 5.28 15 8 C10.05 8 5.1 8 0 8 C0 5.36 0 2.72 0 0 Z " fill="#EFEFEF" transform="translate(45,480)"/>
<path d="M0 0 C4.95 0 9.9 0 15 0 C15 2.64 15 5.28 15 8 C10.05 8 5.1 8 0 8 C0 5.36 0 2.72 0 0 Z " fill="#FFFFFF" transform="translate(30,480)"/>
<path d="M0 0 C4.95 0 9.9 0 15 0 C15 2.64 15 5.28 15 8 C10.05 8 5.1 8 0 8 C0 5.36 0 2.72 0 0 Z " fill="#FFFFFF" transform="translate(0,480)"/>
<path d="M0 0 C2.64 0 5.28 0 8 0 C8 4.95 8 9.9 8 15 C5.36 15 2.72 15 0 15 C0 10.05 0 5.1 0 0 Z " fill="#EFEFEF" transform="translate(60,45)"/>
<path d="M0 0 C2.64 0 5.28 0 8 0 C8 4.95 8 9.9 8 15 C5.36 15 2.72 15 0 15 C0 10.05 0 5.1 0 0 Z " fill="#EFEFEF" transform="translate(60,15)"/>
<path d="M0 0 C4.95 0 9.9 0 15 0 C15 4.95 15 9.9 15 15 C13.02 15 11.04 15 9 15 C9 16.98 9 18.96 9 21 C8.67 21 8.34 21 8 21 C8 14.4 8 7.8 8 1 C5.36 1 2.72 1 0 1 C0 0.67 0 0.34 0 0 Z " fill="#FEFEFE" transform="translate(270,0)"/>
<path d="M0 0 C1.93166016 0.01740234 1.93166016 0.01740234 3.90234375 0.03515625 C5.19269531 0.04417969 6.48304687 0.05320312 7.8125 0.0625 C8.81152344 0.07410156 9.81054688 0.08570312 10.83984375 0.09765625 C10.83984375 2.73765625 10.83984375 5.37765625 10.83984375 8.09765625 C5.88984375 8.09765625 0.93984375 8.09765625 -4.16015625 8.09765625 C-4.16015625 0.1285586 -4.16015625 0.1285586 0 0 Z " fill="#EFEFEF" transform="translate(94.16015625,21.90234375)"/>
<path d="M0 0 C0.66 0.66 1.32 1.32 2 2 C3.65 2 5.3 2 7 2 C7 6.95 7 11.9 7 17 C4.36 17 1.72 17 -1 17 C-0.67 11.39 -0.34 5.78 0 0 Z " fill="#EAECEE" transform="translate(338,193)"/>
<path d="M0 0 C4.95 0 9.9 0 15 0 C15 2.31 15 4.62 15 7 C10.05 7 5.1 7 0 7 C0 4.69 0 2.38 0 0 Z " fill="#EFEFEF" transform="translate(255,68)"/>
<path d="M0 0 C4.95 0 9.9 0 15 0 C15 2.31 15 4.62 15 7 C10.05 7 5.1 7 0 7 C0 4.69 0 2.38 0 0 Z " fill="#EFEFEF" transform="translate(225,68)"/>
<path d="M0 0 C4.95 0 9.9 0 15 0 C15 2.31 15 4.62 15 7 C10.05 7 5.1 7 0 7 C0 4.69 0 2.38 0 0 Z " fill="#EFEFEF" transform="translate(165,68)"/>
<path d="M0 0 C4.95 0 9.9 0 15 0 C15 2.31 15 4.62 15 7 C10.05 7 5.1 7 0 7 C0 4.69 0 2.38 0 0 Z " fill="#EFEFEF" transform="translate(105,68)"/>
<path d="M0 0 C4.95 0 9.9 0 15 0 C15 2.31 15 4.62 15 7 C10.05 7 5.1 7 0 7 C0 4.69 0 2.38 0 0 Z " fill="#EFEFEF" transform="translate(75,68)"/>
<path d="M0 0 C4.95 0 9.9 0 15 0 C15 1.65 15 3.3 15 5 C11.04 5 7.08 5 3 5 C3 8.3 3 11.6 3 15 C2.01 15 1.02 15 0 15 C0 10.05 0 5.1 0 0 Z " fill="#EFEFEF" transform="translate(210,45)"/>
<path d="M0 0 C0.99 0 1.98 0 3 0 C3 14.85 3 29.7 3 45 C2.01 45 1.02 45 0 45 C-0.24984036 31.17549985 0.3483961 17.72895743 2 4 C1.34 4 0.68 4 0 4 C0 2.68 0 1.36 0 0 Z " fill="#F1F3F4" transform="translate(345,90)"/>
<path d="M0 0 C4.95 0 9.9 0 15 0 C15 1.65 15 3.3 15 5 C15.99 5.33 16.98 5.66 18 6 C11.73 6 5.46 6 -1 6 C-0.67 4.02 -0.34 2.04 0 0 Z " fill="#FFFFFF" transform="translate(165,45)"/>
<path d="M0 0 C1.93719378 -0.05406122 3.87481921 -0.09282025 5.8125 -0.125 C6.89144531 -0.14820312 7.97039062 -0.17140625 9.08203125 -0.1953125 C12 0 12 0 15 2 C13.02 2 11.04 2 9 2 C9 3.32 9 4.64 9 6 C11.31 6 13.62 6 16 6 C15.67 6.66 15.34 7.32 15 8 C10.05 8 5.1 8 0 8 C0 5.36 0 2.72 0 0 Z " fill="#F9F9F9" transform="translate(231,20)"/>
<path d="M0 0 C1.65 0 3.3 0 5 0 C7.09740836 3.14611253 7.25328219 3.91188078 7.1875 7.5 C7.18105469 8.2734375 7.17460937 9.046875 7.16796875 9.84375 C7 12 7 12 6 15 C4.02 15 2.04 15 0 15 C0 10.05 0 5.1 0 0 Z " fill="#EBEDEE" transform="translate(15,330)"/>
<path d="M0 0 C0 4.95 0 9.9 0 15 C-1.98 15 -3.96 15 -6 15 C-7.20568053 10.32798795 -7.09382426 5.78503708 -7 1 C-5 0 -5 0 0 0 Z " fill="#EAECED" transform="translate(330,360)"/>
<path d="M0 0 C3.25734641 3.25734641 2.98724548 6.47910541 3.09765625 10.98828125 C3.09107434 12.42972011 3.07924498 13.87114338 3.0625 15.3125 C3.05798828 16.05306641 3.05347656 16.79363281 3.04882812 17.55664062 C3.03712175 19.37112899 3.01918898 21.18557534 3 23 C2.67 23 2.34 23 2 23 C2 20.69 2 18.38 2 16 C0.35 16 -1.3 16 -3 16 C-3 11.05 -3 6.1 -3 1 C-2.01 0.67 -1.02 0.34 0 0 Z " fill="#FAFCFD" transform="translate(18,314)"/>
<path d="M0 0 C5 0 5 0 7 1 C6.67 5.62 6.34 10.24 6 15 C4.02 15 2.04 15 0 15 C0 10.05 0 5.1 0 0 Z " fill="#ECEDED" transform="translate(0,165)"/>
<path d="M0 0 C13.2 0 26.4 0 40 0 C38 2 38 2 35.1796875 2.1953125 C34.08914062 2.17210937 32.99859375 2.14890625 31.875 2.125 C30.77929688 2.10695312 29.68359375 2.08890625 28.5546875 2.0703125 C27.71164063 2.04710937 26.86859375 2.02390625 26 2 C25.67 2.66 25.34 3.32 25 4 C22.54137599 4.05383848 20.0839245 4.09359038 17.625 4.125 C16.57699219 4.15013672 16.57699219 4.15013672 15.5078125 4.17578125 C13.67102514 4.19344267 11.83398037 4.10303261 10 4 C9.34 3.34 8.68 2.68 8 2 C5.34462628 1.43479997 2.70855287 1.26211802 0 1 C0 0.67 0 0.34 0 0 Z " fill="#FFFFFF" transform="translate(140,41)"/>
<path d="M0 0 C1.98 0 3.96 0 6 0 C6 4.95 6 9.9 6 15 C4.02 15 2.04 15 0 15 C0 10.05 0 5.1 0 0 Z " fill="#EFEFEF" transform="translate(279,45)"/>
<path d="M0 0 C8.02770189 0.55363461 15.33854067 2.65687944 23 5 C23 5.33 23 5.66 23 6 C15.74 6 8.48 6 1 6 C0.67 4.02 0.34 2.04 0 0 Z " fill="#F7F9FA" transform="translate(149,482)"/>
<path d="M0 0 C4.95 0 9.9 0 15 0 C15 1.65 15 3.3 15 5 C10.05 5 5.1 5 0 5 C0 3.35 0 1.7 0 0 Z " fill="#EFEFEF" transform="translate(240,45)"/>
<path d="M0 0 C4.95 0 9.9 0 15 0 C15 1.65 15 3.3 15 5 C10.05 5 5.1 5 0 5 C0 3.35 0 1.7 0 0 Z " fill="#EFEFEF" transform="translate(150,45)"/>
<path d="M0 0 C4.95 0 9.9 0 15 0 C15 1.65 15 3.3 15 5 C10.05 5 5.1 5 0 5 C0 3.35 0 1.7 0 0 Z " fill="#EFEFEF" transform="translate(180,21)"/>
<path d="M0 0 C-0.99 0.33 -1.98 0.66 -3 1 C-3 2.65 -3 4.3 -3 6 C-9.6 6 -16.2 6 -23 6 C-19.65836994 3.77224663 -16.45287175 2.87261136 -12.625 1.875 C-11.635 1.60236328 -11.635 1.60236328 -10.625 1.32421875 C-7.00469039 0.36505306 -3.74589021 -0.21694345 0 0 Z " fill="#F2F6F8" transform="translate(198,482)"/>
<path d="M0 0 C0.33 0 0.66 0 1 0 C1.33 5.94 1.66 11.88 2 18 C0.35 18 -1.3 18 -3 18 C-3 13.05 -3 8.1 -3 3 C-2.34 3 -1.68 3 -1 3 C-0.67 2.01 -0.34 1.02 0 0 Z " fill="#E5EAED" transform="translate(3,132)"/>
<path d="M0 0 C0.33 0 0.66 0 1 0 C1.027193 1.58323688 1.04648306 3.16661062 1.0625 4.75 C1.07410156 5.63171875 1.08570313 6.5134375 1.09765625 7.421875 C1.00826198 9.7818838 0.66912821 11.74498524 0 14 C0.99 14 1.98 14 3 14 C3 18.95 3 23.9 3 29 C2.01 29 1.02 29 0 29 C-1.52420215 19.47373656 -1.81027407 9.50393885 0 0 Z " fill="#FDFDFD" transform="translate(345,121)"/>
<path d="M0 0 C0.66 0.99 1.32 1.98 2 3 C2.66 3 3.32 3 4 3 C4 7.95 4 12.9 4 18 C2.35 18 0.7 18 -1 18 C-0.505 9.09 -0.505 9.09 0 0 Z " fill="#E7EBED" transform="translate(326,327)"/>
<path d="M0 0 C1.32 0 2.64 0 4 0 C4 4.95 4 9.9 4 15 C2.68 15 1.36 15 0 15 C-1.2063366 9.77254141 -0.75612577 5.23471686 0 0 Z " fill="#F0F0F0" transform="translate(341,165)"/>
<path d="M0 0 C9.24 0 18.48 0 28 0 C28 0.33 28 0.66 28 1 C22.06 1.495 22.06 1.495 16 2 C16 2.66 16 3.32 16 4 C11.05 4 6.1 4 1 4 C0.67 2.68 0.34 1.36 0 0 Z " fill="#ECECEC" transform="translate(224,41)"/>
<path d="M0 0 C4.95 0 9.9 0 15 0 C15 1.65 15 3.3 15 5 C10.05 4.67 5.1 4.34 0 4 C0 2.68 0 1.36 0 0 Z " fill="#EFEFEF" transform="translate(120,45)"/>
<path d="M0 0 C4.95 0 9.9 0 15 0 C15 1.32 15 2.64 15 4 C10.05 4 5.1 4 0 4 C0 2.68 0 1.36 0 0 Z " fill="#FFFFFF" transform="translate(330,90)"/>
<path d="M0 0 C4.95 0 9.9 0 15 0 C15 1.32 15 2.64 15 4 C10.05 4 5.1 4 0 4 C0 2.68 0 1.36 0 0 Z " fill="#EFEFEF" transform="translate(315,90)"/>
<path d="M0 0 C4.95 0 9.9 0 15 0 C15 1.32 15 2.64 15 4 C10.05 4 5.1 4 0 4 C0 2.68 0 1.36 0 0 Z " fill="#FFFFFF" transform="translate(300,90)"/>
<path d="M0 0 C4.95 0 9.9 0 15 0 C15 1.32 15 2.64 15 4 C10.05 4 5.1 4 0 4 C0 2.68 0 1.36 0 0 Z " fill="#EFEFEF" transform="translate(285,90)"/>
<path d="M0 0 C4.95 0 9.9 0 15 0 C15 1.32 15 2.64 15 4 C10.05 4 5.1 4 0 4 C0 2.68 0 1.36 0 0 Z " fill="#FFFFFF" transform="translate(270,90)"/>
<path d="M0 0 C4.95 0 9.9 0 15 0 C15 1.32 15 2.64 15 4 C10.05 4 5.1 4 0 4 C0 2.68 0 1.36 0 0 Z " fill="#EFEFEF" transform="translate(255,90)"/>
<path d="M0 0 C4.95 0 9.9 0 15 0 C15 1.32 15 2.64 15 4 C10.05 4 5.1 4 0 4 C0 2.68 0 1.36 0 0 Z " fill="#FFFFFF" transform="translate(240,90)"/>
<path d="M0 0 C4.95 0 9.9 0 15 0 C15 1.32 15 2.64 15 4 C10.05 4 5.1 4 0 4 C0 2.68 0 1.36 0 0 Z " fill="#EFEFEF" transform="translate(225,90)"/>
<path d="M0 0 C4.95 0 9.9 0 15 0 C15 1.32 15 2.64 15 4 C10.05 4 5.1 4 0 4 C0 2.68 0 1.36 0 0 Z " fill="#FFFFFF" transform="translate(210,90)"/>
<path d="M0 0 C4.95 0 9.9 0 15 0 C15 1.32 15 2.64 15 4 C10.05 4 5.1 4 0 4 C0 2.68 0 1.36 0 0 Z " fill="#EFEFEF" transform="translate(195,90)"/>
<path d="M0 0 C4.95 0 9.9 0 15 0 C15 1.32 15 2.64 15 4 C10.05 4 5.1 4 0 4 C0 2.68 0 1.36 0 0 Z " fill="#FFFFFF" transform="translate(180,90)"/>
<path d="M0 0 C4.95 0 9.9 0 15 0 C15 1.32 15 2.64 15 4 C10.05 4 5.1 4 0 4 C0 2.68 0 1.36 0 0 Z " fill="#EFEFEF" transform="translate(165,90)"/>
<path d="M0 0 C4.95 0 9.9 0 15 0 C15 1.32 15 2.64 15 4 C10.05 4 5.1 4 0 4 C0 2.68 0 1.36 0 0 Z " fill="#FFFFFF" transform="translate(150,90)"/>
<path d="M0 0 C4.95 0 9.9 0 15 0 C15 1.32 15 2.64 15 4 C10.05 4 5.1 4 0 4 C0 2.68 0 1.36 0 0 Z " fill="#EFEFEF" transform="translate(135,90)"/>
<path d="M0 0 C4.95 0 9.9 0 15 0 C15 1.32 15 2.64 15 4 C10.05 4 5.1 4 0 4 C0 2.68 0 1.36 0 0 Z " fill="#FFFFFF" transform="translate(120,90)"/>
<path d="M0 0 C4.95 0 9.9 0 15 0 C15 1.32 15 2.64 15 4 C10.05 4 5.1 4 0 4 C0 2.68 0 1.36 0 0 Z " fill="#FFFFFF" transform="translate(90,90)"/>
<path d="M0 0 C4.95 0 9.9 0 15 0 C15 1.32 15 2.64 15 4 C10.05 4 5.1 4 0 4 C0 2.68 0 1.36 0 0 Z " fill="#FFFFFF" transform="translate(60,90)"/>
<path d="M0 0 C4.95 0 9.9 0 15 0 C15 1.32 15 2.64 15 4 C10.05 4 5.1 4 0 4 C0 2.68 0 1.36 0 0 Z " fill="#FFFFFF" transform="translate(30,90)"/>
<path d="M0 0 C4.95 0 9.9 0 15 0 C15 1.32 15 2.64 15 4 C10.05 4 5.1 4 0 4 C0 2.68 0 1.36 0 0 Z " fill="#FFFFFF" transform="translate(0,90)"/>
<path d="M0 0 C2 2 2 2 2.22705078 4.06298828 C2.21657715 4.89040527 2.20610352 5.71782227 2.1953125 6.5703125 C2.18886719 7.46621094 2.18242187 8.36210937 2.17578125 9.28515625 C2.15902344 10.22230469 2.14226562 11.15945313 2.125 12.125 C2.11597656 13.06988281 2.10695313 14.01476562 2.09765625 14.98828125 C2.07404522 17.32577292 2.04111516 19.66276123 2 22 C1.34 22 0.68 22 0 22 C-0.33 22.66 -0.66 23.32 -1 24 C-1.02720824 21.31243045 -1.0469388 18.62514202 -1.0625 15.9375 C-1.07087891 15.18533203 -1.07925781 14.43316406 -1.08789062 13.65820312 C-1.10808341 8.99366882 -0.77595959 4.60076827 0 0 Z " fill="#F6F7F8" transform="translate(328,308)"/>
<path d="M0 0 C4.95 0 9.9 0 15 0 C15 1.32 15 2.64 15 4 C10.38 4 5.76 4 1 4 C0.67 2.68 0.34 1.36 0 0 Z " fill="#EFEFEF" transform="translate(90,45)"/>
<path d="M0 0 C2.31 0 4.62 0 7 0 C7 4.95 7 9.9 7 15 C6.01 15 5.02 15 4 15 C3.96261719 14.08476562 3.92523438 13.16953125 3.88671875 12.2265625 C3.82097656 11.03804687 3.75523437 9.84953125 3.6875 8.625 C3.62949219 7.44164062 3.57148438 6.25828125 3.51171875 5.0390625 C3.34285156 4.03617187 3.17398438 3.03328125 3 2 C2.01 1.34 1.02 0.68 0 0 Z " fill="#EEEEEE" transform="translate(203,0)"/>
<path d="M0 0 C0.99 0 1.98 0 3 0 C3 4.95 3 9.9 3 15 C2.01 15 1.02 15 0 15 C0 10.05 0 5.1 0 0 Z " fill="#EFEFEF" transform="translate(345,450)"/>
<path d="M0 0 C0.99 0 1.98 0 3 0 C3 4.95 3 9.9 3 15 C2.01 15 1.02 15 0 15 C0 10.05 0 5.1 0 0 Z " fill="#FFFFFF" transform="translate(345,435)"/>
<path d="M0 0 C0.99 0 1.98 0 3 0 C3 4.95 3 9.9 3 15 C2.01 15 1.02 15 0 15 C0 10.05 0 5.1 0 0 Z " fill="#EFEFEF" transform="translate(345,420)"/>
<path d="M0 0 C0.99 0 1.98 0 3 0 C3 4.95 3 9.9 3 15 C2.01 15 1.02 15 0 15 C0 10.05 0 5.1 0 0 Z " fill="#FFFFFF" transform="translate(345,405)"/>
<path d="M0 0 C0.99 0 1.98 0 3 0 C3 4.95 3 9.9 3 15 C2.01 15 1.02 15 0 15 C0 10.05 0 5.1 0 0 Z " fill="#EFEFEF" transform="translate(345,390)"/>
<path d="M0 0 C0.99 0 1.98 0 3 0 C3 4.95 3 9.9 3 15 C2.01 15 1.02 15 0 15 C0 10.05 0 5.1 0 0 Z " fill="#FFFFFF" transform="translate(345,375)"/>
<path d="M0 0 C0.99 0 1.98 0 3 0 C3 4.95 3 9.9 3 15 C2.01 15 1.02 15 0 15 C0 10.05 0 5.1 0 0 Z " fill="#EFEFEF" transform="translate(345,360)"/>
<path d="M0 0 C0.99 0 1.98 0 3 0 C3 4.95 3 9.9 3 15 C2.01 15 1.02 15 0 15 C0 10.05 0 5.1 0 0 Z " fill="#FFFFFF" transform="translate(345,345)"/>
<path d="M0 0 C0.99 0 1.98 0 3 0 C3 4.95 3 9.9 3 15 C2.01 15 1.02 15 0 15 C0 10.05 0 5.1 0 0 Z " fill="#EFEFEF" transform="translate(345,330)"/>
<path d="M0 0 C0.99 0 1.98 0 3 0 C3 4.95 3 9.9 3 15 C2.01 15 1.02 15 0 15 C0 10.05 0 5.1 0 0 Z " fill="#FFFFFF" transform="translate(345,315)"/>
<path d="M0 0 C0.99 0 1.98 0 3 0 C3 4.95 3 9.9 3 15 C2.01 15 1.02 15 0 15 C0 10.05 0 5.1 0 0 Z " fill="#EFEFEF" transform="translate(345,300)"/>
<path d="M0 0 C0.99 0 1.98 0 3 0 C3 4.95 3 9.9 3 15 C2.01 15 1.02 15 0 15 C0 10.05 0 5.1 0 0 Z " fill="#FFFFFF" transform="translate(345,285)"/>
<path d="M0 0 C0.99 0 1.98 0 3 0 C3 4.95 3 9.9 3 15 C2.01 15 1.02 15 0 15 C0 10.05 0 5.1 0 0 Z " fill="#EFEFEF" transform="translate(345,270)"/>
<path d="M0 0 C0.99 0 1.98 0 3 0 C3 4.95 3 9.9 3 15 C2.01 15 1.02 15 0 15 C0 10.05 0 5.1 0 0 Z " fill="#FFFFFF" transform="translate(345,255)"/>
<path d="M0 0 C0.99 0 1.98 0 3 0 C3 4.95 3 9.9 3 15 C2.01 15 1.02 15 0 15 C0 10.05 0 5.1 0 0 Z " fill="#EFEFEF" transform="translate(345,240)"/>
<path d="M0 0 C0.99 0 1.98 0 3 0 C3 4.95 3 9.9 3 15 C2.01 15 1.02 15 0 15 C0 10.05 0 5.1 0 0 Z " fill="#FFFFFF" transform="translate(345,225)"/>
<path d="M0 0 C0.99 0 1.98 0 3 0 C3 4.95 3 9.9 3 15 C2.01 15 1.02 15 0 15 C0 10.05 0 5.1 0 0 Z " fill="#EFEFEF" transform="translate(345,210)"/>
<path d="M0 0 C0.99 0 1.98 0 3 0 C3 4.95 3 9.9 3 15 C2.01 15 1.02 15 0 15 C0 10.05 0 5.1 0 0 Z " fill="#FFFFFF" transform="translate(345,195)"/>
<path d="M0 0 C0.99 0 1.98 0 3 0 C3 4.95 3 9.9 3 15 C2.01 15 1.02 15 0 15 C0 10.05 0 5.1 0 0 Z " fill="#EFEFEF" transform="translate(345,180)"/>
<path d="M0 0 C0.99 0 1.98 0 3 0 C3 4.95 3 9.9 3 15 C2.01 15 1.02 15 0 15 C0 10.05 0 5.1 0 0 Z " fill="#FFFFFF" transform="translate(345,165)"/>
<path d="M0 0 C0.99 0 1.98 0 3 0 C3 4.95 3 9.9 3 15 C2.01 15 1.02 15 0 15 C0 10.05 0 5.1 0 0 Z " fill="#EFEFEF" transform="translate(345,60)"/>
<path d="M0 0 C0.99 0 1.98 0 3 0 C3 4.95 3 9.9 3 15 C2.01 15 1.02 15 0 15 C0 10.05 0 5.1 0 0 Z " fill="#EFEFEF" transform="translate(345,30)"/>
<path d="M0 0 C0.99 0 1.98 0 3 0 C3 4.95 3 9.9 3 15 C2.01 15 1.02 15 0 15 C0 10.05 0 5.1 0 0 Z " fill="#EFEFEF" transform="translate(207,30)"/>
<path d="M0 0 C0.99 0 1.98 0 3 0 C3 4.95 3 9.9 3 15 C2.01 15 1.02 15 0 15 C0 10.05 0 5.1 0 0 Z " fill="#EFEFEF" transform="translate(345,0)"/>
<path d="M0 0 C4.95 0 9.9 0 15 0 C15 0.99 15 1.98 15 3 C10.05 3 5.1 3 0 3 C0 2.01 0 1.02 0 0 Z " fill="#EFEFEF" transform="translate(165,42)"/>
<path d="M0 0 C0.66 0 1.32 0 2 0 C1.67 6.93 1.34 13.86 1 21 C0.67 21 0.34 21 0 21 C-0.1963696 18.62543835 -0.38231294 16.25079981 -0.5625 13.875 C-0.61857422 13.20984375 -0.67464844 12.5446875 -0.73242188 11.859375 C-1.03625857 7.7271959 -0.85227531 4.05304259 0 0 Z " fill="#237FC1" transform="translate(340,153)"/>
<path d="M0 0 C1.22589844 0.29197266 1.22589844 0.29197266 2.4765625 0.58984375 C3.41628906 0.82380859 3.41628906 0.82380859 4.375 1.0625 C4.045 1.7225 3.715 2.3825 3.375 3.0625 C0.075 3.0625 -3.225 3.0625 -6.625 3.0625 C-6.625 2.0725 -6.625 1.0825 -6.625 0.0625 C-3.99249612 -1.25375194 -2.82320944 -0.68563658 0 0 Z " fill="#EFEFEF" transform="translate(81.625,461.9375)"/>
<path d="M0 0 C0.99 0 1.98 0 3 0 C3 5.28 3 10.56 3 16 C2.34 16.33 1.68 16.66 1 17 C1.33 12.71 1.66 8.42 2 4 C1.34 4 0.68 4 0 4 C0 2.68 0 1.36 0 0 Z " fill="#E1E8EC" transform="translate(345,90)"/>
<path d="M0 0 C1.98 0 3.96 0 6 0 C6 1.98 6 3.96 6 6 C4.35 6 2.7 6 1 6 C0.67 4.02 0.34 2.04 0 0 Z " fill="#EFEFEF" transform="translate(159,20)"/>
<path d="M0 0 C0 1.32 0 2.64 0 4 C-6.0546875 4.1953125 -6.0546875 4.1953125 -8 4 C-8.66 3.34 -9.32 2.68 -10 2 C-8.7090864 1.66376204 -7.41723903 1.33110751 -6.125 1 C-5.40570313 0.814375 -4.68640625 0.62875 -3.9453125 0.4375 C-2 0 -2 0 0 0 Z " fill="#E5EAEE" transform="translate(270,461)"/>
<path d="M0 0 C0.99 0 1.98 0 3 0 C3 2.64 3 5.28 3 8 C2.01 8 1.02 8 0 8 C0 5.36 0 2.72 0 0 Z " fill="#EFEFEF" transform="translate(345,480)"/>
<path d="M0 0 C1.65 0 3.3 0 5 0 C4.67 1.65 4.34 3.3 4 5 C2.68 5 1.36 5 0 5 C0 3.35 0 1.7 0 0 Z " fill="#EFEFEF" transform="translate(180,45)"/>
</svg>
