<?xml version="1.0" standalone="no"?>
<!DOCTYPE svg PUBLIC "-//W3C//DTD SVG 20010904//EN"
 "http://www.w3.org/TR/2001/REC-SVG-20010904/DTD/svg10.dtd">
<svg version="1.0" xmlns="http://www.w3.org/2000/svg"
 width="301.000000pt" height="167.000000pt" viewBox="0 0 301.000000 167.000000"
 preserveAspectRatio="xMidYMid meet">

<g transform="translate(0.000000,167.000000) scale(0.100000,-0.100000)"
fill="#000000" stroke="none">
<path d="M329 1177 c-189 -54 -303 -249 -255 -437 28 -111 106 -204 205 -246
48 -20 51 -18 51 26 0 38 -2 40 -30 40 -44 0 -77 19 -91 52 -6 16 -21 35 -31
43 -23 16 -16 37 10 28 9 -3 31 -21 48 -40 41 -43 89 -46 104 -7 13 34 13 34
-10 34 -28 0 -70 23 -97 52 -44 48 -52 149 -16 204 8 13 12 28 8 34 -4 6 -4
27 -1 46 8 38 28 44 74 20 34 -18 223 -15 268 4 48 20 64 9 64 -47 1 -26 7
-59 15 -73 19 -34 19 -114 -1 -156 -22 -45 -58 -73 -106 -80 -31 -6 -38 -10
-31 -23 4 -9 9 -51 11 -93 2 -53 7 -78 16 -78 29 0 118 55 156 96 23 25 54 71
68 102 23 49 27 70 27 147 0 78 -4 98 -28 151 -73 159 -263 248 -428 201z"/>
<path d="M1165 1055 c-80 -28 -125 -116 -125 -245 0 -126 43 -206 127 -239 38
-15 173 -10 216 7 l27 12 0 130 0 130 -85 0 -85 0 0 -45 c0 -45 0 -45 36 -45
l35 0 -3 -52 c-3 -52 -4 -53 -37 -56 -76 -8 -116 33 -127 130 -8 72 9 130 48
163 29 25 38 27 107 23 l75 -3 9 38 c11 45 10 46 -40 58 -56 13 -132 10 -178
-6z"/>
<path d="M1880 810 l0 -240 50 0 50 0 0 100 0 100 70 0 70 0 0 -99 0 -99 50
-4 50 -3 0 243 0 242 -50 0 -50 0 0 -90 0 -90 -70 0 -70 0 0 90 0 90 -50 0
-50 0 0 -240z"/>
<path d="M2630 810 l0 -240 35 0 c19 0 35 5 35 10 0 6 13 4 30 -5 16 -8 53
-15 83 -15 94 0 127 46 127 178 0 133 -54 183 -172 159 l-38 -8 0 81 0 80 -50
0 -50 0 0 -240z m192 -7 c13 -12 18 -30 18 -70 0 -70 -12 -93 -50 -93 -56 0
-60 6 -60 90 0 53 4 80 13 83 25 11 61 6 79 -10z"/>
<path d="M1477 1022 c-20 -22 -22 -63 -5 -80 20 -20 76 -15 88 7 15 29 12 56
-8 74 -24 22 -55 21 -75 -1z"/>
<path d="M1660 944 c0 -41 -3 -46 -30 -55 -25 -9 -30 -16 -30 -45 0 -31 3 -34
30 -34 l30 0 0 -99 c0 -93 1 -100 26 -125 23 -22 35 -26 85 -26 l59 0 0 39 c0
37 -2 40 -32 43 l-33 3 -3 83 -3 82 36 0 c35 0 35 0 35 45 0 45 0 45 -35 45
-35 0 -35 0 -35 45 l0 45 -50 0 -50 0 0 -46z"/>
<path d="M1467 894 c-4 -4 -7 -79 -7 -166 l0 -158 55 0 55 0 -2 163 -3 162
-45 3 c-25 2 -49 0 -53 -4z"/>
<path d="M2270 778 c0 -193 20 -224 137 -214 37 3 92 6 121 6 l52 -1 0 161 0
160 -50 0 -50 0 0 -115 c0 -105 -2 -115 -20 -125 -12 -6 -33 -10 -48 -8 l-27
3 -3 123 -3 122 -54 0 -55 0 0 -112z"/>
</g>
</svg>
