<?xml version="1.0" standalone="no"?>
<!DOCTYPE svg PUBLIC "-//W3C//DTD SVG 20010904//EN"
 "http://www.w3.org/TR/2001/REC-SVG-20010904/DTD/svg10.dtd">
<svg version="1.0" xmlns="http://www.w3.org/2000/svg"
 width="225.000000pt" height="225.000000pt" viewBox="0 0 225.000000 225.000000"
 preserveAspectRatio="xMidYMid meet">

<g transform="translate(0.000000,225.000000) scale(0.100000,-0.100000)"
fill="#000000" stroke="none">
<path d="M480 2100 l0 -150 50 0 50 0 0 50 0 50 45 0 45 0 0 -50 0 -50 50 0
50 0 0 150 0 150 -50 0 -50 0 0 -50 0 -50 -45 0 -45 0 0 50 0 50 -50 0 -50 0
0 -150z"/>
<path d="M820 2200 l0 -50 45 0 45 0 0 -100 0 -100 48 0 47 0 0 97 0 98 48 3
47 3 0 50 0 49 -140 0 -140 0 0 -50z"/>
<path d="M1140 2100 l0 -150 50 0 50 0 0 73 0 72 31 -47 c17 -27 35 -48 39
-48 4 0 22 21 39 48 l31 47 0 -72 0 -73 50 0 50 0 0 150 0 150 -52 0 -53 0
-28 -50 c-16 -28 -31 -50 -35 -50 -5 0 -21 23 -37 50 l-29 50 -53 0 -53 0 0
-150z"/>
<path d="M1530 2100 l0 -150 126 0 125 0 -3 48 -3 47 -72 3 -73 3 0 99 0 100
-50 0 -50 0 0 -150z"/>
<path d="M335 1760 c3 -25 12 -117 19 -205 71 -817 121 -1361 126 -1368 4 -4
78 -27 166 -51 87 -24 227 -63 309 -86 83 -23 159 -42 170 -42 26 0 638 171
646 180 5 6 57 581 125 1367 7 88 16 180 19 205 l6 45 -796 0 -796 0 6 -45z
m1290 -337 c-3 -32 -8 -79 -11 -105 l-6 -48 -380 0 -381 0 6 -67 c4 -38 7 -80
7 -95 l0 -28 365 0 365 0 0 -29 c0 -15 -6 -93 -14 -172 -8 -79 -20 -207 -27
-284 l-11 -140 -207 -57 -207 -57 -199 56 c-110 30 -203 58 -207 62 -8 7 -36
310 -29 316 2 3 48 5 102 5 l98 0 5 -52 c3 -29 7 -66 8 -83 3 -29 6 -30 108
-59 l105 -29 110 28 c61 15 112 29 114 31 2 2 9 60 15 129 l11 125 -345 0
-346 0 -23 268 c-12 147 -25 284 -28 305 l-6 37 507 0 507 0 -6 -57z"/>
</g>
</svg>
