<?xml version="1.0" encoding="UTF-8"?>
<svg version="1.1" xmlns="http://www.w3.org/2000/svg" width="216" height="234">
<path d="M0 0 C71.28 0 142.56 0 216 0 C216 77.22 216 154.44 216 234 C144.72 234 73.44 234 0 234 C0 156.78 0 79.56 0 0 Z " fill="#D6BA32" transform="translate(0,0)"/>
<path d="M0 0 C71.28 0 142.56 0 216 0 C216 77.22 216 154.44 216 234 C144.72 234 73.44 234 0 234 C0 156.78 0 79.56 0 0 Z M25 46 C25.99 57.88 26.98 69.76 28 82 C28.38800781 86.74890625 28.77601562 91.4978125 29.17578125 96.390625 C31.38030078 123.33848008 33.71629471 150.2687952 36.25 177.1875 C36.31563267 177.88553238 36.38126534 178.58356476 36.44888687 179.30274963 C36.88558845 183.94553336 37.32478961 188.58807535 37.765625 193.23046875 C37.87583481 194.39343979 37.98604462 195.55641083 38.09959412 196.75462341 C38.6814442 202.84306687 39.30588726 208.92330743 40 215 C50.34124376 218.51269089 60.8105638 221.56936719 71.29150391 224.63500977 C73.67866449 225.33613044 76.0640985 226.04315697 78.44775391 226.75610352 C81.91686094 227.79310386 85.39120336 228.81054278 88.8671875 229.82421875 C89.91961639 230.14291428 90.97204529 230.4616098 92.05636597 230.78996277 C102.8948652 233.90505036 111.97813175 233.48551588 122.75 230.4375 C123.73371582 230.1701001 124.71743164 229.9027002 125.73095703 229.62719727 C135.65055181 226.89714199 145.48218758 223.87386352 155.30810547 220.82714844 C161.85168131 218.81647957 168.42906123 216.91881139 175 215 C176.4151301 204.99883056 177.52606275 195.02102785 178.3671875 184.953125 C178.48759456 183.54473967 178.60835709 182.1363847 178.72944641 180.72805786 C178.98373903 177.76407326 179.23605332 174.79993051 179.48666382 171.83563232 C180.07749639 164.84954129 180.67903738 157.86436885 181.2803936 150.87917709 C181.41374024 149.32994484 181.54696607 147.78070218 181.68007088 146.23144913 C182.79359701 133.27395475 183.96365352 120.32257491 185.1875 107.375 C186.34303804 95.10892694 187.48153727 82.84185675 188.54824829 70.56768799 C188.68033453 69.05030456 188.81341386 67.53300716 188.94760132 66.01580811 C189.12961775 63.95350141 189.30761211 61.89088778 189.484375 59.828125 C189.58459961 58.6721582 189.68482422 57.51619141 189.78808594 56.32519531 C190.00702887 52.88970826 190 49.44245658 190 46 C135.55 46 81.1 46 25 46 Z " fill="#FDFDFC" transform="translate(0,0)"/>
<path d="M0 0 C22.11 0 44.22 0 67 0 C65.84542953 20.78226846 65.84542953 20.78226846 65.3515625 27.19921875 C65.29468262 27.95386414 65.23780273 28.70850952 65.17919922 29.48602295 C64.99703447 31.88672047 64.81147292 34.2871335 64.625 36.6875 C64.5596405 37.53458527 64.49428101 38.38167053 64.42694092 39.25442505 C63.50421043 51.16897767 62.47861151 63.06746165 61.26611328 74.95654297 C60.47623959 82.78987637 59.77069345 90.62630919 59.12167358 98.47270203 C58.69563704 103.62297807 58.25976134 108.77241033 57.82440186 113.92190552 C57.60854127 116.51075017 57.39762493 119.10001194 57.19171143 121.68966675 C56.9007563 125.34245367 56.59269752 128.99344273 56.28125 132.64453125 C56.1968869 133.76072845 56.1125238 134.87692566 56.02560425 136.02694702 C55.93529938 137.04906281 55.84499451 138.07117859 55.75195312 139.12426758 C55.67883911 140.02115799 55.6057251 140.9180484 55.53039551 141.84211731 C55 144 55 144 52 146 C50.23419828 146.57153286 48.44786929 147.08089449 46.65234375 147.55078125 C45.58032715 147.8348584 44.50831055 148.11893555 43.40380859 148.41162109 C42.25992676 148.70891113 41.11604492 149.00620117 39.9375 149.3125 C37.57401651 149.9354311 35.21073599 150.5591328 32.84765625 151.18359375 C31.10186279 151.64354736 31.10186279 151.64354736 29.32080078 152.11279297 C26.39212859 152.89523634 23.47355099 153.7033337 20.55859375 154.53515625 C19.75752197 154.76356201 18.9564502 154.99196777 18.13110352 155.22729492 C16.68108795 155.6435801 15.23224269 156.0639756 13.78491211 156.48950195 C9.09182815 157.82897789 4.96342723 158.3795716 0 159 C0 106.53 0 54.06 0 0 Z " fill="#FEDA3E" transform="translate(108,61)"/>
<path d="M0 0 C17.49 0 34.98 0 53 0 C52 17 52 17 51 20 C39.45 20 27.9 20 16 20 C16 29.57 16 39.14 16 49 C23.11993711 48.02015325 23.11993711 48.02015325 30.23779297 47.02539062 C36.53419984 46.18155379 42.64919656 45.80984564 49 46 C48.50399261 57.44732844 47.8567155 68.8818583 47.0625 80.3125 C46.98789551 81.46210205 46.91329102 82.6117041 46.83642578 83.79614258 C46.75763184 84.89079834 46.67883789 85.9854541 46.59765625 87.11328125 C46.53070557 88.08048096 46.46375488 89.04768066 46.39477539 90.04418945 C46.26449951 91.01960693 46.13422363 91.99502441 46 93 C45.84974365 94.21268555 45.6994873 95.42537109 45.54467773 96.67480469 C44 100 44 100 42.20692444 101.02970886 C39.72071659 101.88285416 37.25105731 102.5087534 34.6875 103.08984375 C33.76283936 103.32409561 32.83817871 103.55834747 31.88549805 103.79969788 C28.92992997 104.5410059 25.96599924 105.23923633 23 105.9375 C21.00192417 106.4328118 19.00451652 106.93082744 17.0078125 107.43164062 C13.35924546 108.33787513 9.70897918 109.23470434 6.05078125 110.10131836 C5.31512939 110.27561874 4.57947754 110.44991913 3.8215332 110.62950134 C2 111 2 111 0 111 C0 104.4 0 97.8 0 91 C10.63795551 88.168314 21.24990976 85.37389784 32 83 C31.98839844 82.26394531 31.97679687 81.52789062 31.96484375 80.76953125 C31.95582031 79.79371094 31.94679687 78.81789063 31.9375 77.8125 C31.92589844 76.84957031 31.91429687 75.88664062 31.90234375 74.89453125 C31.99531701 72.13880371 32.42732362 69.68900295 33 67 C32.17798096 67.15146484 31.35596191 67.30292969 30.5090332 67.45898438 C27.44390942 68.02159093 24.37809584 68.58022917 21.31176758 69.13623047 C19.33814901 69.49533313 17.36535632 69.8589652 15.39257812 70.22265625 C14.14541016 70.44824219 12.89824219 70.67382812 11.61328125 70.90625 C9.89298706 71.22045898 9.89298706 71.22045898 8.13793945 71.54101562 C5 72 5 72 0 72 C0 48.24 0 24.48 0 0 Z " fill="#FEFDFA" transform="translate(114,82)"/>
<path d="M0 0 C5.28 0 10.56 0 16 0 C16 36.63 16 73.26 16 111 C-8.29521277 105.21542553 -8.29521277 105.21542553 -18.6875 102.25 C-19.76837891 101.94707031 -20.84925781 101.64414063 -21.96289062 101.33203125 C-29.71651786 99.14174107 -29.71651786 99.14174107 -32 98 C-32 91.73 -32 85.46 -32 79 C-21.08995601 80.3637555 -10.5551504 83.92141447 0 87 C0 58.29 0 29.58 0 0 Z " fill="#EAEAE8" transform="translate(85,82)"/>
<path d="M0 0 C2.7225 -0.0825 5.445 -0.165 8.25 -0.25 C9.10110352 -0.28641602 9.95220703 -0.32283203 10.82910156 -0.36035156 C16.41862037 -0.44243355 16.41862037 -0.44243355 19.484375 1.890625 C22.53433431 6.13541372 22.62794635 9.88180714 22 15 C20.37854397 18.18500291 19.02671736 20.22111096 16.1875 22.375 C13.09681682 23.25805234 10.1927746 23.12279902 7 23 C7 25.64 7 28.28 7 31 C4.69 31 2.38 31 0 31 C0 20.77 0 10.54 0 0 Z " fill="#181818" transform="translate(175,9)"/>
<path d="M0 0 C0 2.31 0 4.62 0 7 C-1.5778125 6.505 -1.5778125 6.505 -3.1875 6 C-7.57925854 4.75496971 -7.57925854 4.75496971 -12 5 C-13.8624438 7.40858714 -13.8624438 7.40858714 -15 10 C-13.205625 10.1546875 -13.205625 10.1546875 -11.375 10.3125 C-7.42105962 10.81024781 -4.42316941 11.88089513 -1 14 C1.32536063 17.48804095 1.33457898 18.90140754 1 23 C0.10895151 26.11866971 -0.85372105 26.90010218 -3.5625 28.75 C-9.94577725 31.07119173 -15.72278295 30.57526853 -22 28 C-22.33 25.69 -22.66 23.38 -23 21 C-22.195625 21.33 -21.39125 21.66 -20.5625 22 C-16.26195205 23.20717135 -12.43033819 23.17721353 -8 23 C-7.34 21.68 -6.68 20.36 -6 19 C-7.175625 18.9175 -8.35125 18.835 -9.5625 18.75 C-14.18138042 18.18291326 -17.15462438 16.58974277 -21 14 C-22.56935594 10.86128812 -22.35201103 8.46144178 -22 5 C-16.05097268 -2.20145412 -8.75396043 -2.33438945 0 0 Z " fill="#141414" transform="translate(118,2)"/>
<path d="M0 0 C1.09441406 -0.07347656 1.09441406 -0.07347656 2.2109375 -0.1484375 C5.89575202 0.65053523 8.46365131 2.34013921 10.625 5.375 C11.33927522 8.51722609 11.19709016 11.48604824 11 14.6875 C10.97292969 15.52345703 10.94585937 16.35941406 10.91796875 17.22070312 C10.84759563 19.27325247 10.73998322 21.32446591 10.625 23.375 C7.8753666 23.65116405 5.12866342 23.89664742 2.375 24.125 C1.59769531 24.20621094 0.82039063 24.28742187 0.01953125 24.37109375 C-5.75824653 24.81553819 -5.75824653 24.81553819 -8.890625 22.578125 C-10.90131574 19.59383663 -10.96317481 17.90404887 -10.375 14.375 C-7.31916393 9.72481468 -2.46343187 8.87159761 2.625 7.375 C-1.005 7.045 -4.635 6.715 -8.375 6.375 C-8.375 4.725 -8.375 3.075 -8.375 1.375 C-5.56302833 0.59884493 -2.91570505 0.13299707 0 0 Z " fill="#191919" transform="translate(32.375,7.625)"/>
<path d="M0 0 C0.94230469 -0.03738281 1.88460937 -0.07476563 2.85546875 -0.11328125 C6.92935722 0.47331564 8.84893092 1.42726314 11.8125 4.3125 C12.54651196 7.59108676 12.37982217 10.72398437 12.1875 14.0625 C12.16042969 14.95066406 12.13335937 15.83882812 12.10546875 16.75390625 C12.03486624 18.94258395 11.93635527 21.12629568 11.8125 23.3125 C9.41721406 23.56257388 7.02370675 23.78802126 4.625 24 C3.95146484 24.07283203 3.27792969 24.14566406 2.58398438 24.22070312 C-0.75656463 24.49772426 -3.02458754 24.38077631 -6.1328125 23.078125 C-8.1875 21.3125 -8.1875 21.3125 -8.875 17.375 C-8.63833739 13.90181628 -8.30013336 13.42513336 -5.6875 10.8125 C-1.41635565 8.98200957 1.21703192 8.99557117 5.8125 9.3125 C5.8125 8.6525 5.8125 7.9925 5.8125 7.3125 C1.5225 6.9825 -2.7675 6.6525 -7.1875 6.3125 C-5.95554124 0.15270619 -5.95554124 0.15270619 0 0 Z " fill="#191919" transform="translate(79.1875,7.6875)"/>
<path d="M0 0 C4.62 0 9.24 0 14 0 C14.05400523 3.72936099 14.09367794 7.45793778 14.125 11.1875 C14.14175781 12.24259766 14.15851562 13.29769531 14.17578125 14.38476562 C14.18222656 15.40634766 14.18867188 16.42792969 14.1953125 17.48046875 C14.20578613 18.41785889 14.21625977 19.35524902 14.22705078 20.32104492 C13.88870431 24.31316944 12.99033525 27.10250868 10 29.8125 C5.67237503 31.52551822 1.59742082 31.24102983 -3 31 C-3.33 29.02 -3.66 27.04 -4 25 C-3.04287109 24.92652344 -3.04287109 24.92652344 -2.06640625 24.8515625 C-1.24011719 24.77679687 -0.41382813 24.70203125 0.4375 24.625 C1.26121094 24.55539063 2.08492188 24.48578125 2.93359375 24.4140625 C3.61550781 24.27742188 4.29742187 24.14078125 5 24 C6.585869 20.828262 6.37866445 17.36486178 6.5625 13.875 C6.60568359 13.12089844 6.64886719 12.36679688 6.69335938 11.58984375 C6.7994832 9.72678112 6.90025001 7.86341476 7 6 C4.69 6 2.38 6 0 6 C0 4.02 0 2.04 0 0 Z " fill="#161616" transform="translate(4,1)"/>
<path d="M0 0 C2.31 0 4.62 0 7 0 C7 2.31 7 4.62 7 7 C9.31 7 11.62 7 14 7 C14 8.65 14 10.3 14 12 C11.69 12 9.38 12 7 12 C7.33 16.29 7.66 20.58 8 25 C9.98 25 11.96 25 14 25 C13.125 28.875 13.125 28.875 12 30 C9.78515625 30.01953125 9.78515625 30.01953125 7.0625 29.8125 C6.16660156 29.75707031 5.27070313 29.70164062 4.34765625 29.64453125 C2 29 2 29 0.71484375 27.3203125 C-0.14616524 24.52556201 -0.35270442 21.98263485 -0.5 19.0625 C-0.70897528 14.93001375 -1.2758892 11.7749684 -3 8 C-2.34 7.34 -1.68 6.68 -1 6 C-0.60235737 4.01178687 -0.26224651 2.01055661 0 0 Z " fill="#1B1B1B" transform="translate(201,2)"/>
<path d="M0 0 C2.31 0.33 4.62 0.66 7 1 C8.32 4.3 9.64 7.6 11 11 C12.66832577 8.49751135 13.62381674 6.58850813 14.625 3.8125 C14.88539062 3.09707031 15.14578125 2.38164062 15.4140625 1.64453125 C15.60742188 1.10183594 15.80078125 0.55914062 16 0 C18.31 0 20.62 0 23 0 C21.85660291 3.45914367 20.70987009 6.91717232 19.5625 10.375 C19.23701172 11.35984375 18.91152344 12.3446875 18.57617188 13.359375 C18.26357422 14.30039062 17.95097656 15.24140625 17.62890625 16.2109375 C17.34088135 17.08024902 17.05285645 17.94956055 16.75610352 18.84521484 C16 21 16 21 15 23 C11.75 23 11.75 23 8 22 C3.55097538 15.51713555 1.98837885 7.53045606 0 0 Z " fill="#131313" transform="translate(46,9)"/>
<path d="M0 0 C0.99 0.66 1.98 1.32 3 2 C3 3.65 3 5.3 3 7 C-0.3 6.67 -3.6 6.34 -7 6 C-9.31332486 9.46998729 -9.33957563 10.92509248 -9 15 C-8.01 16.485 -8.01 16.485 -7 18 C-3.7 17.67 -0.4 17.34 3 17 C3 18.98 3 20.96 3 23 C-1.06827866 24.35609289 -4.74629346 24.5298986 -9 24 C-12.15689734 22.39285226 -14.19415756 21.02561766 -16.375 18.25 C-17.52619007 14.10571576 -18.13918169 10.06958905 -16.01953125 6.21875 C-11.19224576 0.15865006 -7.36650705 -0.46771473 0 0 Z " fill="#131313" transform="translate(138,8)"/>
<path d="M0 0 C4.62 0 9.24 0 14 0 C14 1.98 14 3.96 14 6 C11.69 6 9.38 6 7 6 C7 11.28 7 16.56 7 22 C4.69 22 2.38 22 0 22 C0 14.74 0 7.48 0 0 Z " fill="#161616" transform="translate(145,9)"/>
<path d="M0 0 C1.98 0 3.96 0 6 0 C6 7.26 6 14.52 6 22 C4.02 22 2.04 22 0 22 C0 14.74 0 7.48 0 0 Z " fill="#0B0B0B" transform="translate(163,9)"/>
<path d="M0 0 C-0.33 0.99 -0.66 1.98 -1 3 C-2.65 3 -4.3 3 -6 3 C-6 4.98 -6 6.96 -6 9 C-4.02 9 -2.04 9 0 9 C-1.485 11.475 -1.485 11.475 -3 14 C-10.75 13.25 -10.75 13.25 -13 11 C-13.67276051 3.93601463 -13.67276051 3.93601463 -11.5625 1 C-7.73363249 -0.4941922 -4.05973579 -0.23421553 0 0 Z " fill="#101010" transform="translate(84,18)"/>
<path d="M0 0 C-0.99 0.66 -1.98 1.32 -3 2 C-2.01 2.66 -1.02 3.32 0 4 C-1.65 4.33 -3.3 4.66 -5 5 C-5 6.65 -5 8.3 -5 10 C-1.535 11.485 -1.535 11.485 2 13 C2 13.33 2 13.66 2 14 C-7.99349805 15.58517555 -7.99349805 15.58517555 -11.6875 13.4375 C-13.37990259 10.29446662 -13.58703691 8.52222146 -13 5 C-11.19804442 2.61884441 -9.85041268 1.32919201 -7.0625 0.25 C-4.68971323 -0.03761052 -2.38781133 -0.06632809 0 0 Z " fill="#131313" transform="translate(35,17)"/>
<path d="M0 0 C2.31 0 4.62 0 7 0 C7.08086147 1.79093191 7.13912702 3.58289628 7.1875 5.375 C7.22230469 6.37273438 7.25710937 7.37046875 7.29296875 8.3984375 C7.19628906 9.25695313 7.09960938 10.11546875 7 11 C4 13 4 13 0 13 C0 8.71 0 4.42 0 0 Z " fill="#FBFBFB" transform="translate(182,14)"/>
<path d="M0 0 C2.64 0 5.28 0 8 0 C8 1.98 8 3.96 8 6 C5.36 6 2.72 6 0 6 C0 4.02 0 2.04 0 0 Z " fill="#404040" transform="translate(162,0)"/>
<path d="M0 0 C1.4540625 0.0309375 1.4540625 0.0309375 2.9375 0.0625 C2.9375 2.0425 2.9375 4.0225 2.9375 6.0625 C0.6275 6.0625 -1.6825 6.0625 -4.0625 6.0625 C-4.105221 4.39638095 -4.10313832 2.72867115 -4.0625 1.0625 C-3.0625 0.0625 -3.0625 0.0625 0 0 Z " fill="#E0E0E0" transform="translate(33.0625,20.9375)"/>
<path d="M0 0 C1.98 0 3.96 0 6 0 C6 1.98 6 3.96 6 6 C4.02 6 2.04 6 0 6 C0 4.02 0 2.04 0 0 Z " fill="#F0F0F0" transform="translate(78,21)"/>
</svg>
