<?xml version="1.0" encoding="UTF-8"?>
<svg version="1.1" xmlns="http://www.w3.org/2000/svg" width="225" height="225">
<path d="M0 0 C74.25 0 148.5 0 225 0 C225 74.25 225 148.5 225 225 C150.75 225 76.5 225 0 225 C0 150.75 0 76.5 0 0 Z " fill="#575757" transform="translate(0,0)"/>
<path d="M0 0 C13.46888366 1.66211756 22.30030488 8.97137508 31 19 C39.76484186 30.83162917 43.19380335 45.45645255 44 60 C43.67 60.33 43.34 60.66 43 61 C43.020625 62.19625 43.04125 63.3925 43.0625 64.625 C43.12096366 68.72476449 42.21385224 72.072831 41 76 C40.63049535 78.32787927 40.28647533 80.66045145 40 83 C39.34 83 38.68 83 38 83 C38.2475 83.53625 38.495 84.0725 38.75 84.625 C39.13800156 88.31101482 37.18644098 90.17048815 35 93 C34.67 93 34.34 93 34 93 C33.34 95.31 32.68 97.62 32 100 C31.278125 100.04125 30.55625 100.0825 29.8125 100.125 C25.95608559 101.32477337 24.34770316 103.91091689 22 107 C19.40547762 109.90900994 17.86469377 111.3766623 14 112 C13.01 112.33 12.02 112.66 11 113 C3.97227154 109.78409502 -2.48025597 105.39429531 -8 100 C-8 99.34 -8 98.68 -8 98 C-9.485 97.505 -9.485 97.505 -11 97 C-19.59374442 84.78876563 -23.20751723 71.96181181 -24.31787109 57.18286133 C-24.48241253 55.11594174 -24.73344855 53.05625406 -25 51 C-25.66 50.67 -26.32 50.34 -27 50 C-26.67 49.34 -26.34 48.68 -26 48 C-25.34 48 -24.68 48 -24 48 C-23.47120316 45.20962572 -22.95165912 42.41807402 -22.4375 39.625 C-22.28603516 38.8309375 -22.13457031 38.036875 -21.97851562 37.21875 C-20.99231846 33.01884623 -20.99231846 33.01884623 -22 29 C-22 27.15953612 -20.82771823 25.60370406 -20 24 C-18.35 24 -16.7 24 -15 24 C-14.7525 23.154375 -14.505 22.30875 -14.25 21.4375 C-12.81563272 17.49298999 -11.38052192 14.46876052 -9 11 C-7.33985384 10.63557767 -5.67293936 10.30027117 -4 10 C-1.98073202 6.7547479 -0.8645261 3.69024567 0 0 Z " fill="#FDFDFD" transform="translate(103,56)"/>
<path d="M0 0 C0.33 0 0.66 0 1 0 C1.15855469 1.12535156 1.31710938 2.25070313 1.48046875 3.41015625 C4.75433439 25.4754783 12.46323009 46.53842236 28 63 C29.29164062 64.37478516 29.29164062 64.37478516 30.609375 65.77734375 C35.31208095 70.69633894 35.31208095 70.69633894 40.796875 74.65625 C41.88742188 75.32140625 41.88742188 75.32140625 43 76 C43 76.66 43 77.32 43 78 C43.87591797 78.41572266 43.87591797 78.41572266 44.76953125 78.83984375 C46.88988086 79.94272262 48.73471773 81.19104914 50.6875 82.5625 C55.00629209 85.32782827 58.94028779 85.87116474 64 86 C64 84.02 64 82.04 64 80 C67.27839871 81.79783155 70.07377304 83.87246549 72.9375 86.25 C82.83695143 94.00238497 93.95322757 98.05238547 106 101 C106 101.33 106 101.66 106 102 C71.02 102 36.04 102 0 102 C0 68.34 0 34.68 0 0 Z " fill="#FDFDFD" transform="translate(0,123)"/>
<path d="M0 0 C35.31 0 70.62 0 107 0 C107 33.33 107 66.66 107 101 C106.67 101 106.34 101 106 101 C105.84144531 99.94683594 105.68289062 98.89367187 105.51953125 97.80859375 C100.94326769 68.87741496 87.63199898 42.46422726 63.55566406 24.89526367 C55.02683056 18.48396429 55.02683056 18.48396429 45.1875 14.8125 C44.39730469 14.65394531 43.60710937 14.49539063 42.79296875 14.33203125 C42.20128906 14.22246094 41.60960937 14.11289063 41 14 C40.67 14.99 40.34 15.98 40 17 C40.66 17.66 41.32 18.32 42 19 C37.55384615 19 37.55384615 19 34.875 16.375 C24.95209987 7.42327733 13.02018426 3.14649459 0 1 C0 0.67 0 0.34 0 0 Z " fill="#FDFDFD" transform="translate(118,0)"/>
<path d="M0 0 C0.33 0 0.66 0 1 0 C1 34.32 1 68.64 1 104 C-33.32 104 -67.64 104 -103 104 C-103 103.67 -103 103.34 -103 103 C-102.23558594 102.90203125 -101.47117187 102.8040625 -100.68359375 102.703125 C-77.9958291 99.53612055 -57.68250683 91.74047739 -40 77 C-39.19691406 76.33226562 -38.39382812 75.66453125 -37.56640625 74.9765625 C-30.93526218 69.24543331 -25.36189961 62.89387093 -20 56 C-19.44570312 55.29617187 -18.89140625 54.59234375 -18.3203125 53.8671875 C-7.03132835 38.30669584 -2.00150133 18.80357827 0 0 Z " fill="#FCFCFC" transform="translate(224,121)"/>
<path d="M0 0 C33.33 0 66.66 0 101 0 C101 0.33 101 0.66 101 1 C99.8140625 1.21914063 98.628125 1.43828125 97.40625 1.6640625 C75.91778536 5.79912311 56.61133743 13.36957163 40 28 C39.17113281 28.69738281 38.34226563 29.39476563 37.48828125 30.11328125 C16.42332503 48.274951 4.41704641 73.62727717 1 101 C0.67 101 0.34 101 0 101 C0 67.67 0 34.34 0 0 Z " fill="#FDFDFD" transform="translate(0,0)"/>
<path d="M0 0 C3.27839871 1.79783155 6.07377304 3.87246549 8.9375 6.25 C17.44598593 12.94334227 27.50143108 17.46002365 38 20 C38 20.33 38 20.66 38 21 C21.49885194 20.31388158 6.50668093 14.5323151 -8 7 C-5.10765685 6.17361624 -3.11257569 6 0 6 C0 4.02 0 2.04 0 0 Z " fill="#A5A5A5" transform="translate(64,203)"/>
<path d="M0 0 C1.3303125 0.37125 1.3303125 0.37125 2.6875 0.75 C2.0275 2.73 1.3675 4.71 0.6875 6.75 C-0.9625 6.75 -2.6125 6.75 -4.3125 6.75 C-4.5290625 7.61625 -4.5290625 7.61625 -4.75 8.5 C-5.27083333 10.58333333 -5.79166667 12.66666667 -6.3125 14.75 C-7.385 14.770625 -8.4575 14.79125 -9.5625 14.8125 C-13.24199141 15.34081845 -13.24199141 15.34081845 -14.66796875 17.375 C-15.64156795 19.11834009 -16.48622659 20.9321985 -17.3125 22.75 C-17.910625 22.585 -18.50875 22.42 -19.125 22.25 C-21.42594336 21.6385876 -21.42594336 21.6385876 -24.3125 21.75 C-19.27071388 15.42776027 -14.24230084 9.26157811 -8.3125 3.75 C-7.466875 2.925 -6.62125 2.1 -5.75 1.25 C-3.3125 -0.25 -3.3125 -0.25 0 0 Z " fill="#060606" transform="translate(45.3125,25.25)"/>
<path d="M0 0 C-0.1328125 1.81640625 -0.1328125 1.81640625 -1 4 C-12.83019104 11.2501641 -30.20959479 16.13036108 -44 15 C-43.39800781 14.71382812 -42.79601562 14.42765625 -42.17578125 14.1328125 C-39.80509168 12.97514837 -39.80509168 12.97514837 -37.1875 10.875 C-33.47544948 8.69144087 -31.23340301 8.66132776 -27 9 C-27 9.66 -27 10.32 -27 11 C-26.34 11 -25.68 11 -25 11 C-24.67 9.68 -24.34 8.36 -24 7 C-22.7625 7.20625 -21.525 7.4125 -20.25 7.625 C-17.6806217 7.93423491 -16.09337666 8.02394273 -13.5625 7.375 C-11.40264086 5.47432396 -11.29431584 3.79600049 -11 1 C-6.87831311 -0.62950412 -4.29299643 -1.26264601 0 0 Z " fill="#111111" transform="translate(164,209)"/>
<path d="M0 0 C5.89118712 -0.33034694 10.60691977 0.79310777 16.1875 2.625 C17.01741455 2.89135254 17.8473291 3.15770508 18.70239258 3.43212891 C25.49168213 5.68095345 31.75893511 8.48706527 38 12 C34.98968256 12.93423645 34.13349732 13.04449911 31 12 C30.67 12.99 30.34 13.98 30 15 C30.66 15.66 31.32 16.32 32 17 C27.55384615 17 27.55384615 17 24.875 14.375 C17.56007497 7.7760038 9.30622014 4.00771373 0 1 C0 0.67 0 0.34 0 0 Z " fill="#ABABAB" transform="translate(128,2)"/>
<path d="M0 0 C0.66 0.33 1.32 0.66 2 1 C1.67 1.556875 1.34 2.11375 1 2.6875 C-0.1309601 5.30284522 -0.15662974 7.1806646 0 10 C-2.16874252 9.49396008 -3.99967627 9.00016187 -6 8 C-6 8.66 -6 9.32 -6 10 C-6.99 10 -7.98 10 -9 10 C-9.144375 10.94875 -9.28875 11.8975 -9.4375 12.875 C-10 16 -10 16 -11 18 C-11.9590625 18.12375 -11.9590625 18.12375 -12.9375 18.25 C-13.618125 18.4975 -14.29875 18.745 -15 19 C-16.3045656 21.99615946 -16.3045656 21.99615946 -17 25 C-17.66 24.67 -18.32 24.34 -19 24 C-21.62387135 25.39092892 -21.62387135 25.39092892 -24 27 C-19.96957036 15.75935451 -10.59866853 5.4838882 0 0 Z " fill="#C4C4C4" transform="translate(72,62)"/>
<path d="M0 0 C0 3.42085146 -0.78105603 5.81720186 -2 9 C-2.66 9.66 -3.32 10.32 -4 11 C-3.01 12.485 -3.01 12.485 -2 14 C-2.5775 14.12375 -3.155 14.2475 -3.75 14.375 C-6.10280066 15.02855574 -7.95342262 15.65913896 -10 17 C-10.80528889 19.05000871 -10.80528889 19.05000871 -11 21 C-11.33 20.67 -11.66 20.34 -12 20 C-12.66 20.99 -13.32 21.98 -14 23 C-14.66 23 -15.32 23 -16 23 C-16.2475 23.763125 -16.495 24.52625 -16.75 25.3125 C-18.10995558 28.2364045 -19.31585826 29.30004356 -22 31 C-22.33 30.34 -22.66 29.68 -23 29 C-23.66 29.33 -24.32 29.66 -25 30 C-27.125 29.0625 -27.125 29.0625 -29 28 C-28.31035156 27.5875 -27.62070313 27.175 -26.91015625 26.75 C-20.99912177 23.11743011 -15.80239747 19.29270066 -10.77734375 14.50390625 C-9 13 -9 13 -7 13 C-6.95875 12.34 -6.9175 11.68 -6.875 11 C-5.5948343 6.61086045 -2.85190633 3.51473471 0 0 Z " fill="#363636" transform="translate(177,137)"/>
<path d="M0 0 C1.258125 -0.04125 2.51625 -0.0825 3.8125 -0.125 C4.52019531 -0.14820313 5.22789063 -0.17140625 5.95703125 -0.1953125 C8 0 8 0 11 2 C10.443125 2.44988281 9.88625 2.89976563 9.3125 3.36328125 C3.1193978 8.58348057 -1.47940115 14.29916682 -6 21 C-6.66 20.34 -7.32 19.68 -8 19 C-7.01 17.02 -6.02 15.04 -5 13 C-5.99 12.67 -6.98 12.34 -8 12 C-7.34 10.68 -6.68 9.36 -6 8 C-4.35 8 -2.7 8 -1 8 C-0.17361624 5.10765685 0 3.11257569 0 0 Z " fill="#2F2F2F" transform="translate(56,64)"/>
<path d="M0 0 C11.06261212 4.13158638 21.93480944 12.57974592 29 22 C27.68 22.99 26.36 23.98 25 25 C24.566875 23.824375 24.566875 23.824375 24.125 22.625 C23.15087746 19.90328368 23.15087746 19.90328368 21 18 C20.34 18.66 19.68 19.32 19 20 C17 15.25 17 15.25 17 13 C15.68 13 14.36 13 13 13 C13 12.01 13 11.02 13 10 C12.05125 9.896875 11.1025 9.79375 10.125 9.6875 C7 9 7 9 5 6 C4.01 6 3.02 6 2 6 C1.34 4.02 0.68 2.04 0 0 Z " fill="#888888" transform="translate(166,15)"/>
<path d="M0 0 C0.928125 0.165 1.85625 0.33 2.8125 0.5 C5.95621353 1.07748388 5.95621353 1.07748388 9 1 C9.99 1.66 10.98 2.32 12 3 C-0.19047619 13.28571429 -0.19047619 13.28571429 -7 17 C-7.66 16.67 -8.32 16.34 -9 16 C-9 14.68 -9 13.36 -9 12 C-8.443125 11.938125 -7.88625 11.87625 -7.3125 11.8125 C-3.89467213 10.61164156 -2.24592708 8.80740885 0 6 C0.41890218 2.78938212 0.41890218 2.78938212 0 0 Z " fill="#070707" transform="translate(177,192)"/>
<path d="M0 0 C5.77444226 2.90483271 11.38620638 5.19320981 17.6875 6.75 C17.6875 7.08 17.6875 7.41 17.6875 7.75 C6.55861984 7.2872607 -3.81650432 4.33439056 -14.3125 0.75 C-14.3125 -0.24 -14.3125 -1.23 -14.3125 -2.25 C-8.51923888 -3.58862259 -5.0997353 -2.72869473 0 0 Z " fill="#B8B8B8" transform="translate(84.3125,216.25)"/>
<path d="M0 0 C0.66 1.32 1.32 2.64 2 4 C0.02 6.97 0.02 6.97 -2 10 C-2.66 9.67 -3.32 9.34 -4 9 C-2.80100302 5.9168649 -1.52299523 2.93720508 0 0 Z M-5 9 C-4.67 9 -4.34 9 -4 9 C-3.875 14.75 -3.875 14.75 -5 17 C-6.11375 17.12375 -6.11375 17.12375 -7.25 17.25 C-11.12082684 18.30568005 -12.67673859 20.94307709 -15 24 C-17.59452238 26.90900994 -19.13530623 28.3766623 -23 29 C-23.99 29.33 -24.98 29.66 -26 30 C-26.66 29.34 -27.32 28.68 -28 28 C-27.21689453 27.63261719 -27.21689453 27.63261719 -26.41796875 27.2578125 C-17.91660656 22.94013293 -10.64497357 16.68639483 -5 9 Z " fill="#B2B2B2" transform="translate(140,139)"/>
<path d="M0 0 C1.65 0.33 3.3 0.66 5 1 C3.625 3.5 3.625 3.5 2 6 C1.34 6 0.68 6 0 6 C-0.33 6.99 -0.66 7.98 -1 9 C-2.84765625 10.60546875 -2.84765625 10.60546875 -5.0625 12.1875 C-5.79597656 12.71730469 -6.52945313 13.24710938 -7.28515625 13.79296875 C-7.85105469 14.19128906 -8.41695312 14.58960938 -9 15 C-9.66 14.67 -10.32 14.34 -11 14 C-11 13.34 -11 12.68 -11 12 C-10.34 12 -9.68 12 -9 12 C-9 11.01 -9 10.02 -9 9 C-9.66 9 -10.32 9 -11 9 C-10.67 7.68 -10.34 6.36 -10 5 C-8.35 5.33 -6.7 5.66 -5 6 C-4.67 5.34 -4.34 4.68 -4 4 C-3.34 4 -2.68 4 -2 4 C-1.34 2.68 -0.68 1.36 0 0 Z " fill="#C3C3C3" transform="translate(164,147)"/>
<path d="M0 0 C0 0.33 0 0.66 0 1 C-2.31 1 -4.62 1 -7 1 C-6.67 1.99 -6.34 2.98 -6 4 C-8 6 -8 6 -10.5 6.0625 C-11.7375 6.0315625 -11.7375 6.0315625 -13 6 C-13.99 6.495 -13.99 6.495 -15 7 C-15.33 6.01 -15.66 5.02 -16 4 C-15.34 4 -14.68 4 -14 4 C-14 3.34 -14 2.68 -14 2 C-16.31 2.33 -18.62 2.66 -21 3 C-21.33 3.99 -21.66 4.98 -22 6 C-22.763125 5.814375 -23.52625 5.62875 -24.3125 5.4375 C-27.08967375 4.77180827 -27.08967375 4.77180827 -30 6 C-32.1875 5.5625 -32.1875 5.5625 -34 5 C-22.49716752 0.83230707 -12.1980907 -0.29275418 0 0 Z " fill="#1D1D1D" transform="translate(111,1)"/>
<path d="M0 0 C0.66 0.33 1.32 0.66 2 1 C1.01 2.485 1.01 2.485 0 4 C-0.66 4 -1.32 4 -2 4 C-2 4.66 -2 5.32 -2 6 C-2.66 6 -3.32 6 -4 6 C-3.7525 6.7425 -3.505 7.485 -3.25 8.25 C-3.12625 9.61125 -3.12625 9.61125 -3 11 C-4.8125 13.0625 -4.8125 13.0625 -7 15 C-8.23512079 17.13309192 -8.23512079 17.13309192 -9 19 C-9.598125 18.835 -10.19625 18.67 -10.8125 18.5 C-13.11344336 17.8885876 -13.11344336 17.8885876 -16 18 C-10.95630444 11.67536589 -5.89401276 5.55288018 0 0 Z " fill="#151515" transform="translate(37,29)"/>
<path d="M0 0 C4.21912747 0.4794463 6.79663178 1.16625119 10 4 C9.01 4.66 8.02 5.32 7 6 C9.16874252 5.49396008 10.99967627 5.00016187 13 4 C15 6 15 6 16 8 C15.71758117 10.3400417 15.38749213 12.67504723 15 15 C9.72997792 10.60831493 4.64697949 6.0573621 0 1 C0 0.67 0 0.34 0 0 Z M13 3 C15 4 15 4 15 4 Z " fill="#7B7B7B" transform="translate(24,182)"/>
<path d="M0 0 C6.18233368 -0.4026486 11.10720828 1.03144523 16.9375 3 C17.81212891 3.28617187 18.68675781 3.57234375 19.58789062 3.8671875 C21.7284596 4.56901339 23.8654615 5.28008389 26 6 C24 8 24 8 22 9 C17.51325037 9 14.84714111 7.65319992 11 5.625 C10.38382813 5.30789062 9.76765625 4.99078125 9.1328125 4.6640625 C7.41907761 3.78145225 5.7093969 2.89098282 4 2 C2.66837825 1.3299211 1.33599461 0.66131733 0 0 Z " fill="#B9B9B9" transform="translate(128,2)"/>
<path d="M0 0 C1.42600325 4.27800976 -0.54362936 6.86765922 -2.4375 10.6875 C-2.77587891 11.38939453 -3.11425781 12.09128906 -3.46289062 12.81445312 C-4.29981348 14.54723706 -5.14877393 16.27419752 -6 18 C-6.33 16.68 -6.66 15.36 -7 14 C-7.66 14 -8.32 14 -9 14 C-9 12.35 -9 10.7 -9 9 C-7.68 8.67 -6.36 8.34 -5 8 C-4.67 6.35 -4.34 4.7 -4 3 C-3.34 3.33 -2.68 3.66 -2 4 C-1.34 2.68 -0.68 1.36 0 0 Z " fill="#0C0C0C" transform="translate(217,149)"/>
<path d="M0 0 C0.33 0 0.66 0 1 0 C1.55893503 6.45880476 0.68211268 12.26032684 -0.875 18.5 C-1.04870117 19.20640625 -1.22240234 19.9128125 -1.40136719 20.640625 C-2.73725788 25.73725788 -2.73725788 25.73725788 -5 28 C-4.90460938 27.39671875 -4.80921875 26.7934375 -4.7109375 26.171875 C-4.60007813 25.37265625 -4.48921875 24.5734375 -4.375 23.75 C-4.25898438 22.96109375 -4.14296875 22.1721875 -4.0234375 21.359375 C-3.99680605 18.67847541 -4.63407916 17.27305911 -6 15 C-5.34 15 -4.68 15 -4 15 C-4 14.01 -4 13.02 -4 12 C-4.66 12 -5.32 12 -6 12 C-6 10.68 -6 9.36 -6 8 C-5.360625 8.185625 -4.72125 8.37125 -4.0625 8.5625 C-3.0415625 8.7790625 -3.0415625 8.7790625 -2 9 C-0.50256881 7.50256881 -0.66797307 6.01175761 -0.4375 3.9375 C-0.293125 2.638125 -0.14875 1.33875 0 0 Z " fill="#1B1B1B" transform="translate(223,120)"/>
<path d="M0 0 C2.475 0.99 2.475 0.99 5 2 C2.30722411 5.32637022 -1.03724749 6.58473125 -5 8 C-5.99 7.67 -6.98 7.34 -8 7 C-8 6.01 -8 5.02 -8 4 C-8.66 3.67 -9.32 3.34 -10 3 C-6.83783053 1.1261218 -4.63834261 0.90166642 -1 1 C-0.67 0.67 -0.34 0.34 0 0 Z " fill="#BDBDBD" transform="translate(148,160)"/>
<path d="M0 0 C0.556875 0.144375 1.11375 0.28875 1.6875 0.4375 C4.11384195 1.02769128 6.54906345 1.523429 9 2 C9.66 4.97 10.32 7.94 11 11 C11.66 11 12.32 11 13 11 C12.67 12.32 12.34 13.64 12 15 C11.38511719 14.31292969 10.77023438 13.62585938 10.13671875 12.91796875 C9.32847656 12.01691406 8.52023438 11.11585937 7.6875 10.1875 C6.88699219 9.29417969 6.08648437 8.40085937 5.26171875 7.48046875 C3.95386936 6.04612616 2.61592469 4.63600706 1.20703125 3.30078125 C0 2 0 2 0 0 Z " fill="#686868" transform="translate(123,63)"/>
<path d="M0 0 C0.66 0.33 1.32 0.66 2 1 C1.34 3.31 0.68 5.62 0 8 C-0.556875 7.814375 -1.11375 7.62875 -1.6875 7.4375 C-4.41123342 6.92219908 -6.32244694 7.3658427 -9 8 C-9.66 8 -10.32 8 -11 8 C-11 7.01 -11 6.02 -11 5 C-9.21289414 4.13633178 -7.4201535 3.28431406 -5.625 2.4375 C-4.62726563 1.96183594 -3.62953125 1.48617188 -2.6015625 0.99609375 C-1.74304688 0.66738281 -0.88453125 0.33867187 0 0 Z " fill="#131313" transform="translate(71,8)"/>
<path d="M0 0 C3.3 0.66 6.6 1.32 10 2 C7.66387449 3.55741701 5.31654047 5.07282045 2.9375 6.5625 C2.24527344 6.99691406 1.55304688 7.43132813 0.83984375 7.87890625 C-1 9 -1 9 -3 10 C-2.690625 9.0925 -2.38125 8.185 -2.0625 7.25 C-1.28175145 4.86182795 -0.60938416 2.43753666 0 0 Z " fill="#B1B1B1" transform="translate(103,56)"/>
<path d="M0 0 C7.49440349 0.4996269 13.95650263 2.43764478 21 5 C21 5.33 21 5.66 21 6 C13.3299717 5.5697663 6.34103058 4.25768639 -1 2 C-0.67 1.34 -0.34 0.68 0 0 Z " fill="#C2C2C2" transform="translate(81,218)"/>
<path d="M0 0 C1.98 0 3.96 0 6 0 C6.33 0.66 6.66 1.32 7 2 C8.98 1.67 10.96 1.34 13 1 C13 3.64 13 6.28 13 9 C3.40546697 3.9977221 3.40546697 3.9977221 0 0 Z " fill="#9D9D9D" transform="translate(43,200)"/>
<path d="M0 0 C1.89492187 0.01353516 1.89492187 0.01353516 3.828125 0.02734375 C4.79234375 0.03894531 5.7565625 0.05054688 6.75 0.0625 C6.75 0.3925 6.75 0.7225 6.75 1.0625 C5.85796875 1.12308594 4.9659375 1.18367188 4.046875 1.24609375 C2.29117188 1.37177734 2.29117188 1.37177734 0.5 1.5 C-0.66015625 1.58121094 -1.8203125 1.66242187 -3.015625 1.74609375 C-6.71613885 2.06941564 -6.71613885 2.06941564 -10.25 3.0625 C-11.24 4.5475 -11.24 4.5475 -12.25 6.0625 C-12.58 5.7325 -12.91 5.4025 -13.25 5.0625 C-14.24 6.5475 -14.24 6.5475 -15.25 8.0625 C-15.91 7.4025 -16.57 6.7425 -17.25 6.0625 C-19.31874034 5.4199765 -19.31874034 5.4199765 -21.25 5.0625 C-19.66800369 4.41339846 -18.08434276 3.76835306 -16.5 3.125 C-15.61828125 2.76535156 -14.7365625 2.40570313 -13.828125 2.03515625 C-9.0376761 0.22785053 -5.15975506 -0.04777551 0 0 Z " fill="#BEBEBE" transform="translate(95.25,55.9375)"/>
<path d="M0 0 C3.62276315 1.3255581 6.63505348 2.94346955 9.8125 5.125 C10.60269531 5.66382813 11.39289063 6.20265625 12.20703125 6.7578125 C12.79871094 7.16773438 13.39039063 7.57765625 14 8 C13.67 8.66 13.34 9.32 13 10 C10.125 9.6875 10.125 9.6875 7 9 C6.34 8.01 5.68 7.02 5 6 C4.01 6 3.02 6 2 6 C1.34 4.02 0.68 2.04 0 0 Z " fill="#989898" transform="translate(166,15)"/>
<path d="M0 0 C1.175625 0.5259375 1.175625 0.5259375 2.375 1.0625 C3.674375 1.5265625 3.674375 1.5265625 5 2 C5.66 1.67 6.32 1.34 7 1 C7.66 1.66 8.32 2.32 9 3 C6.36 5.31 3.72 7.62 1 10 C0.67 9.01 0.34 8.02 0 7 C0.33 6.34 0.66 5.68 1 5 C0.34 4.67 -0.32 4.34 -1 4 C-0.67 2.68 -0.34 1.36 0 0 Z " fill="#101010" transform="translate(180,192)"/>
<path d="M0 0 C0 3.41321235 -0.66867466 4.39472885 -2.5 7.1875 C-2.9640625 7.90292969 -3.428125 8.61835938 -3.90625 9.35546875 C-4.2671875 9.89816406 -4.628125 10.44085938 -5 11 C-5.66 10.67 -6.32 10.34 -7 10 C-7 7.36 -7 4.72 -7 2 C-6.01 2.33 -5.02 2.66 -4 3 C-4 2.34 -4 1.68 -4 1 C-2.68 0.67 -1.36 0.34 0 0 Z " fill="#C4C4C4" transform="translate(176,136)"/>
<path d="M0 0 C0 0.66 0 1.32 0 2 C1.32 2.33 2.64 2.66 4 3 C3.34 3 2.68 3 2 3 C2 3.66 2 4.32 2 5 C-1.15506142 5.93619813 -3.96586502 6.1057123 -7.25 6.0625 C-8.14203125 6.05347656 -9.0340625 6.04445312 -9.953125 6.03515625 C-10.62859375 6.02355469 -11.3040625 6.01195312 -12 6 C-11.40445313 5.71382812 -10.80890625 5.42765625 -10.1953125 5.1328125 C-7.7807501 3.9426957 -7.7807501 3.9426957 -4.875 1.875 C-2 0 -2 0 0 0 Z " fill="#181818" transform="translate(132,218)"/>
<path d="M0 0 C1.98 0.99 3.96 1.98 6 3 C6 3.66 6 4.32 6 5 C4.576875 5.2165625 4.576875 5.2165625 3.125 5.4375 C0.1065506 5.82935399 0.1065506 5.82935399 -2 7 C-4.625 6.0625 -4.625 6.0625 -7 5 C-4.38058783 3.25372522 -2.96175123 2.61277612 0 2 C0 1.34 0 0.68 0 0 Z " fill="#AFAFAF" transform="translate(71,209)"/>
<path d="M0 0 C1.78022849 2.67034273 2.89126186 4.97600432 4.0625 7.9375 C4.40410156 8.79214844 4.74570313 9.64679688 5.09765625 10.52734375 C5.88211455 12.67696324 6.49817903 14.77025942 7 17 C5.35 17 3.7 17 2 17 C2 16.34 2 15.68 2 15 C2.66 15 3.32 15 4 15 C1.96731398 12.83656989 1.96731398 12.83656989 -1 11 C-0.67 10.34 -0.34 9.68 0 9 C0.66 9.33 1.32 9.66 2 10 C1.01 8.68 0.02 7.36 -1 6 C-0.34 6 0.32 6 1 6 C0.67 4.02 0.34 2.04 0 0 Z " fill="#858585" transform="translate(81,130)"/>
<path d="M0 0 C0.99 0 1.98 0 3 0 C4.39431504 2.78863007 4.25660094 4.92078868 4 8 C3.01 8.66 2.02 9.32 1 10 C0.67 9.34 0.34 8.68 0 8 C-0.66 7.67 -1.32 7.34 -2 7 C-1.125 2.25 -1.125 2.25 0 0 Z " fill="#3A3A3A" transform="translate(219,86)"/>
<path d="M0 0 C2.01623639 1.78277744 3.37344618 3.83126157 5 6 C4.01 6.66 3.02 7.32 2 8 C1.34 7.34 0.68 6.68 0 6 C-2.57061311 5.35232207 -2.57061311 5.35232207 -5 5 C-5.33 3.68 -5.66 2.36 -6 1 C-4 0 -4 0 0 0 Z " fill="#6F6F6F" transform="translate(95,154)"/>
<path d="M0 0 C1.32 1.65 2.64 3.3 4 5 C3.01 5.495 3.01 5.495 2 6 C1.27306096 7.97888961 0.60183749 9.97954558 0 12 C1.32 12.66 2.64 13.32 4 14 C3.360625 14.103125 2.72125 14.20625 2.0625 14.3125 C1.0415625 14.6528125 1.0415625 14.6528125 0 15 C-0.33 15.99 -0.66 16.98 -1 18 C-1.02690844 15.37493198 -1.04679404 12.75013827 -1.0625 10.125 C-1.07087891 9.37863281 -1.07925781 8.63226563 -1.08789062 7.86328125 C-1.11328125 2.2265625 -1.11328125 2.2265625 0 0 Z " fill="#171717" transform="translate(2,92)"/>
<path d="M0 0 C0.99 0 1.98 0 3 0 C4.65 2.97 6.3 5.94 8 9 C5.33333333 9 2.66666667 9 0 9 C0.185625 8.443125 0.37125 7.88625 0.5625 7.3125 C1.07551165 4.600867 0.6640724 2.65628961 0 0 Z " fill="#6B6B6B" transform="translate(201,46)"/>
<path d="M0 0 C-0.33 1.32 -0.66 2.64 -1 4 C-2.11375 3.814375 -3.2275 3.62875 -4.375 3.4375 C-7.82568861 2.68319343 -7.82568861 2.68319343 -10 4 C-10.66 3.34 -11.32 2.68 -12 2 C-8.40939861 -1.59060139 -4.69614193 -1.20757935 0 0 Z " fill="#0A0A0A" transform="translate(164,209)"/>
<path d="M0 0 C2.475 0.99 2.475 0.99 5 2 C5 2.99 5 3.98 5 5 C3.68 5 2.36 5 1 5 C0.87882812 5.63808594 0.75765625 6.27617188 0.6328125 6.93359375 C0.46523438 7.75988281 0.29765625 8.58617188 0.125 9.4375 C-0.03742187 10.26121094 -0.19984375 11.08492187 -0.3671875 11.93359375 C-0.57601562 12.61550781 -0.78484375 13.29742187 -1 14 C-1.99 14.495 -1.99 14.495 -3 15 C-2.69052329 13.06201479 -2.37731166 11.12462574 -2.0625 9.1875 C-1.88847656 8.10855469 -1.71445312 7.02960938 -1.53515625 5.91796875 C-1 3 -1 3 0 0 Z " fill="#B8B8B8" transform="translate(43,99)"/>
<path d="M0 0 C0.99 0 1.98 0 3 0 C3.33 0.99 3.66 1.98 4 3 C2.78515625 4.82421875 2.78515625 4.82421875 1.0625 6.6875 C0.49660156 7.31011719 -0.06929687 7.93273437 -0.65234375 8.57421875 C-1.09707031 9.04472656 -1.54179687 9.51523438 -2 10 C-2.99 9.34 -3.98 8.68 -5 8 C-5 7.34 -5 6.68 -5 6 C-3.02 5.34 -1.04 4.68 1 4 C0.67 2.68 0.34 1.36 0 0 Z " fill="#090909" transform="translate(199,176)"/>
<path d="M0 0 C1.23593891 3.70781672 0.5678132 4.67510253 -0.9375 8.1875 C-1.31777344 9.08855469 -1.69804687 9.98960937 -2.08984375 10.91796875 C-2.54037109 11.94857422 -2.54037109 11.94857422 -3 13 C-3.66 13 -4.32 13 -5 13 C-4.93976735 11.39479996 -4.85091401 9.79065673 -4.75 8.1875 C-4.70359375 7.29417969 -4.6571875 6.40085937 -4.609375 5.48046875 C-4 3 -4 3 -1.953125 1.17578125 C-1.30859375 0.78777344 -0.6640625 0.39976563 0 0 Z " fill="#BCBCBC" transform="translate(182,121)"/>
<path d="M0 0 C0.66 0 1.32 0 2 0 C2.33 1.32 2.66 2.64 3 4 C2.34 4 1.68 4 1 4 C1 4.99 1 5.98 1 7 C0.34 7 -0.32 7 -1 7 C-1 8.32 -1 9.64 -1 11 C-2.98 11.99 -2.98 11.99 -5 13 C-4.39254603 8.14036821 -2.27241033 4.2594482 0 0 Z " fill="#101010" transform="translate(13,60)"/>
<path d="M0 0 C0 0.33 0 0.66 0 1 C-2.64 1.33 -5.28 1.66 -8 2 C-8.33 2.99 -8.66 3.98 -9 5 C-9.763125 4.814375 -10.52625 4.62875 -11.3125 4.4375 C-14.08967375 3.77180827 -14.08967375 3.77180827 -17 5 C-19.1875 4.5625 -19.1875 4.5625 -21 4 C-13.76763333 1.49467037 -7.73484431 -0.15166361 0 0 Z " fill="#121212" transform="translate(98,2)"/>
<path d="M0 0 C1.32 0.33 2.64 0.66 4 1 C3.67 2.65 3.34 4.3 3 6 C-1.75 7.125 -1.75 7.125 -4 6 C-2.68 4.02 -1.36 2.04 0 0 Z " fill="#090909" transform="translate(20,49)"/>
<path d="M0 0 C3.37462715 0.54723683 5.08235 1.0549 8 3 C8 3.66 8 4.32 8 5 C5.69 5.33 3.38 5.66 1 6 C1 5.34 1 4.68 1 4 C0.01 3.67 -0.98 3.34 -2 3 C-1.34 2.01 -0.68 1.02 0 0 Z " fill="#4A4A4A" transform="translate(142,10)"/>
<path d="M0 0 C2 1 2 1 2 1 Z M-1 1 C0.32 1.66 1.64 2.32 3 3 C2.67 5.97 2.34 8.94 2 12 C0.35 10.35 -1.3 8.7 -3 7 C-2.34 6.01 -1.68 5.02 -1 4 C-1 3.01 -1 2.02 -1 1 Z " fill="#868686" transform="translate(37,185)"/>
<path d="M0 0 C1.65 0 3.3 0 5 0 C4.54738642 1.43931117 4.08767021 2.87638999 3.625 4.3125 C3.36976562 5.11300781 3.11453125 5.91351563 2.8515625 6.73828125 C2 9 2 9 0 12 C0.020625 11.21625 0.04125 10.4325 0.0625 9.625 C0.18684063 7.01885039 0.18684063 7.01885039 -1 5 C-1 3.27917076 -0.4277972 1.65771414 0 0 Z " fill="#AEAEAE" transform="translate(82,80)"/>
<path d="M0 0 C0.66 0.33 1.32 0.66 2 1 C1.91231752 2.5843317 1.80412671 4.16753567 1.6875 5.75 C1.62949219 6.63171875 1.57148438 7.5134375 1.51171875 8.421875 C0.9358819 11.32303774 -0.07596148 12.79225607 -2 15 C-1.90460938 14.39671875 -1.80921875 13.7934375 -1.7109375 13.171875 C-1.60007813 12.37265625 -1.48921875 11.5734375 -1.375 10.75 C-1.25898438 9.96109375 -1.14296875 9.1721875 -1.0234375 8.359375 C-0.99680605 5.67847541 -1.63407916 4.27305911 -3 2 C-2.34 2 -1.68 2 -1 2 C-0.67 1.34 -0.34 0.68 0 0 Z " fill="#141414" transform="translate(220,133)"/>
<path d="M0 0 C1.03115279 3.26913624 0.9638984 5.86041348 0.5625 9.25 C0.46066406 10.14203125 0.35882813 11.0340625 0.25390625 11.953125 C0.17011719 12.62859375 0.08632812 13.3040625 0 14 C-0.33 13.01 -0.66 12.02 -1 11 C-1.99 11 -2.98 11 -4 11 C-3.5247412 9.35303396 -3.04468109 7.70745272 -2.5625 6.0625 C-2.29566406 5.14597656 -2.02882812 4.22945312 -1.75390625 3.28515625 C-1 1 -1 1 0 0 Z " fill="#363636" transform="translate(182,126)"/>
<path d="M0 0 C0.66 0.33 1.32 0.66 2 1 C1.375 3.375 1.375 3.375 0 6 C-3.125 7.3125 -3.125 7.3125 -6 8 C-6 6.68 -6 5.36 -6 4 C-3 1.75 -3 1.75 0 0 Z " fill="#0E0E0E" transform="translate(55,16)"/>
<path d="M0 0 C10.55808656 -0.3690205 10.55808656 -0.3690205 15 2 C15 2.99 15 3.98 15 5 C15.99 5.33 16.98 5.66 18 6 C16.35 6.33 14.7 6.66 13 7 C13.33 5.68 13.66 4.36 14 3 C12.02 3 10.04 3 8 3 C8 2.34 8 1.68 8 1 C5.36 1 2.72 1 0 1 C0 0.67 0 0.34 0 0 Z " fill="#2C2C2C" transform="translate(114,1)"/>
<path d="M0 0 C0.99 0.33 1.98 0.66 3 1 C2.34 3.31 1.68 5.62 1 8 C-0.32 8.33 -1.64 8.66 -3 9 C-2.01 6.03 -1.02 3.06 0 0 Z " fill="#373737" transform="translate(44,88)"/>
<path d="M0 0 C2.475 0.495 2.475 0.495 5 1 C4.67 1.99 4.34 2.98 4 4 C4.66 4.33 5.32 4.66 6 5 C6 6.98 6 8.96 6 11 C3.52140092 8.7991151 2.38789634 6.93627031 1.3125 3.8125 C1.06113281 3.09707031 0.80976563 2.38164063 0.55078125 1.64453125 C0.36902344 1.10183594 0.18726563 0.55914062 0 0 Z " fill="#818181" transform="translate(137,80)"/>
<path d="M0 0 C1.65 0 3.3 0 5 0 C4.375 2.875 4.375 2.875 3 6 C-0.125 7.375 -0.125 7.375 -3 8 C-2.67 6.68 -2.34 5.36 -2 4 C-0.68 4 0.64 4 2 4 C1.34 2.68 0.68 1.36 0 0 Z " fill="#363636" transform="translate(71,56)"/>
<path d="M0 0 C6.625 -0.25 6.625 -0.25 10 2 C8.3125 3.625 8.3125 3.625 6 5 C3.3125 4.375 3.3125 4.375 1 3 C0.67 2.01 0.34 1.02 0 0 Z " fill="#4B4B4B" transform="translate(74,209)"/>
<path d="M0 0 C1.65 0 3.3 0 5 0 C3.02 2.97 1.04 5.94 -1 9 C-1.66 8.34 -2.32 7.68 -3 7 C-2.01 4.69 -1.02 2.38 0 0 Z " fill="#383838" transform="translate(51,76)"/>
<path d="M0 0 C0.66 0 1.32 0 2 0 C4 3 4 3 4 6 C4.66 6 5.32 6 6 6 C5.67 7.32 5.34 8.64 5 10 C2.69 7.36 0.38 4.72 -2 2 C-1.34 1.34 -0.68 0.68 0 0 Z " fill="#767676" transform="translate(130,68)"/>
<path d="M0 0 C4.82360189 -0.19294408 8.49646738 0.24252386 13 2 C13 2.99 13 3.98 13 5 C11.58208592 4.54554036 10.16571954 4.08625056 8.75 3.625 C7.96109375 3.36976562 7.1721875 3.11453125 6.359375 2.8515625 C4.13372042 2.04826333 2.09068328 1.10288338 0 0 Z " fill="#BFBFBF" transform="translate(128,2)"/>
<path d="M0 0 C-2 2 -2 2 -5.4765625 2.1953125 C-6.85950968 2.18201493 -8.24238654 2.15816232 -9.625 2.125 C-10.33140625 2.11597656 -11.0378125 2.10695312 -11.765625 2.09765625 C-13.51056098 2.07407603 -15.25532295 2.03820461 -17 2 C-17 1.67 -17 1.34 -17 1 C-14.91835982 0.63601378 -12.83459438 0.28416713 -10.75 -0.0625 C-9.00976562 -0.35833984 -9.00976562 -0.35833984 -7.234375 -0.66015625 C-4.37477376 -0.9606216 -2.66674071 -0.9439206 0 0 Z " fill="#DEDEDE" transform="translate(138,223)"/>
<path d="M0 0 C0.66 0.33 1.32 0.66 2 1 C1.875 2.875 1.875 2.875 1 5 C-2.0625 6.25 -2.0625 6.25 -5 7 C-5 5.35 -5 3.7 -5 2 C-4.360625 1.855625 -3.72125 1.71125 -3.0625 1.5625 C-1.02454854 1.18992819 -1.02454854 1.18992819 0 0 Z " fill="#0E0E0E" transform="translate(173,202)"/>
<path d="M0 0 C0.66 0.33 1.32 0.66 2 1 C2 6.28 2 11.56 2 17 C1.67 17 1.34 17 1 17 C0.80372609 15.41773035 0.61834462 13.83410729 0.4375 12.25 C0.33308594 11.36828125 0.22867188 10.4865625 0.12109375 9.578125 C0.00543324 7.11567549 0.26361305 5.33461936 1 3 C0.34 3 -0.32 3 -1 3 C-0.67 2.01 -0.34 1.02 0 0 Z " fill="#949494" transform="translate(185,87)"/>
<path d="M0 0 C0.66 0.66 1.32 1.32 2 2 C1.625 4.625 1.625 4.625 1 7 C0.01 7 -0.98 7 -2 7 C-2 6.34 -2 5.68 -2 5 C-2.66 4.67 -3.32 4.34 -4 4 C-2.68 2.68 -1.36 1.36 0 0 Z " fill="#090909" transform="translate(38,33)"/>
<path d="M0 0 C3.625 0.375 3.625 0.375 7 1 C5.04783565 2.95216435 3.46800047 3.84826645 1 5 C0.01 4.01 -0.98 3.02 -2 2 C-1.34 1.34 -0.68 0.68 0 0 Z " fill="#484848" transform="translate(117,170)"/>
<path d="M0 0 C0 3.58912412 -0.66436554 4.10857029 -3 6.6875 C-3.556875 7.31011719 -4.11375 7.93273437 -4.6875 8.57421875 C-5.120625 9.04472656 -5.55375 9.51523438 -6 10 C-6.33 9.34 -6.66 8.68 -7 8 C-4.54385965 3 -4.54385965 3 -3 1 C-2.01 0.67 -1.02 0.34 0 0 Z " fill="#B1B1B1" transform="translate(97,66)"/>
<path d="M0 0 C0.66 0.33 1.32 0.66 2 1 C1.67 1.61875 1.34 2.2375 1 2.875 C-0.14193235 4.91018344 -0.14193235 4.91018344 0 7 C-1.98 6.34 -3.96 5.68 -6 5 C-2.25 1.125 -2.25 1.125 0 0 Z " fill="#C1C1C1" transform="translate(72,62)"/>
<path d="M0 0 C-1.39332574 3.36720387 -2.9789286 4.9859524 -6 7 C-6.66 6.67 -7.32 6.34 -8 6 C-3.375 0 -3.375 0 0 0 Z " fill="#131313" transform="translate(29,41)"/>
<path d="M0 0 C1.670625 0.061875 1.670625 0.061875 3.375 0.125 C2.055 1.445 0.735 2.765 -0.625 4.125 C-3.1 3.135 -3.1 3.135 -5.625 2.125 C-3.625 0.125 -3.625 0.125 0 0 Z " fill="#3E3E3E" transform="translate(133.625,169.875)"/>
<path d="M0 0 C2.125 0.9375 2.125 0.9375 4 2 C2.3125 3.625 2.3125 3.625 0 5 C-2.75 4.1875 -2.75 4.1875 -5 3 C-2 1 -2 1 0 0 Z " fill="#363636" transform="translate(63,64)"/>
<path d="M0 0 C1.32 0.66 2.64 1.32 4 2 C4 2.99 4 3.98 4 5 C3.01 5.66 2.02 6.32 1 7 C0.34 5.02 -0.32 3.04 -1 1 C-0.67 0.67 -0.34 0.34 0 0 Z " fill="#7E7E7E" transform="translate(190,33)"/>
<path d="M0 0 C4.75 1.875 4.75 1.875 7 3 C7 3.66 7 4.32 7 5 C5.35 5.33 3.7 5.66 2 6 C1.34 4.02 0.68 2.04 0 0 Z " fill="#9E9E9E" transform="translate(166,15)"/>
<path d="M0 0 C1.98 0.66 3.96 1.32 6 2 C6 2.66 6 3.32 6 4 C6.66 4 7.32 4 8 4 C8 4.66 8 5.32 8 6 C7.01 6.33 6.02 6.66 5 7 C3.35 4.69 1.7 2.38 0 0 Z " fill="#737373" transform="translate(18,174)"/>
<path d="M0 0 C1.2065625 0.0309375 1.2065625 0.0309375 2.4375 0.0625 C2.7675 1.3825 3.0975 2.7025 3.4375 4.0625 C2.4475 4.3925 1.4575 4.7225 0.4375 5.0625 C-0.2225 4.0725 -0.8825 3.0825 -1.5625 2.0625 C-2.2225 1.7325 -2.8825 1.4025 -3.5625 1.0625 C-2.5625 0.0625 -2.5625 0.0625 0 0 Z " fill="#090909" transform="translate(204.5625,167.9375)"/>
<path d="M0 0 C3.375 -0.1875 3.375 -0.1875 7 0 C7.66 0.99 8.32 1.98 9 3 C6 4 6 4 2.8125 2.5625 C1.884375 2.046875 0.95625 1.53125 0 1 C0 0.67 0 0.34 0 0 Z " fill="#ADADAD" transform="translate(56,209)"/>
<path d="M0 0 C2.8125 -0.25 2.8125 -0.25 6 0 C7.875 2 7.875 2 9 4 C8.01 4.33 7.02 4.66 6 5 C2.8125 3.125 2.8125 3.125 0 1 C0 0.67 0 0.34 0 0 Z " fill="#959595" transform="translate(43,200)"/>
<path d="M0 0 C0.33 0.66 0.66 1.32 1 2 C0.22265625 3.9453125 0.22265625 3.9453125 -0.9375 6.125 C-1.31777344 6.84945312 -1.69804687 7.57390625 -2.08984375 8.3203125 C-2.39019531 8.87460938 -2.69054687 9.42890625 -3 10 C-3.33 10 -3.66 10 -4 10 C-3.38461538 3.47692308 -3.38461538 3.47692308 -1.4375 1.0625 C-0.7259375 0.5365625 -0.7259375 0.5365625 0 0 Z " fill="#060606" transform="translate(214,157)"/>
<path d="M0 0 C1.32 1.65 2.64 3.3 4 5 C3.01 5.495 3.01 5.495 2 6 C0.86649466 8.01669827 0.86649466 8.01669827 0 10 C-1.125 2.25 -1.125 2.25 0 0 Z " fill="#222222" transform="translate(2,92)"/>
<path d="M0 0 C0.66 0.33 1.32 0.66 2 1 C1.67 3.31 1.34 5.62 1 8 C0.01 8 -0.98 8 -2 8 C-1.125 2.25 -1.125 2.25 0 0 Z " fill="#BBBBBB" transform="translate(46,91)"/>
<path d="M0 0 C3.37503669 1.1858237 5.64722731 2.27573689 8 5 C5.16032769 5 2.76264289 4.59732819 0 4 C0 2.68 0 1.36 0 0 Z " fill="#8E8E8E" transform="translate(179,24)"/>
<path d="M0 0 C1.32 1.32 2.64 2.64 4 4 C3.67 4.99 3.34 5.98 3 7 C1 6 1 6 -2 4 C-2 3.34 -2 2.68 -2 2 C-1.34 2 -0.68 2 0 2 C0 1.34 0 0.68 0 0 Z " fill="#737373" transform="translate(88,147)"/>
<path d="M0 0 C1.0625 1.875 1.0625 1.875 2 4 C1.67 4.66 1.34 5.32 1 6 C-1.475 5.01 -1.475 5.01 -4 4 C-2.68 2.68 -1.36 1.36 0 0 Z " fill="#EDEDED" transform="translate(179,202)"/>
</svg>
