<?xml version="1.0" standalone="no"?>
<!DOCTYPE svg PUBLIC "-//W3C//DTD SVG 20010904//EN"
 "http://www.w3.org/TR/2001/REC-SVG-20010904/DTD/svg10.dtd">
<svg version="1.0" xmlns="http://www.w3.org/2000/svg"
 width="225.000000pt" height="225.000000pt" viewBox="0 0 225.000000 225.000000"
 preserveAspectRatio="xMidYMid meet">

<g transform="translate(0.000000,225.000000) scale(0.100000,-0.100000)"
fill="#000000" stroke="none">
<path d="M22 1128 l3 -223 35 0 35 0 5 170 5 169 65 -79 c36 -44 99 -122 140
-173 l74 -92 236 2 235 3 3 33 3 32 -155 0 -156 0 0 60 0 59 123 3 122 3 3 33
3 32 -125 0 -126 0 0 60 0 60 156 0 155 0 -3 33 -3 32 -190 0 -190 0 -3 -219
-2 -218 -177 221 -176 221 -49 0 -48 0 2 -222z"/>
<path d="M960 1342 c0 -4 78 -104 173 -222 l172 -215 48 -3 c26 -2 47 -1 47 2
0 4 -38 53 -85 110 -47 57 -85 107 -85 110 0 4 39 55 86 114 l87 107 -44 3
c-42 3 -46 1 -86 -45 -24 -26 -53 -63 -65 -80 -13 -18 -26 -33 -29 -33 -3 0
-34 36 -70 80 -62 77 -65 80 -106 80 -24 0 -43 -4 -43 -8z"/>
<path d="M1490 1315 l0 -35 75 0 75 0 2 -187 3 -188 35 0 35 0 3 188 2 187 75
0 75 0 0 35 0 35 -190 0 -190 0 0 -35z"/>
<path d="M2020 1026 c0 -35 -3 -71 -6 -80 -8 -20 -33 -21 -40 -1 -7 18 -34 20
-34 2 0 -36 65 -51 94 -21 22 22 23 164 1 164 -12 0 -15 -14 -15 -64z"/>
<path d="M2106 1074 c-34 -34 -9 -73 57 -89 31 -8 35 -30 8 -45 -25 -13 -27
-13 -45 6 -9 8 -23 14 -31 12 -14 -3 -14 -6 0 -25 21 -30 86 -32 115 -3 29 29
13 61 -41 81 -48 18 -57 30 -35 48 16 13 56 6 56 -10 0 -5 7 -9 15 -9 18 0 20
21 3 38 -17 17 -84 15 -102 -4z"/>
<path d="M1026 998 c-36 -46 -66 -86 -66 -90 0 -5 20 -8 44 -8 43 0 46 2 96
66 l52 66 -23 24 c-12 13 -26 24 -30 24 -4 0 -37 -37 -73 -82z"/>
<path d="M1872 928 c5 -15 28 -18 29 -3 0 6 -7 12 -17 13 -10 3 -15 -1 -12
-10z"/>
</g>
</svg>
