<?xml version="1.0" standalone="no"?>
<!DOCTYPE svg PUBLIC "-//W3C//DTD SVG 20010904//EN"
 "http://www.w3.org/TR/2001/REC-SVG-20010904/DTD/svg10.dtd">
<svg version="1.0" xmlns="http://www.w3.org/2000/svg"
 width="225.000000pt" height="225.000000pt" viewBox="0 0 225.000000 225.000000"
 preserveAspectRatio="xMidYMid meet">

<g transform="translate(0.000000,225.000000) scale(0.100000,-0.100000)"
fill="#000000" stroke="none">
<path d="M988 2240 c-256 -30 -491 -150 -678 -346 -185 -194 -284 -421 -305
-699 -33 -440 226 -885 630 -1080 166 -80 293 -108 490 -108 317 0 568 104
791 327 439 438 444 1122 12 1572 -242 252 -588 375 -940 334z m387 -128 c310
-87 543 -282 675 -566 68 -144 84 -226 84 -421 0 -213 -24 -314 -115 -483
-128 -240 -352 -418 -624 -498 -109 -31 -319 -44 -431 -25 -427 72 -752 391
-839 820 -24 114 -16 331 15 446 45 166 128 311 253 442 139 145 300 239 492
287 94 23 111 24 270 21 110 -3 169 -9 220 -23z"/>
<path d="M680 1684 c-84 -36 -96 -66 -110 -272 -12 -184 -21 -202 -105 -214
-17 -3 -20 -12 -23 -70 -3 -67 -3 -67 25 -73 46 -11 70 -26 83 -54 7 -14 16
-91 20 -171 11 -191 24 -224 105 -261 41 -19 120 -25 143 -10 9 5 12 25 10 62
l-3 54 -48 3 c-60 4 -62 9 -70 167 -7 140 -25 200 -72 247 l-34 33 33 35 c19
19 38 44 44 55 15 31 32 155 32 240 0 90 10 115 48 115 65 0 72 7 72 71 l0 59
-57 0 c-32 -1 -74 -8 -93 -16z"/>
<path d="M1433 1693 c-9 -3 -13 -26 -13 -64 l0 -59 43 0 c69 0 69 -2 84 -171
14 -164 33 -225 80 -256 l24 -16 -35 -36 c-48 -50 -63 -103 -71 -254 -5 -86
-11 -132 -21 -141 -7 -8 -33 -17 -59 -20 l-45 -7 0 -60 0 -59 53 0 c70 0 115
14 149 47 37 36 48 78 58 242 5 75 14 149 20 163 13 28 41 46 80 50 24 3 25 6
25 73 0 62 -2 70 -20 73 -86 13 -94 31 -106 221 -11 168 -19 201 -60 235 -44
38 -141 58 -186 39z"/>
<path d="M792 1177 c-48 -51 -12 -127 60 -127 41 0 78 36 78 75 0 12 -9 34
-21 49 -27 35 -86 36 -117 3z"/>
<path d="M1070 1180 c-12 -12 -20 -33 -20 -55 0 -22 8 -43 20 -55 12 -12 33
-20 55 -20 22 0 43 8 55 20 12 12 20 33 20 55 0 22 -8 43 -20 55 -12 12 -33
20 -55 20 -22 0 -43 -8 -55 -20z"/>
<path d="M1341 1174 c-12 -15 -21 -37 -21 -49 0 -12 9 -34 21 -49 44 -56 139
-20 139 54 0 65 -98 96 -139 44z"/>
</g>
</svg>
