<?xml version="1.0" encoding="UTF-8"?>
<svg version="1.1" xmlns="http://www.w3.org/2000/svg" width="225" height="225">
<path d="M0 0 C74.25 0 148.5 0 225 0 C225 74.25 225 148.5 225 225 C150.75 225 76.5 225 0 225 C0 150.75 0 76.5 0 0 Z " fill="#3178C6" transform="translate(0,0)"/>
<path d="M0 0 C1.1859375 -0.020625 2.371875 -0.04125 3.59375 -0.0625 C10.97776059 -0.09510049 16.91866616 0.7515058 23.875 3.25 C23.875 9.85 23.875 16.45 23.875 23.25 C20.905 22.26 17.935 21.27 14.875 20.25 C6.93683357 18.08609749 -1.76719154 16.61582183 -9.625 19.5625 C-10.45 20.119375 -11.275 20.67625 -12.125 21.25 C-12.764375 21.6625 -13.40375 22.075 -14.0625 22.5 C-15.4169252 24.38960257 -15.4169252 24.38960257 -15.125 27.625 C-13.98090312 31.77235118 -12.49474781 33.7464425 -9.125 36.25 C-5.44433299 38.26407516 -1.64122482 39.97535045 2.1875 41.6875 C11.90835587 46.04726965 21.43057937 50.33754286 26.80078125 60.00390625 C28.23255088 64.33045375 28.49245821 68.33848104 28.5625 72.875 C28.58183594 73.67446045 28.60117188 74.4739209 28.62109375 75.29760742 C28.47792913 82.52518375 25.57681053 86.95568716 21.09375 92.421875 C11.82534403 100.93195684 -0.1079923 101.90937778 -12.1875 101.75 C-13.9519043 101.77320313 -13.9519043 101.77320313 -15.75195312 101.796875 C-22.78410761 101.76577647 -33.76060579 101.61439421 -39.125 96.25 C-39.21200342 94.61527118 -39.23201063 92.97685945 -39.22265625 91.33984375 C-39.21943359 90.35048828 -39.21621094 89.36113281 -39.21289062 88.34179688 C-39.20451172 87.30087891 -39.19613281 86.25996094 -39.1875 85.1875 C-39.18298828 84.14271484 -39.17847656 83.09792969 -39.17382812 82.02148438 C-39.16199913 79.4309334 -39.14551689 76.84049441 -39.125 74.25 C-38.02800781 74.81589844 -36.93101562 75.38179688 -35.80078125 75.96484375 C-34.34651727 76.70604926 -32.89208107 77.44691695 -31.4375 78.1875 C-30.71626953 78.56068359 -29.99503906 78.93386719 -29.25195312 79.31835938 C-21.07294755 83.46388275 -11.52638387 85.28724283 -2.53515625 82.42578125 C1.3514312 80.58257876 1.3514312 80.58257876 3.875 77.25 C4.40913103 73.33303914 4.14779507 71.66613749 1.95703125 68.32421875 C-1.53273373 64.33644552 -5.99166453 62.75713223 -10.8125 60.8125 C-22.45497842 55.82720624 -32.41456075 50.75209297 -38.2578125 38.96484375 C-40.34708317 32.42410898 -40.46430839 23.08914366 -37.5625 16.75 C-32.22548689 8.20707277 -24.9047301 3.62758241 -15.3371582 0.70361328 C-10.33011798 -0.3231035 -5.09103142 0.02171016 0 0 Z " fill="#FCFDFE" transform="translate(178.125,104.75)"/>
<path d="M0 0 C26.07 0 52.14 0 79 0 C79 5.94 79 11.88 79 18 C69.43 18 59.86 18 50 18 C50 44.4 50 70.8 50 98 C42.74 98 35.48 98 28 98 C28 71.6 28 45.2 28 18 C18.76 18 9.52 18 0 18 C0 12.06 0 6.12 0 0 Z " fill="#FEFEFE" transform="translate(52,107)"/>
<path d="M0 0 C5.94 0 11.88 0 18 0 C16.02 0.99 16.02 0.99 14 2 C12.96875 2.70125 11.9375 3.4025 10.875 4.125 C8 6 8 6 6 6 C3.91620491 9.84700632 2.50313376 13.90054429 1 18 C0.67 18 0.34 18 0 18 C0 12.06 0 6.12 0 0 Z " fill="#F7F9FC" transform="translate(0,0)"/>
<path d="M0 0 C0.33 0 0.66 0 1 0 C1 5.94 1 11.88 1 18 C-4.94 18 -10.88 18 -17 18 C-15.68 17.34 -14.36 16.68 -13 16 C-7.00805861 12.87529619 -3.82165267 10.20763586 -1 4 C-0.23959428 1.73014106 -0.23959428 1.73014106 0 0 Z " fill="#F9FAFD" transform="translate(224,207)"/>
<path d="M0 0 C0.66 1.32 1.32 2.64 2 4 C5.14361179 10.02819939 7.81990274 13.07849948 14 16 C15.32 16.66 16.64 17.32 18 18 C12.06 18 6.12 18 0 18 C0 12.06 0 6.12 0 0 Z " fill="#F9FAFD" transform="translate(0,207)"/>
<path d="M0 0 C5.94 0 11.88 0 18 0 C18 5.94 18 11.88 18 18 C17.34 16.68 16.68 15.36 16 14 C12.85638821 7.97180061 10.18009726 4.92150052 4 2 C2.68 1.34 1.36 0.68 0 0 Z " fill="#F9FAFD" transform="translate(207,0)"/>
</svg>
