<?xml version="1.0" standalone="no"?>
<!DOCTYPE svg PUBLIC "-//W3C//DTD SVG 20010904//EN"
 "http://www.w3.org/TR/2001/REC-SVG-20010904/DTD/svg10.dtd">
<svg version="1.0" xmlns="http://www.w3.org/2000/svg"
 width="225.000000pt" height="225.000000pt" viewBox="0 0 225.000000 225.000000"
 preserveAspectRatio="xMidYMid meet">

<g transform="translate(0.000000,225.000000) scale(0.100000,-0.100000)"
fill="#000000" stroke="none">
<path d="M237 1279 c-30 -52 -96 -165 -145 -251 l-91 -158 290 0 c251 0 290 2
286 15 -8 19 -267 468 -277 479 -5 4 -33 -34 -63 -85z"/>
<path d="M602 1318 c8 -13 56 -96 107 -185 51 -90 96 -163 100 -163 3 0 54 84
113 185 l106 185 -41 0 -42 0 -64 -115 c-36 -64 -69 -114 -73 -113 -4 2 -37
53 -72 113 l-64 110 -42 3 c-43 3 -43 3 -28 -20z"/>
<path d="M2180 1155 l0 -185 35 0 35 0 0 185 0 185 -35 0 -35 0 0 -185z"/>
<path d="M1039 1227 c-124 -83 -63 -257 91 -257 47 0 111 26 118 47 6 20 -42
37 -66 24 -39 -21 -114 -6 -126 25 -4 11 16 14 104 14 l110 0 0 38 c0 106
-138 172 -231 109z m138 -62 l28 -24 -77 -1 c-81 0 -94 8 -56 34 33 23 73 20
105 -9z"/>
<path d="M1590 1228 c-90 -61 -89 -183 3 -238 45 -28 124 -27 167 3 44 29 46
39 11 60 -27 16 -29 16 -46 -3 -23 -26 -75 -26 -106 -1 -33 27 -33 95 0 122
30 24 72 24 102 0 21 -17 27 -18 51 -5 36 19 35 28 -4 55 -48 35 -132 38 -178
7z"/>
<path d="M1899 1230 c-97 -51 -89 -193 13 -246 38 -20 117 -18 158 4 43 24 47
35 15 52 -19 10 -30 11 -50 2 -14 -7 -38 -12 -53 -12 -29 0 -72 24 -72 41 0 5
48 9 110 9 l110 0 0 33 c0 105 -130 171 -231 117z m129 -56 c37 -26 25 -34
-48 -34 -38 0 -70 4 -70 9 0 16 43 41 70 41 14 0 36 -7 48 -16z"/>
<path d="M1322 1108 l3 -133 33 -3 32 -3 0 76 c0 67 3 79 25 100 15 16 36 25
55 25 28 0 30 3 30 35 0 29 -4 35 -21 35 -25 0 -60 -18 -76 -39 -11 -14 -12
-12 -13 12 0 24 -4 27 -35 27 l-36 0 3 -132z"/>
</g>
</svg>
